<ttFont>
<head>
    <!-- Most of this table will be recalculated by the compiler -->
    <tableVersion value="1.0"/>
    <fontRevision value="1.0"/>
    <checkSumAdjustment value="0x1ccec74f"/>
    <magicNumber value="0x5f0f3cf5"/>
    <flags value="00000000 00011001"/>
    <unitsPerEm value="1000"/>
    <created value="Thu Apr 27 12:34:21 2006"/>
    <modified value="Fri Apr 28 07:40:57 2006"/>
    <xMin value="-166"/>
    <yMin value="-219"/>
    <xMax value="1016"/>
    <yMax value="938"/>
    <macStyle value="00000000 00000000"/>
    <lowestRecPPEM value="9"/>
    <fontDirectionHint value="2"/>
    <indexToLocFormat value="1"/>
    <glyphDataFormat value="0"/>
  </head>
    <TTGlyph name=".notdef" xMin="0" yMin="0" xMax="512" yMax="718">
      <contour>
        <pt x="222" y="117" on="1"/>
        <pt x="222" y="184" on="1"/>
        <pt x="278" y="184" on="1"/>
        <pt x="278" y="117" on="1"/>
      </contour>
      <contour>
        <pt x="225" y="234" on="1"/>
        <pt x="223" y="251" on="1"/>
        <pt x="223" y="306" on="0"/>
        <pt x="249" y="358" on="0"/>
        <pt x="282" y="391" on="1"/>
        <pt x="314" y="422" on="0"/>
        <pt x="332" y="455" on="0"/>
        <pt x="332" y="474" on="1"/>
        <pt x="332" y="510" on="0"/>
        <pt x="287" y="559" on="0"/>
        <pt x="256" y="559" on="1"/>
        <pt x="225" y="559" on="0"/>
        <pt x="180" y="515" on="0"/>
        <pt x="174" y="464" on="1"/>
        <pt x="124" y="472" on="1"/>
        <pt x="131" y="543" on="0"/>
        <pt x="205" y="609" on="0"/>
        <pt x="259" y="609" on="1"/>
        <pt x="312" y="609" on="0"/>
        <pt x="383" y="537" on="0"/>
        <pt x="383" y="478" on="1"/>
        <pt x="383" y="446" on="0"/>
        <pt x="358" y="393" on="0"/>
        <pt x="320" y="358" on="1"/>
        <pt x="283" y="325" on="0"/>
        <pt x="271" y="287" on="0"/>
        <pt x="271" y="234" on="1"/>
      </contour>
      <contour>
        <pt x="462" y="50" on="1"/>
        <pt x="462" y="667" on="1"/>
        <pt x="50" y="667" on="1"/>
        <pt x="50" y="50" on="1"/>
      </contour>
      <contour>
        <pt x="512" y="718" on="1"/>
        <pt x="512" y="0" on="1"/>
        <pt x="0" y="0" on="1"/>
        <pt x="0" y="718" on="1"/>
      </contour>
    </TTGlyph>
    <TTGlyph name="A" xMin="-12" yMin="0" xMax="586" yMax="714">
      <contour>
        <pt x="106" y="235" on="1"/>
        <pt x="11" y="0" on="1"/>
        <pt x="-12" y="0" on="1"/>
        <pt x="278" y="714" on="1"/>
        <pt x="304" y="714" on="1"/>
        <pt x="586" y="0" on="1"/>
        <pt x="564" y="0" on="1"/>
        <pt x="470" y="235" on="1"/>
      </contour>
      <contour>
        <pt x="462" y="255" on="1"/>
        <pt x="292" y="694" on="1"/>
        <pt x="290" y="694" on="1"/>
        <pt x="114" y="255" on="1"/>
      </contour>
    </TTGlyph>
    <TTGlyph name="AE" xMin="-12" yMin="0" xMax="835" yMax="714">
      <contour>
        <pt x="376" y="696" on="1"/>
        <pt x="165" y="294" on="1"/>
        <pt x="423" y="294" on="1"/>
        <pt x="423" y="696" on="1"/>
      </contour>
      <contour>
        <pt x="155" y="274" on="1"/>
        <pt x="10" y="0" on="1"/>
        <pt x="-12" y="0" on="1"/>
        <pt x="366" y="714" on="1"/>
        <pt x="835" y="714" on="1"/>
        <pt x="835" y="694" on="1"/>
        <pt x="443" y="694" on="1"/>
        <pt x="443" y="382" on="1"/>
        <pt x="803" y="382" on="1"/>
        <pt x="803" y="362" on="1"/>
        <pt x="443" y="362" on="1"/>
        <pt x="443" y="20" on="1"/>
        <pt x="835" y="20" on="1"/>
        <pt x="835" y="0" on="1"/>
        <pt x="423" y="0" on="1"/>
        <pt x="423" y="274" on="1"/>
      </contour>
    </TTGlyph>
    <TTGlyph name="Aacute" xMin="-12" yMin="0" xMax="586" yMax="922">
      <component glyphName="A" x="0" y="0" flags="0x204"/>
      <component glyphName="acute" x="268" y="190" flags="0x4"/>
    </TTGlyph>
    <TTGlyph name="Abreve" xMin="-12" yMin="0" xMax="586" yMax="904">
      <component glyphName="A" x="0" y="0" flags="0x204"/>
      <component glyphName="breve" x="226" y="190" flags="0x4"/>
    </TTGlyph>
    <TTGlyph name="Acircumflex" xMin="-12" yMin="0" xMax="586" yMax="920">
      <component glyphName="A" x="0" y="0" flags="0x204"/>
      <component glyphName="circumflex" x="226" y="190" flags="0x4"/>
    </TTGlyph>
    <TTGlyph name="Adieresis" xMin="-12" yMin="0" xMax="586" yMax="885">
      <component glyphName="A" x="0" y="0" flags="0x204"/>
      <component glyphName="dieresis" x="226" y="190" flags="0x4"/>
    </TTGlyph>
    <TTGlyph name="Agrave" xMin="-12" yMin="0" xMax="586" yMax="922">
      <component glyphName="A" x="0" y="0" flags="0x204"/>
      <component glyphName="grave" x="188" y="190" flags="0x4"/>
    </TTGlyph>
    <TTGlyph name="Amacron" xMin="-12" yMin="0" xMax="586" yMax="850">
      <component glyphName="A" x="0" y="0" flags="0x204"/>
      <component glyphName="macron" x="226" y="190" flags="0x4"/>
    </TTGlyph>
    <TTGlyph name="Aogonek" xMin="-12" yMin="-188" xMax="632" yMax="714">
      <contour>
        <pt x="106" y="235" on="1"/>
        <pt x="11" y="0" on="1"/>
        <pt x="-12" y="0" on="1"/>
        <pt x="278" y="714" on="1"/>
        <pt x="304" y="714" on="1"/>
        <pt x="586" y="0" on="1"/>
        <pt x="533" y="-44" on="0"/>
        <pt x="489" y="-98" on="0"/>
        <pt x="489" y="-123" on="1"/>
        <pt x="489" y="-142" on="0"/>
        <pt x="516" y="-168" on="0"/>
        <pt x="540" y="-168" on="1"/>
        <pt x="568" y="-168" on="0"/>
        <pt x="605" y="-147" on="0"/>
        <pt x="615" y="-136" on="1"/>
        <pt x="632" y="-148" on="1"/>
        <pt x="611" y="-170" on="0"/>
        <pt x="568" y="-188" on="0"/>
        <pt x="540" y="-188" on="1"/>
        <pt x="503" y="-188" on="0"/>
        <pt x="465" y="-152" on="0"/>
        <pt x="465" y="-125" on="1"/>
        <pt x="465" y="-106" on="0"/>
        <pt x="483" y="-72" on="0"/>
        <pt x="510" y="-42" on="0"/>
        <pt x="545" y="-13" on="0"/>
        <pt x="564" y="0" on="1"/>
        <pt x="470" y="235" on="1"/>
      </contour>
      <contour>
        <pt x="462" y="255" on="1"/>
        <pt x="292" y="694" on="1"/>
        <pt x="290" y="694" on="1"/>
        <pt x="114" y="255" on="1"/>
      </contour>
    </TTGlyph>
    <TTGlyph name="Aring" xMin="-12" yMin="0" xMax="586" yMax="938">
      <component glyphName="ring" x="226" y="180" flags="0x4"/>
      <component glyphName="A" x="0" y="0" flags="0x4"/>
    </TTGlyph>
    <TTGlyph name="Atilde" xMin="-12" yMin="0" xMax="586" yMax="884">
      <component glyphName="A" x="0" y="0" flags="0x204"/>
      <component glyphName="tilde" x="226" y="190" flags="0x4"/>
    </TTGlyph>
    <TTGlyph name="B" xMin="47" yMin="0" xMax="577" yMax="714">
      <contour>
        <pt x="67" y="382" on="1"/>
        <pt x="354" y="382" on="1"/>
        <pt x="390" y="382" on="0"/>
        <pt x="455" y="401" on="0"/>
        <pt x="505" y="440" on="0"/>
        <pt x="535" y="498" on="0"/>
        <pt x="535" y="536" on="1"/>
        <pt x="535" y="576" on="0"/>
        <pt x="507" y="636" on="0"/>
        <pt x="458" y="675" on="0"/>
        <pt x="392" y="694" on="0"/>
        <pt x="354" y="694" on="1"/>
        <pt x="67" y="694" on="1"/>
      </contour>
      <contour>
        <pt x="47" y="714" on="1"/>
        <pt x="354" y="714" on="1"/>
        <pt x="396" y="714" on="0"/>
        <pt x="469" y="692" on="0"/>
        <pt x="524" y="647" on="0"/>
        <pt x="555" y="581" on="0"/>
        <pt x="555" y="536" on="1"/>
        <pt x="555" y="504" on="0"/>
        <pt x="532" y="446" on="0"/>
        <pt x="492" y="403" on="0"/>
        <pt x="437" y="375" on="0"/>
        <pt x="404" y="373" on="1"/>
        <pt x="404" y="371" on="1"/>
        <pt x="439" y="370" on="0"/>
        <pt x="502" y="345" on="0"/>
        <pt x="549" y="300" on="0"/>
        <pt x="577" y="235" on="0"/>
        <pt x="577" y="194" on="1"/>
        <pt x="577" y="146" on="0"/>
        <pt x="542" y="73" on="0"/>
        <pt x="480" y="25" on="0"/>
        <pt x="393" y="0" on="0"/>
        <pt x="342" y="0" on="1"/>
        <pt x="47" y="0" on="1"/>
      </contour>
      <contour>
        <pt x="67" y="20" on="1"/>
        <pt x="351" y="20" on="1"/>
        <pt x="394" y="20" on="0"/>
        <pt x="470" y="41" on="0"/>
        <pt x="525" y="84" on="0"/>
        <pt x="557" y="149" on="0"/>
        <pt x="557" y="193" on="1"/>
        <pt x="557" y="240" on="0"/>
        <pt x="522" y="304" on="0"/>
        <pt x="465" y="344" on="0"/>
        <pt x="392" y="362" on="0"/>
        <pt x="354" y="362" on="1"/>
        <pt x="67" y="362" on="1"/>
      </contour>
    </TTGlyph>
    <TTGlyph name="C" xMin="25" yMin="-17" xMax="662" yMax="731">
      <contour>
        <pt x="662" y="280" on="1"/>
        <pt x="653" y="215" on="0"/>
        <pt x="603" y="106" on="0"/>
        <pt x="524" y="27" on="0"/>
        <pt x="415" y="-17" on="0"/>
        <pt x="348" y="-17" on="1"/>
        <pt x="277" y="-17" on="0"/>
        <pt x="158" y="38" on="0"/>
        <pt x="72" y="136" on="0"/>
        <pt x="25" y="271" on="0"/>
        <pt x="25" y="351" on="1"/>
        <pt x="25" y="416" on="0"/>
        <pt x="62" y="551" on="0"/>
        <pt x="142" y="661" on="0"/>
        <pt x="270" y="731" on="0"/>
        <pt x="361" y="731" on="1"/>
        <pt x="432" y="731" on="0"/>
        <pt x="538" y="684" on="0"/>
        <pt x="609" y="613" on="0"/>
        <pt x="645" y="533" on="0"/>
        <pt x="646" y="500" on="1"/>
        <pt x="626" y="500" on="1"/>
        <pt x="623" y="539" on="0"/>
        <pt x="583" y="614" on="0"/>
        <pt x="514" y="674" on="0"/>
        <pt x="419" y="711" on="0"/>
        <pt x="361" y="711" on="1"/>
        <pt x="302" y="711" on="0"/>
        <pt x="210" y="678" on="0"/>
        <pt x="140" y="623" on="0"/>
        <pt x="90" y="550" on="0"/>
        <pt x="59" y="470" on="0"/>
        <pt x="45" y="388" on="0"/>
        <pt x="45" y="351" on="1"/>
        <pt x="45" y="283" on="0"/>
        <pt x="85" y="157" on="0"/>
        <pt x="163" y="61" on="0"/>
        <pt x="276" y="3" on="0"/>
        <pt x="348" y="3" on="1"/>
        <pt x="412" y="3" on="0"/>
        <pt x="514" y="45" on="0"/>
        <pt x="588" y="119" on="0"/>
        <pt x="634" y="221" on="0"/>
        <pt x="642" y="280" on="1"/>
      </contour>
    </TTGlyph>
    <TTGlyph name="Cacute" xMin="25" yMin="-17" xMax="662" yMax="922">
      <component glyphName="C" x="0" y="0" flags="0x204"/>
      <component glyphName="acute" x="334" y="190" flags="0x4"/>
    </TTGlyph>
    <TTGlyph name="Ccaron" xMin="25" yMin="-17" xMax="662" yMax="920">
      <component glyphName="C" x="0" y="0" flags="0x204"/>
      <component glyphName="caron" x="290" y="190" flags="0x4"/>
    </TTGlyph>
    <TTGlyph name="Ccedilla" xMin="25" yMin="-188" xMax="662" yMax="731">
      <contour>
        <pt x="264" y="-151" on="1"/>
        <pt x="281" y="-159" on="0"/>
        <pt x="315" y="-168" on="0"/>
        <pt x="335" y="-168" on="1"/>
        <pt x="349" y="-168" on="0"/>
        <pt x="377" y="-160" on="0"/>
        <pt x="396" y="-144" on="0"/>
        <pt x="405" y="-125" on="0"/>
        <pt x="405" y="-113" on="1"/>
        <pt x="405" y="-100" on="0"/>
        <pt x="395" y="-84" on="0"/>
        <pt x="380" y="-74" on="0"/>
        <pt x="359" y="-70" on="0"/>
        <pt x="352" y="-70" on="1"/>
        <pt x="320" y="-70" on="0"/>
        <pt x="298" y="-83" on="1"/>
        <pt x="283" y="-73" on="1"/>
        <pt x="331" y="-17" on="1"/>
        <pt x="271" y="-14" on="0"/>
        <pt x="217" y="10" on="1"/>
        <pt x="158" y="38" on="0"/>
        <pt x="72" y="136" on="0"/>
        <pt x="25" y="271" on="0"/>
        <pt x="25" y="351" on="1"/>
        <pt x="25" y="416" on="0"/>
        <pt x="62" y="551" on="0"/>
        <pt x="142" y="661" on="0"/>
        <pt x="270" y="731" on="0"/>
        <pt x="361" y="731" on="1"/>
        <pt x="432" y="731" on="0"/>
        <pt x="538" y="684" on="0"/>
        <pt x="609" y="613" on="0"/>
        <pt x="645" y="533" on="0"/>
        <pt x="646" y="500" on="1"/>
        <pt x="626" y="500" on="1"/>
        <pt x="623" y="539" on="0"/>
        <pt x="583" y="614" on="0"/>
        <pt x="514" y="674" on="0"/>
        <pt x="419" y="711" on="0"/>
        <pt x="361" y="711" on="1"/>
        <pt x="302" y="711" on="0"/>
        <pt x="210" y="678" on="0"/>
        <pt x="140" y="623" on="0"/>
        <pt x="90" y="550" on="0"/>
        <pt x="59" y="470" on="0"/>
        <pt x="45" y="388" on="0"/>
        <pt x="45" y="351" on="1"/>
        <pt x="45" y="283" on="0"/>
        <pt x="85" y="157" on="0"/>
        <pt x="163" y="61" on="0"/>
        <pt x="276" y="3" on="0"/>
        <pt x="348" y="3" on="1"/>
        <pt x="412" y="3" on="0"/>
        <pt x="514" y="45" on="0"/>
        <pt x="588" y="119" on="0"/>
        <pt x="634" y="221" on="0"/>
        <pt x="642" y="280" on="1"/>
        <pt x="662" y="280" on="1"/>
        <pt x="653" y="215" on="0"/>
        <pt x="603" y="106" on="0"/>
        <pt x="524" y="27" on="0"/>
        <pt x="469" y="5" on="1"/>
        <pt x="416" y="-15" on="0"/>
        <pt x="351" y="-17" on="1"/>
        <pt x="319" y="-56" on="1"/>
        <pt x="326" y="-53" on="0"/>
        <pt x="341" y="-50" on="0"/>
        <pt x="352" y="-50" on="1"/>
        <pt x="385" y="-50" on="0"/>
        <pt x="427" y="-79" on="0"/>
        <pt x="428" y="-110" on="1"/>
        <pt x="428" y="-125" on="0"/>
        <pt x="414" y="-157" on="0"/>
        <pt x="389" y="-177" on="0"/>
        <pt x="354" y="-188" on="0"/>
        <pt x="335" y="-188" on="1"/>
        <pt x="311" y="-188" on="0"/>
        <pt x="269" y="-177" on="0"/>
        <pt x="255" y="-170" on="1"/>
      </contour>
    </TTGlyph>
    <TTGlyph name="Ccircumflex" xMin="25" yMin="-17" xMax="662" yMax="920">
      <component glyphName="C" x="0" y="0" flags="0x204"/>
      <component glyphName="circumflex" x="290" y="190" flags="0x4"/>
    </TTGlyph>
    <TTGlyph name="Cdotaccent" xMin="25" yMin="-17" xMax="662" yMax="885">
      <component glyphName="C" x="0" y="0" flags="0x204"/>
      <component glyphName="dotaccent" x="289" y="190" flags="0x4"/>
    </TTGlyph>
    <TTGlyph name="D" xMin="54" yMin="0" xMax="608" yMax="714">
      <contour>
        <pt x="74" y="20" on="1"/>
        <pt x="278" y="20" on="1"/>
        <pt x="341" y="20" on="0"/>
        <pt x="454" y="61" on="0"/>
        <pt x="539" y="144" on="0"/>
        <pt x="588" y="271" on="0"/>
        <pt x="588" y="357" on="1"/>
        <pt x="588" y="457" on="0"/>
        <pt x="538" y="587" on="0"/>
        <pt x="456" y="664" on="0"/>
        <pt x="353" y="694" on="0"/>
        <pt x="299" y="694" on="1"/>
        <pt x="74" y="694" on="1"/>
      </contour>
      <contour>
        <pt x="54" y="714" on="1"/>
        <pt x="304" y="714" on="1"/>
        <pt x="357" y="714" on="0"/>
        <pt x="466" y="681" on="0"/>
        <pt x="553" y="600" on="0"/>
        <pt x="608" y="462" on="0"/>
        <pt x="608" y="357" on="1"/>
        <pt x="608" y="261" on="0"/>
        <pt x="552" y="125" on="0"/>
        <pt x="458" y="40" on="0"/>
        <pt x="337" y="0" on="0"/>
        <pt x="273" y="0" on="1"/>
        <pt x="54" y="0" on="1"/>
      </contour>
    </TTGlyph>
    <TTGlyph name="Dcaron" xMin="54" yMin="0" xMax="608" yMax="920">
      <component glyphName="D" x="0" y="0" flags="0x204"/>
      <component glyphName="caron" x="200" y="190" flags="0x4"/>
    </TTGlyph>
    <TTGlyph name="Dcroat" xMin="-10" yMin="0" xMax="608" yMax="714">
      <contour>
        <pt x="74" y="362" on="1"/>
        <pt x="74" y="20" on="1"/>
        <pt x="278" y="20" on="1"/>
        <pt x="341" y="20" on="0"/>
        <pt x="454" y="61" on="0"/>
        <pt x="539" y="144" on="0"/>
        <pt x="588" y="271" on="0"/>
        <pt x="588" y="357" on="1"/>
        <pt x="588" y="457" on="0"/>
        <pt x="538" y="587" on="0"/>
        <pt x="456" y="664" on="0"/>
        <pt x="353" y="694" on="0"/>
        <pt x="299" y="694" on="1"/>
        <pt x="74" y="694" on="1"/>
        <pt x="74" y="382" on="1"/>
        <pt x="371" y="382" on="1"/>
        <pt x="371" y="362" on="1"/>
      </contour>
      <contour>
        <pt x="-10" y="362" on="1"/>
        <pt x="-10" y="382" on="1"/>
        <pt x="54" y="382" on="1"/>
        <pt x="54" y="714" on="1"/>
        <pt x="304" y="714" on="1"/>
        <pt x="357" y="714" on="0"/>
        <pt x="466" y="681" on="0"/>
        <pt x="553" y="600" on="0"/>
        <pt x="608" y="462" on="0"/>
        <pt x="608" y="357" on="1"/>
        <pt x="608" y="261" on="0"/>
        <pt x="552" y="125" on="0"/>
        <pt x="458" y="40" on="0"/>
        <pt x="337" y="0" on="0"/>
        <pt x="273" y="0" on="1"/>
        <pt x="54" y="0" on="1"/>
        <pt x="54" y="362" on="1"/>
      </contour>
    </TTGlyph>
    <TTGlyph name="Delta" xMin="11" yMin="0" xMax="600" yMax="712">
      <contour>
        <pt x="303" y="672" on="1"/>
        <pt x="37" y="18" on="1"/>
        <pt x="573" y="18" on="1"/>
      </contour>
      <contour>
        <pt x="11" y="0" on="1"/>
        <pt x="300" y="712" on="1"/>
        <pt x="307" y="712" on="1"/>
        <pt x="600" y="0" on="1"/>
      </contour>
    </TTGlyph>
    <TTGlyph name="E" xMin="54" yMin="0" xMax="532" yMax="714">
      <contour>
        <pt x="74" y="20" on="1"/>
        <pt x="532" y="20" on="1"/>
        <pt x="532" y="0" on="1"/>
        <pt x="54" y="0" on="1"/>
        <pt x="54" y="714" on="1"/>
        <pt x="528" y="714" on="1"/>
        <pt x="528" y="694" on="1"/>
        <pt x="74" y="694" on="1"/>
        <pt x="74" y="382" on="1"/>
        <pt x="501" y="382" on="1"/>
        <pt x="501" y="362" on="1"/>
        <pt x="74" y="362" on="1"/>
      </contour>
    </TTGlyph>
    <TTGlyph name="Eacute" xMin="54" yMin="0" xMax="532" yMax="922">
      <component glyphName="E" x="0" y="0" flags="0x204"/>
      <component glyphName="acute" x="269" y="190" flags="0x4"/>
    </TTGlyph>
    <TTGlyph name="Ebreve" xMin="54" yMin="0" xMax="532" yMax="904">
      <component glyphName="E" x="0" y="0" flags="0x204"/>
      <component glyphName="breve" x="220" y="190" flags="0x4"/>
    </TTGlyph>
    <TTGlyph name="Ecaron" xMin="54" yMin="0" xMax="532" yMax="920">
      <component glyphName="E" x="0" y="0" flags="0x204"/>
      <component glyphName="caron" x="224" y="190" flags="0x4"/>
    </TTGlyph>
    <TTGlyph name="Ecircumflex" xMin="54" yMin="0" xMax="532" yMax="920">
      <component glyphName="E" x="0" y="0" flags="0x204"/>
      <component glyphName="circumflex" x="224" y="190" flags="0x4"/>
    </TTGlyph>
    <TTGlyph name="Edieresis" xMin="54" yMin="0" xMax="532" yMax="885">
      <component glyphName="dieresis" x="226" y="190" flags="0x4"/>
      <component glyphName="E" x="0" y="0" flags="0x4"/>
    </TTGlyph>
    <TTGlyph name="Edotaccent" xMin="54" yMin="0" xMax="532" yMax="885">
      <component glyphName="E" x="0" y="0" flags="0x204"/>
      <component glyphName="dotaccent" x="221" y="190" flags="0x4"/>
    </TTGlyph>
    <TTGlyph name="Egrave" xMin="54" yMin="0" xMax="532" yMax="922">
      <component glyphName="E" x="0" y="0" flags="0x204"/>
      <component glyphName="grave" x="200" y="190" flags="0x4"/>
    </TTGlyph>
    <TTGlyph name="Emacron" xMin="54" yMin="0" xMax="532" yMax="850">
      <component glyphName="E" x="0" y="0" flags="0x204"/>
      <component glyphName="macron" x="222" y="190" flags="0x4"/>
    </TTGlyph>
    <TTGlyph name="Eogonek" xMin="54" yMin="-188" xMax="532" yMax="714">
      <contour>
        <pt x="490" y="0" on="1"/>
        <pt x="433" y="-44" on="0"/>
        <pt x="389" y="-98" on="0"/>
        <pt x="389" y="-123" on="1"/>
        <pt x="389" y="-142" on="0"/>
        <pt x="416" y="-168" on="0"/>
        <pt x="440" y="-168" on="1"/>
        <pt x="468" y="-168" on="0"/>
        <pt x="505" y="-147" on="0"/>
        <pt x="515" y="-136" on="1"/>
        <pt x="532" y="-148" on="1"/>
        <pt x="511" y="-170" on="0"/>
        <pt x="468" y="-188" on="0"/>
        <pt x="440" y="-188" on="1"/>
        <pt x="403" y="-188" on="0"/>
        <pt x="365" y="-152" on="0"/>
        <pt x="365" y="-125" on="1"/>
        <pt x="365" y="-106" on="0"/>
        <pt x="383" y="-71" on="0"/>
        <pt x="410" y="-41" on="0"/>
        <pt x="444" y="-12" on="0"/>
        <pt x="461" y="0" on="1"/>
        <pt x="54" y="0" on="1"/>
        <pt x="54" y="714" on="1"/>
        <pt x="528" y="714" on="1"/>
        <pt x="528" y="694" on="1"/>
        <pt x="74" y="694" on="1"/>
        <pt x="74" y="382" on="1"/>
        <pt x="501" y="382" on="1"/>
        <pt x="501" y="362" on="1"/>
        <pt x="74" y="362" on="1"/>
        <pt x="74" y="20" on="1"/>
        <pt x="532" y="20" on="1"/>
        <pt x="532" y="0" on="1"/>
      </contour>
    </TTGlyph>
    <TTGlyph name="Eth" xMin="-10" yMin="0" xMax="608" yMax="714">
      <contour>
        <pt x="74" y="362" on="1"/>
        <pt x="74" y="20" on="1"/>
        <pt x="278" y="20" on="1"/>
        <pt x="341" y="20" on="0"/>
        <pt x="454" y="61" on="0"/>
        <pt x="539" y="144" on="0"/>
        <pt x="588" y="271" on="0"/>
        <pt x="588" y="357" on="1"/>
        <pt x="588" y="457" on="0"/>
        <pt x="538" y="587" on="0"/>
        <pt x="456" y="664" on="0"/>
        <pt x="353" y="694" on="0"/>
        <pt x="299" y="694" on="1"/>
        <pt x="74" y="694" on="1"/>
        <pt x="74" y="382" on="1"/>
        <pt x="371" y="382" on="1"/>
        <pt x="371" y="362" on="1"/>
      </contour>
      <contour>
        <pt x="-10" y="362" on="1"/>
        <pt x="-10" y="382" on="1"/>
        <pt x="54" y="382" on="1"/>
        <pt x="54" y="714" on="1"/>
        <pt x="304" y="714" on="1"/>
        <pt x="357" y="714" on="0"/>
        <pt x="466" y="681" on="0"/>
        <pt x="553" y="600" on="0"/>
        <pt x="608" y="462" on="0"/>
        <pt x="608" y="357" on="1"/>
        <pt x="608" y="261" on="0"/>
        <pt x="552" y="125" on="0"/>
        <pt x="458" y="40" on="0"/>
        <pt x="337" y="0" on="0"/>
        <pt x="273" y="0" on="1"/>
        <pt x="54" y="0" on="1"/>
        <pt x="54" y="362" on="1"/>
      </contour>
    </TTGlyph>
    <TTGlyph name="Euro" xMin="0" yMin="-15" xMax="567" yMax="695">
      <contour>
        <pt x="567" y="73" on="1"/>
        <pt x="480" y="-15" on="0"/>
        <pt x="357" y="-15" on="1"/>
        <pt x="294" y="-15" on="0"/>
        <pt x="193" y="30" on="0"/>
        <pt x="118" y="107" on="0"/>
        <pt x="70" y="210" on="0"/>
        <pt x="61" y="269" on="1"/>
        <pt x="0" y="269" on="1"/>
        <pt x="7" y="286" on="1"/>
        <pt x="60" y="286" on="1"/>
        <pt x="59" y="291" on="0"/>
        <pt x="58" y="302" on="0"/>
        <pt x="58" y="307" on="1"/>
        <pt x="58" y="328" on="1"/>
        <pt x="58" y="342" on="0"/>
        <pt x="59" y="372" on="0"/>
        <pt x="60" y="386" on="1"/>
        <pt x="0" y="386" on="1"/>
        <pt x="7" y="403" on="1"/>
        <pt x="62" y="403" on="1"/>
        <pt x="70" y="464" on="0"/>
        <pt x="117" y="571" on="0"/>
        <pt x="194" y="650" on="0"/>
        <pt x="299" y="695" on="0"/>
        <pt x="364" y="695" on="1"/>
        <pt x="418" y="695" on="0"/>
        <pt x="508" y="662" on="0"/>
        <pt x="550" y="629" on="1"/>
        <pt x="541" y="613" on="1"/>
        <pt x="499" y="645" on="0"/>
        <pt x="417" y="677" on="0"/>
        <pt x="363" y="677" on="1"/>
        <pt x="303" y="677" on="0"/>
        <pt x="205" y="634" on="0"/>
        <pt x="133" y="560" on="0"/>
        <pt x="89" y="460" on="0"/>
        <pt x="82" y="403" on="1"/>
        <pt x="489" y="403" on="1"/>
        <pt x="480" y="386" on="1"/>
        <pt x="80" y="386" on="1"/>
        <pt x="79" y="374" on="0"/>
        <pt x="78" y="350" on="0"/>
        <pt x="78" y="338" on="1"/>
        <pt x="78" y="311" on="0"/>
        <pt x="81" y="286" on="1"/>
        <pt x="459" y="286" on="1"/>
        <pt x="450" y="269" on="1"/>
        <pt x="83" y="269" on="1"/>
        <pt x="92" y="215" on="0"/>
        <pt x="137" y="118" on="0"/>
        <pt x="207" y="45" on="0"/>
        <pt x="301" y="3" on="0"/>
        <pt x="360" y="3" on="1"/>
        <pt x="485" y="3" on="0"/>
        <pt x="567" y="100" on="1"/>
        <pt x="567" y="73" on="1"/>
      </contour>
    </TTGlyph>
    <TTGlyph name="F" xMin="54" yMin="0" xMax="494" yMax="714">
      <contour>
        <pt x="74" y="382" on="1"/>
        <pt x="454" y="382" on="1"/>
        <pt x="454" y="362" on="1"/>
        <pt x="74" y="362" on="1"/>
        <pt x="74" y="0" on="1"/>
        <pt x="54" y="0" on="1"/>
        <pt x="54" y="714" on="1"/>
        <pt x="494" y="714" on="1"/>
        <pt x="494" y="694" on="1"/>
        <pt x="74" y="694" on="1"/>
      </contour>
    </TTGlyph>
    <TTGlyph name="G" xMin="32" yMin="-17" xMax="674" yMax="731">
      <contour>
        <pt x="377" y="314" on="1"/>
        <pt x="377" y="334" on="1"/>
        <pt x="674" y="334" on="1"/>
        <pt x="674" y="-1" on="1"/>
        <pt x="654" y="-1" on="1"/>
        <pt x="654" y="177" on="1"/>
        <pt x="652" y="177" on="1"/>
        <pt x="638" y="132" on="0"/>
        <pt x="585" y="60" on="0"/>
        <pt x="511" y="10" on="0"/>
        <pt x="419" y="-17" on="0"/>
        <pt x="367" y="-17" on="1"/>
        <pt x="284" y="-17" on="0"/>
        <pt x="159" y="42" on="0"/>
        <pt x="75" y="144" on="0"/>
        <pt x="32" y="280" on="0"/>
        <pt x="32" y="357" on="1"/>
        <pt x="32" y="435" on="0"/>
        <pt x="78" y="572" on="0"/>
        <pt x="164" y="673" on="0"/>
        <pt x="288" y="731" on="0"/>
        <pt x="367" y="731" on="1"/>
        <pt x="427" y="731" on="0"/>
        <pt x="528" y="697" on="0"/>
        <pt x="605" y="634" on="0"/>
        <pt x="654" y="546" on="0"/>
        <pt x="663" y="491" on="1"/>
        <pt x="643" y="491" on="1"/>
        <pt x="634" y="541" on="0"/>
        <pt x="587" y="622" on="0"/>
        <pt x="516" y="680" on="0"/>
        <pt x="422" y="711" on="0"/>
        <pt x="367" y="711" on="1"/>
        <pt x="292" y="711" on="0"/>
        <pt x="175" y="655" on="0"/>
        <pt x="94" y="559" on="0"/>
        <pt x="52" y="430" on="0"/>
        <pt x="52" y="357" on="1"/>
        <pt x="52" y="284" on="0"/>
        <pt x="92" y="155" on="0"/>
        <pt x="172" y="59" on="0"/>
        <pt x="291" y="3" on="0"/>
        <pt x="370" y="3" on="1"/>
        <pt x="429" y="3" on="0"/>
        <pt x="533" y="44" on="0"/>
        <pt x="610" y="117" on="0"/>
        <pt x="654" y="218" on="0"/>
        <pt x="654" y="277" on="1"/>
        <pt x="654" y="314" on="1"/>
      </contour>
    </TTGlyph>
    <TTGlyph name="Gbreve" xMin="32" yMin="-17" xMax="674" yMax="904">
      <component glyphName="G" x="0" y="0" flags="0x204"/>
      <component glyphName="breve" x="300" y="190" flags="0x4"/>
    </TTGlyph>
    <TTGlyph name="Gcircumflex" xMin="32" yMin="-17" xMax="674" yMax="920">
      <component glyphName="G" x="0" y="0" flags="0x204"/>
      <component glyphName="circumflex" x="305" y="190" flags="0x4"/>
    </TTGlyph>
    <TTGlyph name="Gcommaaccent" xMin="32" yMin="-189" xMax="674" yMax="731">
      <component glyphName="G" x="0" y="0" flags="0x204"/>
      <component glyphName="commaaccent" x="228" y="0" flags="0x4"/>
    </TTGlyph>
    <TTGlyph name="Gdotaccent" xMin="32" yMin="-17" xMax="674" yMax="885">
      <component glyphName="G" x="0" y="0" flags="0x204"/>
      <component glyphName="dotaccent" x="305" y="190" flags="0x4"/>
    </TTGlyph>
    <TTGlyph name="H" xMin="54" yMin="0" xMax="594" yMax="714">
      <contour>
        <pt x="74" y="362" on="1"/>
        <pt x="74" y="0" on="1"/>
        <pt x="54" y="0" on="1"/>
        <pt x="54" y="714" on="1"/>
        <pt x="74" y="714" on="1"/>
        <pt x="74" y="382" on="1"/>
        <pt x="574" y="382" on="1"/>
        <pt x="574" y="714" on="1"/>
        <pt x="594" y="714" on="1"/>
        <pt x="594" y="0" on="1"/>
        <pt x="574" y="0" on="1"/>
        <pt x="574" y="362" on="1"/>
      </contour>
    </TTGlyph>
    <TTGlyph name="Hbar" xMin="54" yMin="0" xMax="594" yMax="714">
      <contour>
        <pt x="74" y="362" on="1"/>
        <pt x="74" y="0" on="1"/>
        <pt x="54" y="0" on="1"/>
        <pt x="54" y="714" on="1"/>
        <pt x="74" y="714" on="1"/>
        <pt x="74" y="514" on="1"/>
        <pt x="574" y="514" on="1"/>
        <pt x="574" y="714" on="1"/>
        <pt x="594" y="714" on="1"/>
        <pt x="594" y="0" on="1"/>
        <pt x="574" y="0" on="1"/>
        <pt x="574" y="362" on="1"/>
      </contour>
      <contour>
        <pt x="574" y="382" on="1"/>
        <pt x="574" y="494" on="1"/>
        <pt x="74" y="494" on="1"/>
        <pt x="74" y="382" on="1"/>
      </contour>
    </TTGlyph>
    <TTGlyph name="Hcircumflex" xMin="54" yMin="0" xMax="594" yMax="920">
      <component glyphName="H" x="0" y="0" flags="0x204"/>
      <component glyphName="circumflex" x="260" y="190" flags="0x4"/>
    </TTGlyph>
    <TTGlyph name="I" xMin="54" yMin="0" xMax="74" yMax="714">
      <contour>
        <pt x="54" y="714" on="1"/>
        <pt x="74" y="714" on="1"/>
        <pt x="74" y="0" on="1"/>
        <pt x="54" y="0" on="1"/>
      </contour>
    </TTGlyph>
    <TTGlyph name="IJ" xMin="54" yMin="-17" xMax="558" yMax="714">
      <component glyphName="I" x="0" y="0" flags="0x4"/>
      <component glyphName="J" x="154" y="0" flags="0x4"/>
    </TTGlyph>
    <TTGlyph name="Iacute" xMin="54" yMin="0" xMax="215" yMax="922">
      <component glyphName="I" x="0" y="0" flags="0x204"/>
      <component glyphName="acute" x="44" y="190" flags="0x4"/>
    </TTGlyph>
    <TTGlyph name="Icircumflex" xMin="-56" yMin="0" xMax="186" yMax="920">
      <component glyphName="I" x="0" y="0" flags="0x204"/>
      <component glyphName="circumflex" x="0" y="190" flags="0x4"/>
    </TTGlyph>
    <TTGlyph name="Idieresis" xMin="-23" yMin="0" xMax="153" yMax="885">
      <component glyphName="I" x="0" y="0" flags="0x204"/>
      <component glyphName="dieresis" x="0" y="190" flags="0x4"/>
    </TTGlyph>
    <TTGlyph name="Idotaccent" xMin="54" yMin="0" xMax="75" yMax="901">
      <component glyphName="I" x="0" y="0" flags="0x204"/>
      <component glyphName="dotaccent" x="0" y="206" flags="0x4"/>
    </TTGlyph>
    <TTGlyph name="Igrave" xMin="-78" yMin="0" xMax="76" yMax="922">
      <component glyphName="I" x="0" y="0" flags="0x204"/>
      <component glyphName="grave" x="-40" y="190" flags="0x4"/>
    </TTGlyph>
    <TTGlyph name="Imacron" xMin="-51" yMin="0" xMax="181" yMax="850">
      <component glyphName="I" x="0" y="0" flags="0x204"/>
      <component glyphName="macron" x="0" y="190" flags="0x4"/>
    </TTGlyph>
    <TTGlyph name="Iogonek" xMin="-26" yMin="-188" xMax="125" yMax="714">
      <contour>
        <pt x="74" y="0" on="1"/>
        <pt x="32" y="-42" on="0"/>
        <pt x="-4" y="-96" on="0"/>
        <pt x="-4" y="-123" on="1"/>
        <pt x="-4" y="-142" on="0"/>
        <pt x="20" y="-168" on="0"/>
        <pt x="42" y="-168" on="1"/>
        <pt x="67" y="-168" on="0"/>
        <pt x="101" y="-147" on="0"/>
        <pt x="110" y="-136" on="1"/>
        <pt x="125" y="-148" on="1"/>
        <pt x="106" y="-170" on="0"/>
        <pt x="67" y="-188" on="0"/>
        <pt x="42" y="-188" on="1"/>
        <pt x="9" y="-188" on="0"/>
        <pt x="-26" y="-152" on="0"/>
        <pt x="-26" y="-125" on="1"/>
        <pt x="-26" y="-106" on="0"/>
        <pt x="-10" y="-69" on="0"/>
        <pt x="15" y="-38" on="0"/>
        <pt x="39" y="-14" on="0"/>
        <pt x="54" y="0" on="1"/>
        <pt x="54" y="714" on="1"/>
        <pt x="74" y="714" on="1"/>
      </contour>
    </TTGlyph>
    <TTGlyph name="Itilde" xMin="-67" yMin="0" xMax="197" yMax="884">
      <component glyphName="I" x="0" y="0" flags="0x204"/>
      <component glyphName="tilde" x="0" y="190" flags="0x4"/>
    </TTGlyph>
    <TTGlyph name="J" xMin="18" yMin="-17" xMax="404" yMax="714">
      <contour>
        <pt x="384" y="714" on="1"/>
        <pt x="404" y="714" on="1"/>
        <pt x="404" y="186" on="1"/>
        <pt x="404" y="141" on="0"/>
        <pt x="383" y="67" on="0"/>
        <pt x="337" y="13" on="0"/>
        <pt x="262" y="-17" on="0"/>
        <pt x="208" y="-17" on="1"/>
        <pt x="157" y="-17" on="0"/>
        <pt x="85" y="13" on="0"/>
        <pt x="39" y="65" on="0"/>
        <pt x="18" y="136" on="0"/>
        <pt x="18" y="178" on="1"/>
        <pt x="18" y="221" on="1"/>
        <pt x="38" y="221" on="1"/>
        <pt x="38" y="178" on="1"/>
        <pt x="38" y="90" on="0"/>
        <pt x="125" y="3" on="0"/>
        <pt x="208" y="3" on="1"/>
        <pt x="251" y="3" on="0"/>
        <pt x="316" y="23" on="0"/>
        <pt x="361" y="69" on="0"/>
        <pt x="384" y="145" on="0"/>
        <pt x="384" y="201" on="1"/>
      </contour>
    </TTGlyph>
    <TTGlyph name="Jcircumflex" xMin="18" yMin="-17" xMax="510" yMax="920">
      <component glyphName="J" x="0" y="0" flags="0x204"/>
      <component glyphName="circumflex" x="324" y="190" flags="0x4"/>
    </TTGlyph>
    <TTGlyph name="K" xMin="54" yMin="0" xMax="619" yMax="714">
      <contour>
        <pt x="74" y="253" on="1"/>
        <pt x="74" y="0" on="1"/>
        <pt x="54" y="0" on="1"/>
        <pt x="54" y="714" on="1"/>
        <pt x="74" y="714" on="1"/>
        <pt x="74" y="280" on="1"/>
        <pt x="569" y="714" on="1"/>
        <pt x="599" y="714" on="1"/>
        <pt x="254" y="410" on="1"/>
        <pt x="619" y="0" on="1"/>
        <pt x="592" y="0" on="1"/>
        <pt x="238" y="398" on="1"/>
      </contour>
    </TTGlyph>
    <TTGlyph name="Kcommaaccent" xMin="54" yMin="-189" xMax="619" yMax="714">
      <component glyphName="K" x="0" y="0" flags="0x204"/>
      <component glyphName="commaaccent" x="167" y="0" flags="0x4"/>
    </TTGlyph>
    <TTGlyph name="L" xMin="54" yMin="0" xMax="491" yMax="714">
      <contour>
        <pt x="491" y="20" on="1"/>
        <pt x="491" y="0" on="1"/>
        <pt x="54" y="0" on="1"/>
        <pt x="54" y="714" on="1"/>
        <pt x="74" y="714" on="1"/>
        <pt x="74" y="20" on="1"/>
      </contour>
    </TTGlyph>
    <TTGlyph name="Lacute" xMin="54" yMin="0" xMax="491" yMax="922">
      <component glyphName="L" x="0" y="0" flags="0x204"/>
      <component glyphName="acute" x="45" y="190" flags="0x4"/>
    </TTGlyph>
    <TTGlyph name="Lcaron" xMin="54" yMin="0" xMax="491" yMax="714">
      <component glyphName="L" x="0" y="0" flags="0x204"/>
      <component glyphName="carontwo" x="128" y="0" flags="0x4"/>
    </TTGlyph>
    <TTGlyph name="Lcommaaccent" xMin="54" yMin="-189" xMax="491" yMax="714">
      <component glyphName="L" x="0" y="0" flags="0x204"/>
      <component glyphName="commaaccent" x="125" y="0" flags="0x4"/>
    </TTGlyph>
    <TTGlyph name="Ldot" xMin="54" yMin="0" xMax="491" yMax="714">
      <component glyphName="L" x="0" y="0" flags="0x204"/>
      <component glyphName="dotaccent" x="209" y="-180" flags="0x4"/>
    </TTGlyph>
    <TTGlyph name="Lslash" xMin="-20" yMin="0" xMax="491" yMax="714">
      <contour>
        <pt x="54" y="0" on="1"/>
        <pt x="54" y="269" on="1"/>
        <pt x="-20" y="217" on="1"/>
        <pt x="-20" y="241" on="1"/>
        <pt x="54" y="293" on="1"/>
        <pt x="54" y="714" on="1"/>
        <pt x="74" y="714" on="1"/>
        <pt x="74" y="307" on="1"/>
        <pt x="322" y="481" on="1"/>
        <pt x="322" y="457" on="1"/>
        <pt x="74" y="283" on="1"/>
        <pt x="74" y="20" on="1"/>
        <pt x="491" y="20" on="1"/>
        <pt x="491" y="0" on="1"/>
      </contour>
    </TTGlyph>
    <TTGlyph name="M" xMin="54" yMin="0" xMax="726" yMax="714">
      <contour>
        <pt x="693" y="714" on="1"/>
        <pt x="726" y="714" on="1"/>
        <pt x="726" y="0" on="1"/>
        <pt x="706" y="0" on="1"/>
        <pt x="706" y="689" on="1"/>
        <pt x="704" y="689" on="1"/>
        <pt x="401" y="0" on="1"/>
        <pt x="379" y="0" on="1"/>
        <pt x="76" y="689" on="1"/>
        <pt x="74" y="689" on="1"/>
        <pt x="74" y="0" on="1"/>
        <pt x="54" y="0" on="1"/>
        <pt x="54" y="714" on="1"/>
        <pt x="87" y="714" on="1"/>
        <pt x="389" y="26" on="1"/>
        <pt x="391" y="26" on="1"/>
      </contour>
    </TTGlyph>
    <TTGlyph name="N" xMin="54" yMin="0" xMax="594" yMax="714">
      <contour>
        <pt x="54" y="714" on="1"/>
        <pt x="84" y="714" on="1"/>
        <pt x="572" y="25" on="1"/>
        <pt x="574" y="25" on="1"/>
        <pt x="574" y="714" on="1"/>
        <pt x="594" y="714" on="1"/>
        <pt x="594" y="0" on="1"/>
        <pt x="564" y="0" on="1"/>
        <pt x="76" y="689" on="1"/>
        <pt x="74" y="689" on="1"/>
        <pt x="74" y="0" on="1"/>
        <pt x="54" y="0" on="1"/>
      </contour>
    </TTGlyph>
    <TTGlyph name="Nacute" xMin="54" yMin="0" xMax="594" yMax="922">
      <component glyphName="N" x="0" y="0" flags="0x204"/>
      <component glyphName="acute" x="304" y="190" flags="0x4"/>
    </TTGlyph>
    <TTGlyph name="Ncaron" xMin="54" yMin="0" xMax="594" yMax="920">
      <component glyphName="N" x="0" y="0" flags="0x204"/>
      <component glyphName="caron" x="260" y="190" flags="0x4"/>
    </TTGlyph>
    <TTGlyph name="Ncommaaccent" xMin="54" yMin="-189" xMax="594" yMax="714">
      <component glyphName="N" x="0" y="0" flags="0x204"/>
      <component glyphName="commaaccent" x="177" y="0" flags="0x4"/>
    </TTGlyph>
    <TTGlyph name="Ntilde" xMin="54" yMin="0" xMax="594" yMax="884">
      <component glyphName="N" x="0" y="0" flags="0x204"/>
      <component glyphName="tilde" x="264" y="190" flags="0x4"/>
    </TTGlyph>
    <TTGlyph name="O" xMin="32" yMin="-17" xMax="690" yMax="731">
      <contour>
        <pt x="32" y="357" on="1"/>
        <pt x="32" y="433" on="0"/>
        <pt x="75" y="569" on="0"/>
        <pt x="158" y="671" on="0"/>
        <pt x="281" y="731" on="0"/>
        <pt x="361" y="731" on="1"/>
        <pt x="441" y="731" on="0"/>
        <pt x="564" y="671" on="0"/>
        <pt x="647" y="569" on="0"/>
        <pt x="690" y="433" on="0"/>
        <pt x="690" y="357" on="1"/>
        <pt x="690" y="281" on="0"/>
        <pt x="647" y="145" on="0"/>
        <pt x="564" y="43" on="0"/>
        <pt x="441" y="-17" on="0"/>
        <pt x="361" y="-17" on="1"/>
        <pt x="281" y="-17" on="0"/>
        <pt x="158" y="43" on="0"/>
        <pt x="75" y="145" on="0"/>
        <pt x="32" y="281" on="0"/>
      </contour>
      <contour>
        <pt x="52" y="357" on="1"/>
        <pt x="53" y="280" on="0"/>
        <pt x="95" y="150" on="0"/>
        <pt x="175" y="56" on="0"/>
        <pt x="289" y="3" on="0"/>
        <pt x="361" y="3" on="1"/>
        <pt x="433" y="3" on="0"/>
        <pt x="547" y="56" on="0"/>
        <pt x="626" y="150" on="0"/>
        <pt x="669" y="280" on="0"/>
        <pt x="670" y="357" on="1"/>
        <pt x="669" y="434" on="0"/>
        <pt x="626" y="564" on="0"/>
        <pt x="547" y="658" on="0"/>
        <pt x="433" y="711" on="0"/>
        <pt x="361" y="711" on="1"/>
        <pt x="289" y="711" on="0"/>
        <pt x="175" y="658" on="0"/>
        <pt x="95" y="564" on="0"/>
        <pt x="53" y="434" on="0"/>
      </contour>
    </TTGlyph>
    <TTGlyph name="OE" xMin="32" yMin="-17" xMax="992" yMax="731">
      <contour>
        <pt x="558" y="623" on="1"/>
        <pt x="535" y="647" on="0"/>
        <pt x="492" y="680" on="0"/>
        <pt x="446" y="701" on="0"/>
        <pt x="394" y="711" on="0"/>
        <pt x="362" y="711" on="1"/>
        <pt x="291" y="711" on="0"/>
        <pt x="177" y="660" on="0"/>
        <pt x="97" y="566" on="0"/>
        <pt x="53" y="434" on="0"/>
        <pt x="52" y="353" on="1"/>
        <pt x="53" y="277" on="0"/>
        <pt x="96" y="149" on="0"/>
        <pt x="175" y="56" on="0"/>
        <pt x="290" y="3" on="0"/>
        <pt x="362" y="3" on="1"/>
        <pt x="409" y="3" on="0"/>
        <pt x="515" y="44" on="0"/>
        <pt x="558" y="94" on="1"/>
      </contour>
      <contour>
        <pt x="944" y="382" on="1"/>
        <pt x="944" y="362" on="1"/>
        <pt x="578" y="362" on="1"/>
        <pt x="578" y="20" on="1"/>
        <pt x="992" y="20" on="1"/>
        <pt x="992" y="0" on="1"/>
        <pt x="558" y="0" on="1"/>
        <pt x="558" y="65" on="1"/>
        <pt x="516" y="22" on="0"/>
        <pt x="414" y="-17" on="0"/>
        <pt x="362" y="-17" on="1"/>
        <pt x="281" y="-17" on="0"/>
        <pt x="158" y="43" on="0"/>
        <pt x="75" y="144" on="0"/>
        <pt x="32" y="278" on="0"/>
        <pt x="32" y="353" on="1"/>
        <pt x="32" y="428" on="0"/>
        <pt x="74" y="565" on="0"/>
        <pt x="156" y="669" on="0"/>
        <pt x="280" y="731" on="0"/>
        <pt x="362" y="731" on="1"/>
        <pt x="421" y="731" on="0"/>
        <pt x="519" y="694" on="0"/>
        <pt x="558" y="649" on="1"/>
        <pt x="558" y="714" on="1"/>
        <pt x="992" y="714" on="1"/>
        <pt x="992" y="694" on="1"/>
        <pt x="578" y="694" on="1"/>
        <pt x="578" y="382" on="1"/>
      </contour>
    </TTGlyph>
    <TTGlyph name="Oacute" xMin="32" yMin="-17" xMax="690" yMax="922">
      <component glyphName="O" x="0" y="0" flags="0x204"/>
      <component glyphName="acute" x="343" y="190" flags="0x4"/>
    </TTGlyph>
    <TTGlyph name="Obreve" xMin="32" yMin="-17" xMax="690" yMax="904">
      <component glyphName="O" x="0" y="0" flags="0x204"/>
      <component glyphName="breve" x="299" y="190" flags="0x4"/>
    </TTGlyph>
    <TTGlyph name="Ocircumflex" xMin="32" yMin="-17" xMax="690" yMax="920">
      <component glyphName="O" x="0" y="0" flags="0x204"/>
      <component glyphName="circumflex" x="300" y="190" flags="0x4"/>
    </TTGlyph>
    <TTGlyph name="Odieresis" xMin="32" yMin="-17" xMax="690" yMax="885">
      <component glyphName="O" x="0" y="0" flags="0x204"/>
      <component glyphName="dieresis" x="298" y="190" flags="0x4"/>
    </TTGlyph>
    <TTGlyph name="Ograve" xMin="32" yMin="-17" xMax="690" yMax="922">
      <component glyphName="O" x="0" y="0" flags="0x204"/>
      <component glyphName="grave" x="255" y="190" flags="0x4"/>
    </TTGlyph>
    <TTGlyph name="Ohungarumlaut" xMin="32" yMin="-17" xMax="690" yMax="922">
      <component glyphName="O" x="0" y="0" flags="0x204"/>
      <component glyphName="hungarumlaut" x="323" y="190" flags="0x4"/>
    </TTGlyph>
    <TTGlyph name="Omacron" xMin="32" yMin="-17" xMax="690" yMax="850">
      <component glyphName="O" x="0" y="0" flags="0x204"/>
      <component glyphName="macron" x="299" y="190" flags="0x4"/>
    </TTGlyph>
    <TTGlyph name="Omega" xMin="61" yMin="0" xMax="662" yMax="721">
      <contour>
        <pt x="447" y="0" on="1"/>
        <pt x="447" y="152" on="1"/>
        <pt x="495" y="162" on="0"/>
        <pt x="568" y="210" on="0"/>
        <pt x="618" y="278" on="0"/>
        <pt x="643" y="364" on="0"/>
        <pt x="643" y="411" on="1"/>
        <pt x="643" y="469" on="0"/>
        <pt x="600" y="575" on="0"/>
        <pt x="524" y="656" on="0"/>
        <pt x="421" y="703" on="0"/>
        <pt x="361" y="703" on="1"/>
        <pt x="301" y="703" on="0"/>
        <pt x="199" y="656" on="0"/>
        <pt x="123" y="575" on="0"/>
        <pt x="80" y="469" on="0"/>
        <pt x="80" y="411" on="1"/>
        <pt x="80" y="365" on="0"/>
        <pt x="106" y="278" on="0"/>
        <pt x="156" y="207" on="0"/>
        <pt x="230" y="159" on="0"/>
        <pt x="278" y="152" on="1"/>
        <pt x="278" y="0" on="1"/>
        <pt x="61" y="0" on="1"/>
        <pt x="61" y="19" on="1"/>
        <pt x="259" y="19" on="1"/>
        <pt x="259" y="136" on="1"/>
        <pt x="210" y="149" on="0"/>
        <pt x="136" y="202" on="0"/>
        <pt x="86" y="275" on="0"/>
        <pt x="61" y="364" on="0"/>
        <pt x="61" y="414" on="1"/>
        <pt x="61" y="476" on="0"/>
        <pt x="107" y="588" on="0"/>
        <pt x="188" y="672" on="0"/>
        <pt x="298" y="721" on="0"/>
        <pt x="361" y="721" on="1"/>
        <pt x="425" y="721" on="0"/>
        <pt x="535" y="672" on="0"/>
        <pt x="615" y="588" on="0"/>
        <pt x="661" y="476" on="0"/>
        <pt x="661" y="413" on="1"/>
        <pt x="661" y="312" on="0"/>
        <pt x="564" y="165" on="0"/>
        <pt x="465" y="137" on="1"/>
        <pt x="465" y="19" on="1"/>
        <pt x="662" y="19" on="1"/>
        <pt x="662" y="0" on="1"/>
      </contour>
    </TTGlyph>
    <TTGlyph name="Oslash" xMin="32" yMin="-17" xMax="690" yMax="731">
      <contour>
        <pt x="113" y="98" on="1"/>
        <pt x="73" y="149" on="0"/>
        <pt x="32" y="282" on="0"/>
        <pt x="32" y="357" on="1"/>
        <pt x="32" y="433" on="0"/>
        <pt x="75" y="569" on="0"/>
        <pt x="158" y="671" on="0"/>
        <pt x="281" y="731" on="0"/>
        <pt x="361" y="731" on="1"/>
        <pt x="436" y="731" on="0"/>
        <pt x="553" y="678" on="0"/>
        <pt x="595" y="632" on="1"/>
        <pt x="654" y="697" on="1"/>
        <pt x="669" y="685" on="1"/>
        <pt x="608" y="617" on="1"/>
        <pt x="649" y="566" on="0"/>
        <pt x="690" y="433" on="0"/>
        <pt x="690" y="357" on="1"/>
        <pt x="690" y="281" on="0"/>
        <pt x="647" y="145" on="0"/>
        <pt x="564" y="43" on="0"/>
        <pt x="441" y="-17" on="0"/>
        <pt x="361" y="-17" on="1"/>
        <pt x="285" y="-17" on="0"/>
        <pt x="168" y="36" on="0"/>
        <pt x="126" y="84" on="1"/>
        <pt x="55" y="5" on="1"/>
        <pt x="40" y="17" on="1"/>
      </contour>
      <contour>
        <pt x="140" y="99" on="1"/>
        <pt x="179" y="53" on="0"/>
        <pt x="290" y="3" on="0"/>
        <pt x="361" y="3" on="1"/>
        <pt x="433" y="3" on="0"/>
        <pt x="547" y="56" on="0"/>
        <pt x="626" y="150" on="0"/>
        <pt x="669" y="280" on="0"/>
        <pt x="670" y="357" on="1"/>
        <pt x="669" y="431" on="0"/>
        <pt x="631" y="555" on="0"/>
        <pt x="594" y="601" on="1"/>
      </contour>
      <contour>
        <pt x="581" y="617" on="1"/>
        <pt x="541" y="662" on="0"/>
        <pt x="431" y="711" on="0"/>
        <pt x="361" y="711" on="1"/>
        <pt x="289" y="711" on="0"/>
        <pt x="175" y="658" on="0"/>
        <pt x="95" y="564" on="0"/>
        <pt x="53" y="434" on="0"/>
        <pt x="52" y="357" on="1"/>
        <pt x="53" y="283" on="0"/>
        <pt x="91" y="160" on="0"/>
        <pt x="127" y="114" on="1"/>
      </contour>
    </TTGlyph>
    <TTGlyph name="Otilde" xMin="32" yMin="-17" xMax="690" yMax="884">
      <component glyphName="O" x="0" y="0" flags="0x204"/>
      <component glyphName="tilde" x="300" y="190" flags="0x4"/>
    </TTGlyph>
    <TTGlyph name="P" xMin="54" yMin="0" xMax="560" yMax="714">
      <contour>
        <pt x="74" y="0" on="1"/>
        <pt x="54" y="0" on="1"/>
        <pt x="54" y="714" on="1"/>
        <pt x="343" y="714" on="1"/>
        <pt x="446" y="714" on="0"/>
        <pt x="560" y="616" on="0"/>
        <pt x="560" y="519" on="1"/>
        <pt x="560" y="472" on="0"/>
        <pt x="526" y="399" on="0"/>
        <pt x="466" y="350" on="0"/>
        <pt x="382" y="325" on="0"/>
        <pt x="333" y="325" on="1"/>
        <pt x="74" y="325" on="1"/>
      </contour>
      <contour>
        <pt x="74" y="345" on="1"/>
        <pt x="343" y="345" on="1"/>
        <pt x="385" y="345" on="0"/>
        <pt x="457" y="368" on="0"/>
        <pt x="510" y="413" on="0"/>
        <pt x="540" y="477" on="0"/>
        <pt x="540" y="519" on="1"/>
        <pt x="540" y="604" on="0"/>
        <pt x="442" y="694" on="0"/>
        <pt x="343" y="694" on="1"/>
        <pt x="74" y="694" on="1"/>
      </contour>
    </TTGlyph>
    <TTGlyph name="Q" xMin="32" yMin="-22" xMax="699" yMax="731">
      <contour>
        <pt x="571" y="58" on="1"/>
        <pt x="531" y="23" on="0"/>
        <pt x="426" y="-17" on="0"/>
        <pt x="361" y="-17" on="1"/>
        <pt x="281" y="-17" on="0"/>
        <pt x="158" y="43" on="0"/>
        <pt x="75" y="145" on="0"/>
        <pt x="32" y="281" on="0"/>
        <pt x="32" y="357" on="1"/>
        <pt x="32" y="433" on="0"/>
        <pt x="75" y="569" on="0"/>
        <pt x="158" y="671" on="0"/>
        <pt x="281" y="731" on="0"/>
        <pt x="361" y="731" on="1"/>
        <pt x="441" y="731" on="0"/>
        <pt x="564" y="671" on="0"/>
        <pt x="647" y="569" on="0"/>
        <pt x="690" y="433" on="0"/>
        <pt x="690" y="357" on="1"/>
        <pt x="690" y="272" on="0"/>
        <pt x="637" y="123" on="0"/>
        <pt x="584" y="71" on="1"/>
        <pt x="699" y="-8" on="1"/>
        <pt x="689" y="-22" on="1"/>
      </contour>
      <contour>
        <pt x="427" y="156" on="1"/>
        <pt x="438" y="172" on="1"/>
        <pt x="567" y="83" on="1"/>
        <pt x="616" y="130" on="0"/>
        <pt x="669" y="270" on="0"/>
        <pt x="670" y="357" on="1"/>
        <pt x="669" y="434" on="0"/>
        <pt x="626" y="564" on="0"/>
        <pt x="547" y="658" on="0"/>
        <pt x="433" y="711" on="0"/>
        <pt x="361" y="711" on="1"/>
        <pt x="289" y="711" on="0"/>
        <pt x="175" y="658" on="0"/>
        <pt x="95" y="564" on="0"/>
        <pt x="53" y="434" on="0"/>
        <pt x="52" y="357" on="1"/>
        <pt x="53" y="280" on="0"/>
        <pt x="95" y="150" on="0"/>
        <pt x="175" y="56" on="0"/>
        <pt x="289" y="3" on="0"/>
        <pt x="361" y="3" on="1"/>
        <pt x="419" y="3" on="0"/>
        <pt x="515" y="38" on="0"/>
        <pt x="553" y="70" on="1"/>
      </contour>
    </TTGlyph>
    <TTGlyph name="R" xMin="54" yMin="0" xMax="569" yMax="714">
      <contour>
        <pt x="74" y="0" on="1"/>
        <pt x="54" y="0" on="1"/>
        <pt x="54" y="714" on="1"/>
        <pt x="346" y="714" on="1"/>
        <pt x="457" y="714" on="0"/>
        <pt x="562" y="624" on="0"/>
        <pt x="564" y="531" on="1"/>
        <pt x="566" y="460" on="0"/>
        <pt x="486" y="364" on="0"/>
        <pt x="411" y="347" on="1"/>
        <pt x="411" y="345" on="1"/>
        <pt x="456" y="339" on="0"/>
        <pt x="512" y="308" on="0"/>
        <pt x="542" y="258" on="0"/>
        <pt x="552" y="190" on="0"/>
        <pt x="552" y="147" on="1"/>
        <pt x="552" y="131" on="0"/>
        <pt x="554" y="87" on="0"/>
        <pt x="558" y="43" on="0"/>
        <pt x="564" y="7" on="0"/>
        <pt x="569" y="0" on="1"/>
        <pt x="547" y="0" on="1"/>
        <pt x="542" y="11" on="0"/>
        <pt x="537" y="48" on="0"/>
        <pt x="533" y="90" on="0"/>
        <pt x="532" y="133" on="0"/>
        <pt x="532" y="150" on="1"/>
        <pt x="532" y="194" on="0"/>
        <pt x="519" y="263" on="0"/>
        <pt x="479" y="310" on="0"/>
        <pt x="404" y="335" on="0"/>
        <pt x="343" y="335" on="1"/>
        <pt x="74" y="335" on="1"/>
      </contour>
      <contour>
        <pt x="74" y="355" on="1"/>
        <pt x="341" y="355" on="1"/>
        <pt x="380" y="355" on="0"/>
        <pt x="454" y="375" on="0"/>
        <pt x="511" y="419" on="0"/>
        <pt x="544" y="486" on="0"/>
        <pt x="544" y="533" on="1"/>
        <pt x="543" y="609" on="0"/>
        <pt x="453" y="694" on="0"/>
        <pt x="351" y="694" on="1"/>
        <pt x="74" y="694" on="1"/>
      </contour>
    </TTGlyph>
    <TTGlyph name="Racute" xMin="54" yMin="0" xMax="569" yMax="922">
      <component glyphName="R" x="0" y="0" flags="0x204"/>
      <component glyphName="acute" x="239" y="190" flags="0x4"/>
    </TTGlyph>
    <TTGlyph name="Rcaron" xMin="54" yMin="0" xMax="569" yMax="920">
      <component glyphName="R" x="0" y="0" flags="0x204"/>
      <component glyphName="caron" x="211" y="190" flags="0x4"/>
    </TTGlyph>
    <TTGlyph name="Rcommaaccent" xMin="54" yMin="-189" xMax="569" yMax="714">
      <component glyphName="R" x="0" y="0" flags="0x204"/>
      <component glyphName="commaaccent" x="158" y="0" flags="0x4"/>
    </TTGlyph>
    <TTGlyph name="S" xMin="33" yMin="-17" xMax="565" yMax="731">
      <contour>
        <pt x="531" y="514" on="1"/>
        <pt x="529" y="569" on="0"/>
        <pt x="492" y="644" on="0"/>
        <pt x="431" y="690" on="0"/>
        <pt x="347" y="711" on="0"/>
        <pt x="299" y="711" on="1"/>
        <pt x="261" y="711" on="0"/>
        <pt x="182" y="696" on="0"/>
        <pt x="117" y="658" on="0"/>
        <pt x="75" y="595" on="0"/>
        <pt x="75" y="547" on="1"/>
        <pt x="75" y="499" on="0"/>
        <pt x="118" y="441" on="0"/>
        <pt x="187" y="405" on="0"/>
        <pt x="275" y="385" on="0"/>
        <pt x="321" y="374" on="1"/>
        <pt x="371" y="361" on="0"/>
        <pt x="460" y="338" on="0"/>
        <pt x="526" y="297" on="0"/>
        <pt x="565" y="231" on="0"/>
        <pt x="565" y="175" on="1"/>
        <pt x="565" y="124" on="0"/>
        <pt x="521" y="52" on="0"/>
        <pt x="449" y="5" on="0"/>
        <pt x="359" y="-17" on="0"/>
        <pt x="313" y="-17" on="1"/>
        <pt x="252" y="-17" on="0"/>
        <pt x="149" y="12" on="0"/>
        <pt x="74" y="73" on="0"/>
        <pt x="33" y="169" on="0"/>
        <pt x="34" y="237" on="1"/>
        <pt x="54" y="237" on="1"/>
        <pt x="54" y="173" on="0"/>
        <pt x="92" y="84" on="0"/>
        <pt x="161" y="28" on="0"/>
        <pt x="256" y="3" on="0"/>
        <pt x="313" y="3" on="1"/>
        <pt x="355" y="3" on="0"/>
        <pt x="438" y="22" on="0"/>
        <pt x="504" y="64" on="0"/>
        <pt x="545" y="130" on="0"/>
        <pt x="545" y="176" on="1"/>
        <pt x="545" y="230" on="0"/>
        <pt x="498" y="293" on="0"/>
        <pt x="425" y="330" on="0"/>
        <pt x="336" y="349" on="0"/>
        <pt x="295" y="359" on="1"/>
        <pt x="251" y="369" on="0"/>
        <pt x="166" y="391" on="0"/>
        <pt x="97" y="430" on="0"/>
        <pt x="55" y="494" on="0"/>
        <pt x="55" y="547" on="1"/>
        <pt x="55" y="600" on="0"/>
        <pt x="99" y="671" on="0"/>
        <pt x="169" y="713" on="0"/>
        <pt x="256" y="731" on="0"/>
        <pt x="299" y="731" on="1"/>
        <pt x="351" y="731" on="0"/>
        <pt x="441" y="708" on="0"/>
        <pt x="508" y="657" on="0"/>
        <pt x="548" y="574" on="0"/>
        <pt x="551" y="514" on="1"/>
      </contour>
    </TTGlyph>
    <TTGlyph name="Sacute" xMin="33" yMin="-17" xMax="565" yMax="922">
      <component glyphName="S" x="0" y="0" flags="0x204"/>
      <component glyphName="acute" x="275" y="190" flags="0x4"/>
    </TTGlyph>
    <TTGlyph name="Scaron" xMin="33" yMin="-17" xMax="565" yMax="920">
      <component glyphName="S" x="0" y="0" flags="0x204"/>
      <component glyphName="caron" x="240" y="190" flags="0x4"/>
    </TTGlyph>
    <TTGlyph name="Scedilla" xMin="33" yMin="-188" xMax="565" yMax="731">
      <contour>
        <pt x="215" y="-151" on="1"/>
        <pt x="232" y="-159" on="0"/>
        <pt x="266" y="-168" on="0"/>
        <pt x="286" y="-168" on="1"/>
        <pt x="300" y="-168" on="0"/>
        <pt x="328" y="-160" on="0"/>
        <pt x="347" y="-144" on="0"/>
        <pt x="356" y="-125" on="0"/>
        <pt x="356" y="-113" on="1"/>
        <pt x="356" y="-100" on="0"/>
        <pt x="346" y="-84" on="0"/>
        <pt x="331" y="-74" on="0"/>
        <pt x="310" y="-70" on="0"/>
        <pt x="303" y="-70" on="1"/>
        <pt x="271" y="-70" on="0"/>
        <pt x="249" y="-83" on="1"/>
        <pt x="234" y="-73" on="1"/>
        <pt x="278" y="-16" on="1"/>
        <pt x="237" y="-13" on="0"/>
        <pt x="200" y="-2" on="1"/>
        <pt x="149" y="12" on="0"/>
        <pt x="74" y="73" on="0"/>
        <pt x="33" y="169" on="0"/>
        <pt x="34" y="237" on="1"/>
        <pt x="54" y="237" on="1"/>
        <pt x="54" y="173" on="0"/>
        <pt x="92" y="84" on="0"/>
        <pt x="161" y="28" on="0"/>
        <pt x="256" y="3" on="0"/>
        <pt x="313" y="3" on="1"/>
        <pt x="355" y="3" on="0"/>
        <pt x="438" y="22" on="0"/>
        <pt x="504" y="64" on="0"/>
        <pt x="545" y="130" on="0"/>
        <pt x="545" y="176" on="1"/>
        <pt x="545" y="230" on="0"/>
        <pt x="498" y="293" on="0"/>
        <pt x="425" y="330" on="0"/>
        <pt x="336" y="349" on="0"/>
        <pt x="295" y="359" on="1"/>
        <pt x="251" y="369" on="0"/>
        <pt x="166" y="391" on="0"/>
        <pt x="97" y="430" on="0"/>
        <pt x="55" y="494" on="0"/>
        <pt x="55" y="547" on="1"/>
        <pt x="55" y="600" on="0"/>
        <pt x="99" y="671" on="0"/>
        <pt x="169" y="713" on="0"/>
        <pt x="256" y="731" on="0"/>
        <pt x="299" y="731" on="1"/>
        <pt x="351" y="731" on="0"/>
        <pt x="441" y="708" on="0"/>
        <pt x="508" y="657" on="0"/>
        <pt x="548" y="574" on="0"/>
        <pt x="551" y="514" on="1"/>
        <pt x="531" y="514" on="1"/>
        <pt x="529" y="569" on="0"/>
        <pt x="492" y="644" on="0"/>
        <pt x="431" y="690" on="0"/>
        <pt x="347" y="711" on="0"/>
        <pt x="299" y="711" on="1"/>
        <pt x="261" y="711" on="0"/>
        <pt x="182" y="696" on="0"/>
        <pt x="117" y="658" on="0"/>
        <pt x="75" y="595" on="0"/>
        <pt x="75" y="547" on="1"/>
        <pt x="75" y="499" on="0"/>
        <pt x="118" y="441" on="0"/>
        <pt x="187" y="405" on="0"/>
        <pt x="275" y="385" on="0"/>
        <pt x="321" y="374" on="1"/>
        <pt x="371" y="361" on="0"/>
        <pt x="460" y="338" on="0"/>
        <pt x="526" y="297" on="0"/>
        <pt x="565" y="231" on="0"/>
        <pt x="565" y="175" on="1"/>
        <pt x="565" y="124" on="0"/>
        <pt x="521" y="52" on="0"/>
        <pt x="449" y="5" on="0"/>
        <pt x="359" y="-17" on="0"/>
        <pt x="313" y="-17" on="1"/>
        <pt x="298" y="-17" on="1"/>
        <pt x="270" y="-56" on="1"/>
        <pt x="277" y="-53" on="0"/>
        <pt x="292" y="-50" on="0"/>
        <pt x="303" y="-50" on="1"/>
        <pt x="336" y="-50" on="0"/>
        <pt x="378" y="-79" on="0"/>
        <pt x="379" y="-110" on="1"/>
        <pt x="379" y="-125" on="0"/>
        <pt x="365" y="-157" on="0"/>
        <pt x="340" y="-177" on="0"/>
        <pt x="305" y="-188" on="0"/>
        <pt x="286" y="-188" on="1"/>
        <pt x="262" y="-188" on="0"/>
        <pt x="220" y="-177" on="0"/>
        <pt x="206" y="-170" on="1"/>
      </contour>
    </TTGlyph>
    <TTGlyph name="Scircumflex" xMin="33" yMin="-17" xMax="565" yMax="920">
      <component glyphName="S" x="0" y="0" flags="0x204"/>
      <component glyphName="circumflex" x="242" y="190" flags="0x4"/>
    </TTGlyph>
    <TTGlyph name="Scommaaccent" xMin="33" yMin="-189" xMax="565" yMax="731">
      <component glyphName="S" x="0" y="0" flags="0x204"/>
      <component glyphName="commaaccent" x="169" y="0" flags="0x4"/>
    </TTGlyph>
    <TTGlyph name="T" xMin="-17" yMin="0" xMax="517" yMax="714">
      <contour>
        <pt x="-17" y="694" on="1"/>
        <pt x="-17" y="714" on="1"/>
        <pt x="517" y="714" on="1"/>
        <pt x="517" y="694" on="1"/>
        <pt x="260" y="694" on="1"/>
        <pt x="260" y="0" on="1"/>
        <pt x="240" y="0" on="1"/>
        <pt x="240" y="694" on="1"/>
      </contour>
    </TTGlyph>
    <TTGlyph name="Tbar" xMin="-17" yMin="0" xMax="517" yMax="714">
      <contour>
        <pt x="-17" y="694" on="1"/>
        <pt x="-17" y="714" on="1"/>
        <pt x="517" y="714" on="1"/>
        <pt x="517" y="694" on="1"/>
        <pt x="260" y="694" on="1"/>
        <pt x="260" y="484" on="1"/>
        <pt x="426" y="484" on="1"/>
        <pt x="426" y="464" on="1"/>
        <pt x="260" y="464" on="1"/>
        <pt x="260" y="0" on="1"/>
        <pt x="240" y="0" on="1"/>
        <pt x="240" y="464" on="1"/>
        <pt x="74" y="464" on="1"/>
        <pt x="74" y="484" on="1"/>
        <pt x="240" y="484" on="1"/>
        <pt x="240" y="694" on="1"/>
      </contour>
    </TTGlyph>
    <TTGlyph name="Tcaron" xMin="-17" yMin="0" xMax="517" yMax="920">
      <component glyphName="T" x="0" y="0" flags="0x204"/>
      <component glyphName="caron" x="185" y="190" flags="0x4"/>
    </TTGlyph>
    <TTGlyph name="Tcommaaccent" xMin="-17" yMin="-189" xMax="517" yMax="714">
      <component glyphName="T" x="0" y="0" flags="0x204"/>
      <component glyphName="commaaccent" x="112" y="0" flags="0x4"/>
    </TTGlyph>
    <TTGlyph name="Thorn" xMin="54" yMin="0" xMax="560" yMax="714">
      <contour>
        <pt x="343" y="590" on="1"/>
        <pt x="446" y="590" on="0"/>
        <pt x="560" y="492" on="0"/>
        <pt x="560" y="395" on="1"/>
        <pt x="560" y="348" on="0"/>
        <pt x="526" y="275" on="0"/>
        <pt x="466" y="226" on="0"/>
        <pt x="382" y="201" on="0"/>
        <pt x="333" y="201" on="1"/>
        <pt x="74" y="201" on="1"/>
        <pt x="74" y="0" on="1"/>
        <pt x="54" y="0" on="1"/>
        <pt x="54" y="714" on="1"/>
        <pt x="74" y="714" on="1"/>
        <pt x="74" y="590" on="1"/>
      </contour>
      <contour>
        <pt x="74" y="221" on="1"/>
        <pt x="343" y="221" on="1"/>
        <pt x="385" y="221" on="0"/>
        <pt x="457" y="244" on="0"/>
        <pt x="510" y="289" on="0"/>
        <pt x="540" y="353" on="0"/>
        <pt x="540" y="395" on="1"/>
        <pt x="540" y="480" on="0"/>
        <pt x="442" y="570" on="0"/>
        <pt x="343" y="570" on="1"/>
        <pt x="74" y="570" on="1"/>
      </contour>
    </TTGlyph>
    <TTGlyph name="U" xMin="54" yMin="-17" xMax="578" yMax="714">
      <contour>
        <pt x="558" y="714" on="1"/>
        <pt x="578" y="714" on="1"/>
        <pt x="578" y="266" on="1"/>
        <pt x="578" y="123" on="0"/>
        <pt x="443" y="-17" on="0"/>
        <pt x="316" y="-17" on="1"/>
        <pt x="189" y="-17" on="0"/>
        <pt x="54" y="123" on="0"/>
        <pt x="54" y="266" on="1"/>
        <pt x="54" y="714" on="1"/>
        <pt x="74" y="714" on="1"/>
        <pt x="74" y="266" on="1"/>
        <pt x="74" y="138" on="0"/>
        <pt x="193" y="3" on="0"/>
        <pt x="316" y="3" on="1"/>
        <pt x="439" y="3" on="0"/>
        <pt x="558" y="138" on="0"/>
        <pt x="558" y="266" on="1"/>
      </contour>
    </TTGlyph>
    <TTGlyph name="Uacute" xMin="54" yMin="-17" xMax="578" yMax="922">
      <component glyphName="U" x="0" y="0" flags="0x204"/>
      <component glyphName="acute" x="297" y="190" flags="0x4"/>
    </TTGlyph>
    <TTGlyph name="Ubreve" xMin="54" yMin="-17" xMax="578" yMax="904">
      <component glyphName="U" x="0" y="0" flags="0x204"/>
      <component glyphName="breve" x="255" y="190" flags="0x4"/>
    </TTGlyph>
    <TTGlyph name="Ucircumflex" xMin="54" yMin="-17" xMax="578" yMax="920">
      <component glyphName="U" x="0" y="0" flags="0x204"/>
      <component glyphName="circumflex" x="253" y="190" flags="0x4"/>
    </TTGlyph>
    <TTGlyph name="Udieresis" xMin="54" yMin="-17" xMax="578" yMax="885">
      <component glyphName="U" x="0" y="0" flags="0x204"/>
      <component glyphName="dieresis" x="250" y="190" flags="0x4"/>
    </TTGlyph>
    <TTGlyph name="Ugrave" xMin="54" yMin="-17" xMax="578" yMax="922">
      <component glyphName="U" x="0" y="0" flags="0x204"/>
      <component glyphName="grave" x="209" y="190" flags="0x4"/>
    </TTGlyph>
    <TTGlyph name="Uhungarumlaut" xMin="54" yMin="-17" xMax="578" yMax="922">
      <component glyphName="U" x="0" y="0" flags="0x204"/>
      <component glyphName="hungarumlaut" x="282" y="190" flags="0x4"/>
    </TTGlyph>
    <TTGlyph name="Umacron" xMin="54" yMin="-17" xMax="578" yMax="850">
      <component glyphName="U" x="0" y="0" flags="0x204"/>
      <component glyphName="macron" x="255" y="190" flags="0x4"/>
    </TTGlyph>
    <TTGlyph name="Uogonek" xMin="54" yMin="-188" xMax="578" yMax="714">
      <contour>
        <pt x="558" y="714" on="1"/>
        <pt x="578" y="714" on="1"/>
        <pt x="578" y="266" on="1"/>
        <pt x="578" y="123" on="0"/>
        <pt x="510" y="53" on="1"/>
        <pt x="449" y="-11" on="0"/>
        <pt x="337" y="-16" on="1"/>
        <pt x="297" y="-49" on="0"/>
        <pt x="280" y="-71" on="1"/>
        <pt x="258" y="-98" on="0"/>
        <pt x="258" y="-123" on="1"/>
        <pt x="258" y="-142" on="0"/>
        <pt x="285" y="-168" on="0"/>
        <pt x="309" y="-168" on="1"/>
        <pt x="337" y="-168" on="0"/>
        <pt x="374" y="-147" on="0"/>
        <pt x="384" y="-136" on="1"/>
        <pt x="401" y="-148" on="1"/>
        <pt x="380" y="-170" on="0"/>
        <pt x="337" y="-188" on="0"/>
        <pt x="309" y="-188" on="1"/>
        <pt x="272" y="-188" on="0"/>
        <pt x="234" y="-152" on="0"/>
        <pt x="234" y="-125" on="1"/>
        <pt x="234" y="-106" on="0"/>
        <pt x="252" y="-71" on="0"/>
        <pt x="279" y="-41" on="0"/>
        <pt x="296" y="-26" on="1"/>
        <pt x="301" y="-22" on="0"/>
        <pt x="307" y="-17" on="1"/>
        <pt x="186" y="-14" on="0"/>
        <pt x="121" y="53" on="1"/>
        <pt x="54" y="123" on="0"/>
        <pt x="54" y="266" on="1"/>
        <pt x="54" y="714" on="1"/>
        <pt x="74" y="714" on="1"/>
        <pt x="74" y="266" on="1"/>
        <pt x="74" y="138" on="0"/>
        <pt x="193" y="3" on="0"/>
        <pt x="316" y="3" on="1"/>
        <pt x="439" y="3" on="0"/>
        <pt x="558" y="138" on="0"/>
        <pt x="558" y="266" on="1"/>
      </contour>
    </TTGlyph>
    <TTGlyph name="Uring" xMin="54" yMin="-17" xMax="578" yMax="938">
      <component glyphName="U" x="0" y="0" flags="0x204"/>
      <component glyphName="ring" x="253" y="180" flags="0x4"/>
    </TTGlyph>
    <TTGlyph name="Utilde" xMin="54" yMin="-17" xMax="578" yMax="884">
      <component glyphName="U" x="0" y="0" flags="0x204"/>
      <component glyphName="tilde" x="256" y="190" flags="0x4"/>
    </TTGlyph>
    <TTGlyph name="V" xMin="-18" yMin="0" xMax="556" yMax="714">
      <contour>
        <pt x="536" y="714" on="1"/>
        <pt x="556" y="714" on="1"/>
        <pt x="284" y="0" on="1"/>
        <pt x="262" y="0" on="1"/>
        <pt x="-18" y="714" on="1"/>
        <pt x="2" y="714" on="1"/>
        <pt x="272" y="26" on="1"/>
        <pt x="274" y="26" on="1"/>
      </contour>
    </TTGlyph>
    <TTGlyph name="W" xMin="-10" yMin="0" xMax="880" yMax="714">
      <contour>
        <pt x="860" y="714" on="1"/>
        <pt x="880" y="714" on="1"/>
        <pt x="673" y="0" on="1"/>
        <pt x="646" y="0" on="1"/>
        <pt x="436" y="689" on="1"/>
        <pt x="434" y="689" on="1"/>
        <pt x="228" y="0" on="1"/>
        <pt x="201" y="0" on="1"/>
        <pt x="-10" y="714" on="1"/>
        <pt x="11" y="714" on="1"/>
        <pt x="213" y="25" on="1"/>
        <pt x="215" y="25" on="1"/>
        <pt x="421" y="714" on="1"/>
        <pt x="450" y="714" on="1"/>
        <pt x="659" y="25" on="1"/>
        <pt x="661" y="25" on="1"/>
      </contour>
    </TTGlyph>
    <TTGlyph name="Wcircumflex" xMin="-10" yMin="0" xMax="880" yMax="920">
      <component glyphName="W" x="0" y="0" flags="0x204"/>
      <component glyphName="circumflex" x="370" y="190" flags="0x4"/>
    </TTGlyph>
    <TTGlyph name="X" xMin="-27" yMin="0" xMax="547" yMax="714">
      <contour>
        <pt x="510" y="714" on="1"/>
        <pt x="535" y="714" on="1"/>
        <pt x="275" y="367" on="1"/>
        <pt x="547" y="0" on="1"/>
        <pt x="522" y="0" on="1"/>
        <pt x="261" y="351" on="1"/>
        <pt x="-2" y="0" on="1"/>
        <pt x="-27" y="0" on="1"/>
        <pt x="248" y="367" on="1"/>
        <pt x="-12" y="714" on="1"/>
        <pt x="14" y="714" on="1"/>
        <pt x="261" y="383" on="1"/>
      </contour>
    </TTGlyph>
    <TTGlyph name="Y" xMin="-30" yMin="0" xMax="568" yMax="714">
      <contour>
        <pt x="544" y="714" on="1"/>
        <pt x="568" y="714" on="1"/>
        <pt x="279" y="301" on="1"/>
        <pt x="279" y="0" on="1"/>
        <pt x="259" y="0" on="1"/>
        <pt x="259" y="301" on="1"/>
        <pt x="-30" y="714" on="1"/>
        <pt x="-5" y="714" on="1"/>
        <pt x="269" y="322" on="1"/>
      </contour>
    </TTGlyph>
    <TTGlyph name="Yacute" xMin="-30" yMin="0" xMax="568" yMax="922">
      <component glyphName="Y" x="0" y="0" flags="0x204"/>
      <component glyphName="acute" x="247" y="190" flags="0x4"/>
    </TTGlyph>
    <TTGlyph name="Ycircumflex" xMin="-30" yMin="0" xMax="568" yMax="920">
      <component glyphName="Y" x="0" y="0" flags="0x204"/>
      <component glyphName="circumflex" x="204" y="190" flags="0x4"/>
    </TTGlyph>
    <TTGlyph name="Ydieresis" xMin="-30" yMin="0" xMax="568" yMax="885">
      <component glyphName="Y" x="0" y="0" flags="0x204"/>
      <component glyphName="dieresis" x="204" y="190" flags="0x4"/>
    </TTGlyph>
    <TTGlyph name="Z" xMin="-19" yMin="0" xMax="508" yMax="714">
      <contour>
        <pt x="508" y="20" on="1"/>
        <pt x="508" y="0" on="1"/>
        <pt x="-19" y="0" on="1"/>
        <pt x="-19" y="27" on="1"/>
        <pt x="480" y="694" on="1"/>
        <pt x="9" y="694" on="1"/>
        <pt x="9" y="714" on="1"/>
        <pt x="500" y="714" on="1"/>
        <pt x="500" y="687" on="1"/>
        <pt x="1" y="20" on="1"/>
      </contour>
    </TTGlyph>
    <TTGlyph name="Zacute" xMin="-19" yMin="0" xMax="508" yMax="922">
      <component glyphName="Z" x="0" y="0" flags="0x204"/>
      <component glyphName="acute" x="231" y="190" flags="0x4"/>
    </TTGlyph>
    <TTGlyph name="Zcaron" xMin="-19" yMin="0" xMax="508" yMax="920">
      <component glyphName="Z" x="0" y="0" flags="0x204"/>
      <component glyphName="caron" x="184" y="190" flags="0x4"/>
    </TTGlyph>
    <TTGlyph name="Zdotaccent" xMin="-19" yMin="0" xMax="508" yMax="885">
      <component glyphName="Z" x="0" y="0" flags="0x204"/>
      <component glyphName="dotaccent" x="184" y="190" flags="0x4"/>
    </TTGlyph>
    <TTGlyph name="a" xMin="22" yMin="-12" xMax="485" yMax="526">
      <contour>
        <pt x="54" y="355" on="1"/>
        <pt x="56" y="391" on="0"/>
        <pt x="82" y="454" on="0"/>
        <pt x="131" y="500" on="0"/>
        <pt x="202" y="526" on="0"/>
        <pt x="250" y="526" on="1"/>
        <pt x="284" y="526" on="0"/>
        <pt x="345" y="512" on="0"/>
        <pt x="391" y="477" on="0"/>
        <pt x="419" y="421" on="0"/>
        <pt x="420" y="379" on="1"/>
        <pt x="420" y="52" on="1"/>
        <pt x="420" y="37" on="0"/>
        <pt x="432" y="23" on="0"/>
        <pt x="452" y="18" on="0"/>
        <pt x="474" y="19" on="0"/>
        <pt x="485" y="20" on="1"/>
        <pt x="485" y="0" on="1"/>
        <pt x="470" y="-1" on="0"/>
        <pt x="455" y="-1" on="1"/>
        <pt x="440" y="-1" on="0"/>
        <pt x="416" y="9" on="0"/>
        <pt x="400" y="30" on="0"/>
        <pt x="400" y="50" on="1"/>
        <pt x="400" y="117" on="1"/>
        <pt x="398" y="117" on="1"/>
        <pt x="390" y="92" on="0"/>
        <pt x="355" y="46" on="0"/>
        <pt x="302" y="10" on="0"/>
        <pt x="234" y="-12" on="0"/>
        <pt x="194" y="-12" on="1"/>
        <pt x="117" y="-12" on="0"/>
        <pt x="22" y="58" on="0"/>
        <pt x="22" y="127" on="1"/>
        <pt x="22" y="175" on="0"/>
        <pt x="53" y="233" on="0"/>
        <pt x="103" y="266" on="0"/>
        <pt x="167" y="279" on="0"/>
        <pt x="199" y="281" on="1"/>
        <pt x="252" y="284" on="0"/>
        <pt x="328" y="289" on="0"/>
        <pt x="377" y="304" on="0"/>
        <pt x="400" y="335" on="0"/>
        <pt x="400" y="364" on="1"/>
        <pt x="400" y="387" on="0"/>
        <pt x="392" y="437" on="0"/>
        <pt x="361" y="479" on="0"/>
        <pt x="301" y="506" on="0"/>
        <pt x="250" y="506" on="1"/>
        <pt x="169" y="506" on="0"/>
        <pt x="79" y="427" on="0"/>
        <pt x="74" y="355" on="1"/>
      </contour>
      <contour>
        <pt x="400" y="302" on="1"/>
        <pt x="398" y="302" on="1"/>
        <pt x="388" y="287" on="0"/>
        <pt x="346" y="273" on="0"/>
        <pt x="292" y="266" on="0"/>
        <pt x="230" y="263" on="0"/>
        <pt x="199" y="261" on="1"/>
        <pt x="169" y="259" on="0"/>
        <pt x="112" y="247" on="0"/>
        <pt x="68" y="219" on="0"/>
        <pt x="42" y="168" on="0"/>
        <pt x="42" y="127" on="1"/>
        <pt x="42" y="105" on="0"/>
        <pt x="57" y="62" on="0"/>
        <pt x="93" y="29" on="0"/>
        <pt x="150" y="8" on="0"/>
        <pt x="192" y="8" on="1"/>
        <pt x="242" y="8" on="0"/>
        <pt x="320" y="42" on="0"/>
        <pt x="373" y="97" on="0"/>
        <pt x="400" y="169" on="0"/>
        <pt x="400" y="207" on="1"/>
      </contour>
    </TTGlyph>
    <TTGlyph name="aacute" xMin="22" yMin="-12" xMax="485" yMax="732">
      <component glyphName="a" x="0" y="0" flags="0x204"/>
      <component glyphName="acute" x="210" y="0" flags="0x4"/>
    </TTGlyph>
    <TTGlyph name="abreve" xMin="22" yMin="-12" xMax="485" yMax="714">
      <component glyphName="a" x="0" y="0" flags="0x204"/>
      <component glyphName="breve" x="177" y="0" flags="0x4"/>
    </TTGlyph>
    <TTGlyph name="acircumflex" xMin="22" yMin="-12" xMax="485" yMax="730">
      <component glyphName="a" x="0" y="0" flags="0x204"/>
      <component glyphName="circumflex" x="180" y="0" flags="0x4"/>
    </TTGlyph>
    <TTGlyph name="acute" xMin="10" yMin="588" xMax="171" yMax="732">
      <contour>
        <pt x="171" y="732" on="1"/>
        <pt x="25" y="588" on="1"/>
        <pt x="10" y="588" on="1"/>
        <pt x="142" y="732" on="1"/>
      </contour>
    </TTGlyph>
    <TTGlyph name="acute.cap" xMin="10" yMin="778" xMax="171" yMax="922">
      <contour>
        <pt x="171" y="922" on="1"/>
        <pt x="25" y="778" on="1"/>
        <pt x="10" y="778" on="1"/>
        <pt x="142" y="922" on="1"/>
      </contour>
    </TTGlyph>
    <TTGlyph name="adieresis" xMin="22" yMin="-12" xMax="485" yMax="695">
      <component glyphName="a" x="0" y="0" flags="0x204"/>
      <component glyphName="dieresis" x="181" y="0" flags="0x4"/>
    </TTGlyph>
    <TTGlyph name="ae" xMin="32" yMin="-13" xMax="859" yMax="526">
      <contour>
        <pt x="64" y="355" on="1"/>
        <pt x="66" y="391" on="0"/>
        <pt x="92" y="454" on="0"/>
        <pt x="141" y="500" on="0"/>
        <pt x="212" y="526" on="0"/>
        <pt x="260" y="526" on="1"/>
        <pt x="294" y="526" on="0"/>
        <pt x="355" y="511" on="0"/>
        <pt x="401" y="477" on="0"/>
        <pt x="429" y="419" on="0"/>
        <pt x="430" y="376" on="1"/>
        <pt x="432" y="376" on="1"/>
        <pt x="442" y="408" on="0"/>
        <pt x="478" y="463" on="0"/>
        <pt x="530" y="503" on="0"/>
        <pt x="596" y="526" on="0"/>
        <pt x="637" y="526" on="1"/>
        <pt x="695" y="526" on="0"/>
        <pt x="780" y="481" on="0"/>
        <pt x="835" y="406" on="0"/>
        <pt x="859" y="307" on="0"/>
        <pt x="857" y="253" on="1"/>
        <pt x="430" y="253" on="1"/>
        <pt x="432" y="202" on="0"/>
        <pt x="455" y="113" on="0"/>
        <pt x="504" y="46" on="0"/>
        <pt x="580" y="8" on="0"/>
        <pt x="635" y="8" on="1"/>
        <pt x="673" y="8" on="0"/>
        <pt x="741" y="30" on="0"/>
        <pt x="794" y="73" on="0"/>
        <pt x="829" y="136" on="0"/>
        <pt x="834" y="178" on="1"/>
        <pt x="854" y="178" on="1"/>
        <pt x="850" y="136" on="0"/>
        <pt x="814" y="66" on="0"/>
        <pt x="757" y="16" on="0"/>
        <pt x="680" y="-12" on="0"/>
        <pt x="635" y="-12" on="1"/>
        <pt x="552" y="-13" on="0"/>
        <pt x="443" y="75" on="0"/>
        <pt x="423" y="155" on="1"/>
        <pt x="421" y="155" on="1"/>
        <pt x="413" y="116" on="0"/>
        <pt x="374" y="54" on="0"/>
        <pt x="316" y="11" on="0"/>
        <pt x="244" y="-12" on="0"/>
        <pt x="204" y="-12" on="1"/>
        <pt x="127" y="-12" on="0"/>
        <pt x="32" y="58" on="0"/>
        <pt x="32" y="127" on="1"/>
        <pt x="32" y="175" on="0"/>
        <pt x="63" y="233" on="0"/>
        <pt x="113" y="266" on="0"/>
        <pt x="177" y="279" on="0"/>
        <pt x="209" y="281" on="1"/>
        <pt x="262" y="284" on="0"/>
        <pt x="338" y="289" on="0"/>
        <pt x="387" y="304" on="0"/>
        <pt x="410" y="335" on="0"/>
        <pt x="410" y="364" on="1"/>
        <pt x="410" y="387" on="0"/>
        <pt x="402" y="437" on="0"/>
        <pt x="371" y="479" on="0"/>
        <pt x="311" y="506" on="0"/>
        <pt x="260" y="506" on="1"/>
        <pt x="179" y="506" on="0"/>
        <pt x="89" y="427" on="0"/>
        <pt x="84" y="355" on="1"/>
      </contour>
      <contour>
        <pt x="410" y="302" on="1"/>
        <pt x="408" y="302" on="1"/>
        <pt x="398" y="287" on="0"/>
        <pt x="356" y="273" on="0"/>
        <pt x="302" y="266" on="0"/>
        <pt x="240" y="263" on="0"/>
        <pt x="209" y="261" on="1"/>
        <pt x="179" y="259" on="0"/>
        <pt x="122" y="247" on="0"/>
        <pt x="78" y="219" on="0"/>
        <pt x="52" y="168" on="0"/>
        <pt x="52" y="127" on="1"/>
        <pt x="52" y="105" on="0"/>
        <pt x="67" y="62" on="0"/>
        <pt x="103" y="29" on="0"/>
        <pt x="160" y="8" on="0"/>
        <pt x="202" y="8" on="1"/>
        <pt x="252" y="8" on="0"/>
        <pt x="330" y="42" on="0"/>
        <pt x="383" y="97" on="0"/>
        <pt x="410" y="169" on="0"/>
        <pt x="410" y="207" on="1"/>
      </contour>
      <contour>
        <pt x="837" y="273" on="1"/>
        <pt x="837" y="321" on="0"/>
        <pt x="812" y="406" on="0"/>
        <pt x="763" y="469" on="0"/>
        <pt x="688" y="506" on="0"/>
        <pt x="637" y="506" on="1"/>
        <pt x="590" y="506" on="0"/>
        <pt x="516" y="473" on="0"/>
        <pt x="464" y="412" on="0"/>
        <pt x="434" y="326" on="0"/>
        <pt x="430" y="273" on="1"/>
      </contour>
    </TTGlyph>
    <TTGlyph name="afii61289" xMin="112" yMin="-14" xMax="387" yMax="721">
      <contour>
        <pt x="286" y="-14" on="1"/>
        <pt x="267" y="-14" on="0"/>
        <pt x="231" y="-3" on="0"/>
        <pt x="202" y="24" on="0"/>
        <pt x="185" y="68" on="0"/>
        <pt x="185" y="101" on="1"/>
        <pt x="185" y="265" on="1"/>
        <pt x="124" y="194" on="1"/>
        <pt x="122" y="194" on="1"/>
        <pt x="112" y="204" on="1"/>
        <pt x="185" y="287" on="1"/>
        <pt x="185" y="561" on="1"/>
        <pt x="185" y="644" on="0"/>
        <pt x="241" y="721" on="0"/>
        <pt x="279" y="721" on="1"/>
        <pt x="314" y="721" on="0"/>
        <pt x="360" y="663" on="0"/>
        <pt x="360" y="608" on="1"/>
        <pt x="360" y="536" on="0"/>
        <pt x="277" y="369" on="0"/>
        <pt x="203" y="281" on="1"/>
        <pt x="203" y="104" on="1"/>
        <pt x="203" y="73" on="0"/>
        <pt x="219" y="34" on="0"/>
        <pt x="244" y="11" on="0"/>
        <pt x="274" y="3" on="0"/>
        <pt x="288" y="3" on="1"/>
        <pt x="310" y="3" on="0"/>
        <pt x="356" y="22" on="0"/>
        <pt x="376" y="43" on="1"/>
        <pt x="378" y="43" on="1"/>
        <pt x="387" y="32" on="1"/>
        <pt x="364" y="9" on="0"/>
        <pt x="312" y="-14" on="0"/>
      </contour>
      <contour>
        <pt x="343" y="605" on="1"/>
        <pt x="343" y="651" on="0"/>
        <pt x="305" y="704" on="0"/>
        <pt x="279" y="704" on="1"/>
        <pt x="265" y="704" on="0"/>
        <pt x="237" y="688" on="0"/>
        <pt x="216" y="654" on="0"/>
        <pt x="203" y="600" on="0"/>
        <pt x="203" y="561" on="1"/>
        <pt x="203" y="303" on="1"/>
        <pt x="268" y="381" on="0"/>
        <pt x="343" y="540" on="0"/>
      </contour>
    </TTGlyph>
    <TTGlyph name="agrave" xMin="22" yMin="-12" xMax="485" yMax="732">
      <component glyphName="a" x="0" y="0" flags="0x204"/>
      <component glyphName="grave" x="142" y="0" flags="0x4"/>
    </TTGlyph>
    <TTGlyph name="amacron" xMin="22" yMin="-12" xMax="485" yMax="660">
      <component glyphName="a" x="0" y="0" flags="0x204"/>
      <component glyphName="macron" x="180" y="0" flags="0x4"/>
    </TTGlyph>
    <TTGlyph name="ampersand" xMin="44" yMin="-17" xMax="572" yMax="714">
      <contour>
        <pt x="572" y="0" on="1"/>
        <pt x="546" y="0" on="1"/>
        <pt x="457" y="113" on="1"/>
        <pt x="427" y="58" on="0"/>
        <pt x="324" y="-17" on="0"/>
        <pt x="248" y="-17" on="1"/>
        <pt x="210" y="-17" on="0"/>
        <pt x="137" y="7" on="0"/>
        <pt x="80" y="53" on="0"/>
        <pt x="44" y="119" on="0"/>
        <pt x="44" y="160" on="1"/>
        <pt x="44" y="203" on="0"/>
        <pt x="80" y="273" on="0"/>
        <pt x="136" y="329" on="0"/>
        <pt x="204" y="374" on="0"/>
        <pt x="236" y="394" on="1"/>
        <pt x="221" y="415" on="0"/>
        <pt x="185" y="459" on="0"/>
        <pt x="152" y="507" on="0"/>
        <pt x="130" y="556" on="0"/>
        <pt x="130" y="581" on="1"/>
        <pt x="130" y="615" on="0"/>
        <pt x="156" y="666" on="0"/>
        <pt x="197" y="698" on="0"/>
        <pt x="249" y="714" on="0"/>
        <pt x="276" y="714" on="1"/>
        <pt x="306" y="714" on="0"/>
        <pt x="359" y="696" on="0"/>
        <pt x="399" y="662" on="0"/>
        <pt x="422" y="612" on="0"/>
        <pt x="422" y="581" on="1"/>
        <pt x="422" y="546" on="0"/>
        <pt x="391" y="490" on="0"/>
        <pt x="345" y="445" on="0"/>
        <pt x="289" y="407" on="0"/>
        <pt x="265" y="389" on="1"/>
        <pt x="453" y="151" on="1"/>
        <pt x="463" y="173" on="0"/>
        <pt x="479" y="237" on="0"/>
        <pt x="477" y="277" on="1"/>
        <pt x="497" y="277" on="1"/>
        <pt x="498" y="232" on="0"/>
        <pt x="482" y="167" on="0"/>
        <pt x="467" y="133" on="1"/>
      </contour>
      <contour>
        <pt x="248" y="378" on="1"/>
        <pt x="218" y="359" on="0"/>
        <pt x="153" y="317" on="0"/>
        <pt x="99" y="266" on="0"/>
        <pt x="64" y="202" on="0"/>
        <pt x="64" y="160" on="1"/>
        <pt x="64" y="122" on="0"/>
        <pt x="96" y="63" on="0"/>
        <pt x="147" y="23" on="0"/>
        <pt x="213" y="3" on="0"/>
        <pt x="248" y="3" on="1"/>
        <pt x="320" y="3" on="0"/>
        <pt x="416" y="75" on="0"/>
        <pt x="444" y="132" on="1"/>
      </contour>
      <contour>
        <pt x="150" y="583" on="1"/>
        <pt x="150" y="566" on="0"/>
        <pt x="162" y="532" on="0"/>
        <pt x="187" y="491" on="0"/>
        <pt x="226" y="439" on="0"/>
        <pt x="253" y="404" on="1"/>
        <pt x="274" y="419" on="0"/>
        <pt x="326" y="454" on="0"/>
        <pt x="371" y="498" on="0"/>
        <pt x="402" y="550" on="0"/>
        <pt x="402" y="581" on="1"/>
        <pt x="402" y="607" on="0"/>
        <pt x="381" y="649" on="0"/>
        <pt x="347" y="678" on="0"/>
        <pt x="302" y="694" on="0"/>
        <pt x="277" y="694" on="1"/>
        <pt x="251" y="694" on="0"/>
        <pt x="205" y="679" on="0"/>
        <pt x="170" y="650" on="0"/>
        <pt x="150" y="609" on="0"/>
      </contour>
    </TTGlyph>
    <TTGlyph name="aogonek" xMin="22" yMin="-188" xMax="485" yMax="526">
      <contour>
        <pt x="54" y="355" on="1"/>
        <pt x="56" y="391" on="0"/>
        <pt x="82" y="454" on="0"/>
        <pt x="131" y="500" on="0"/>
        <pt x="202" y="526" on="0"/>
        <pt x="250" y="526" on="1"/>
        <pt x="284" y="526" on="0"/>
        <pt x="345" y="512" on="0"/>
        <pt x="391" y="477" on="0"/>
        <pt x="419" y="421" on="0"/>
        <pt x="420" y="379" on="1"/>
        <pt x="420" y="52" on="1"/>
        <pt x="420" y="37" on="0"/>
        <pt x="432" y="23" on="0"/>
        <pt x="452" y="18" on="0"/>
        <pt x="474" y="19" on="0"/>
        <pt x="485" y="20" on="1"/>
        <pt x="485" y="0" on="1"/>
        <pt x="470" y="-1" on="0"/>
        <pt x="455" y="-1" on="1"/>
        <pt x="448" y="-1" on="0"/>
        <pt x="442" y="0" on="1"/>
        <pt x="386" y="-44" on="0"/>
        <pt x="342" y="-98" on="0"/>
        <pt x="342" y="-123" on="1"/>
        <pt x="342" y="-142" on="0"/>
        <pt x="369" y="-168" on="0"/>
        <pt x="393" y="-168" on="1"/>
        <pt x="421" y="-168" on="0"/>
        <pt x="458" y="-147" on="0"/>
        <pt x="468" y="-136" on="1"/>
        <pt x="485" y="-148" on="1"/>
        <pt x="464" y="-170" on="0"/>
        <pt x="421" y="-188" on="0"/>
        <pt x="393" y="-188" on="1"/>
        <pt x="356" y="-188" on="0"/>
        <pt x="318" y="-152" on="0"/>
        <pt x="318" y="-125" on="1"/>
        <pt x="318" y="-106" on="0"/>
        <pt x="336" y="-71" on="0"/>
        <pt x="363" y="-41" on="0"/>
        <pt x="380" y="-26" on="1"/>
        <pt x="396" y="-12" on="0"/>
        <pt x="423" y="6" on="1"/>
        <pt x="414" y="11" on="0"/>
        <pt x="408" y="19" on="1"/>
        <pt x="400" y="30" on="0"/>
        <pt x="400" y="50" on="1"/>
        <pt x="400" y="117" on="1"/>
        <pt x="398" y="117" on="1"/>
        <pt x="390" y="92" on="0"/>
        <pt x="355" y="46" on="0"/>
        <pt x="302" y="10" on="0"/>
        <pt x="234" y="-12" on="0"/>
        <pt x="194" y="-12" on="1"/>
        <pt x="117" y="-12" on="0"/>
        <pt x="22" y="58" on="0"/>
        <pt x="22" y="127" on="1"/>
        <pt x="22" y="175" on="0"/>
        <pt x="53" y="233" on="0"/>
        <pt x="103" y="266" on="0"/>
        <pt x="167" y="279" on="0"/>
        <pt x="199" y="281" on="1"/>
        <pt x="252" y="284" on="0"/>
        <pt x="328" y="289" on="0"/>
        <pt x="377" y="304" on="0"/>
        <pt x="400" y="335" on="0"/>
        <pt x="400" y="364" on="1"/>
        <pt x="400" y="387" on="0"/>
        <pt x="392" y="437" on="0"/>
        <pt x="361" y="479" on="0"/>
        <pt x="301" y="506" on="0"/>
        <pt x="250" y="506" on="1"/>
        <pt x="169" y="506" on="0"/>
        <pt x="79" y="427" on="0"/>
        <pt x="74" y="355" on="1"/>
      </contour>
      <contour>
        <pt x="400" y="302" on="1"/>
        <pt x="398" y="302" on="1"/>
        <pt x="388" y="287" on="0"/>
        <pt x="346" y="273" on="0"/>
        <pt x="292" y="266" on="0"/>
        <pt x="230" y="263" on="0"/>
        <pt x="199" y="261" on="1"/>
        <pt x="169" y="259" on="0"/>
        <pt x="112" y="247" on="0"/>
        <pt x="68" y="219" on="0"/>
        <pt x="42" y="168" on="0"/>
        <pt x="42" y="127" on="1"/>
        <pt x="42" y="105" on="0"/>
        <pt x="57" y="62" on="0"/>
        <pt x="93" y="29" on="0"/>
        <pt x="150" y="8" on="0"/>
        <pt x="192" y="8" on="1"/>
        <pt x="242" y="8" on="0"/>
        <pt x="320" y="42" on="0"/>
        <pt x="373" y="97" on="0"/>
        <pt x="400" y="169" on="0"/>
        <pt x="400" y="207" on="1"/>
      </contour>
    </TTGlyph>
    <TTGlyph name="approxequal" xMin="28" yMin="103" xMax="538" yMax="386">
      <contour>
        <pt x="538" y="210" on="1"/>
        <pt x="529" y="181" on="0"/>
        <pt x="497" y="134" on="0"/>
        <pt x="460" y="116" on="0"/>
        <pt x="431" y="107" on="0"/>
        <pt x="423" y="109" on="1"/>
        <pt x="388" y="107" on="0"/>
        <pt x="319" y="135" on="0"/>
        <pt x="284" y="146" on="1"/>
        <pt x="273" y="150" on="0"/>
        <pt x="236" y="163" on="0"/>
        <pt x="195" y="176" on="0"/>
        <pt x="155" y="186" on="0"/>
        <pt x="142" y="186" on="1"/>
        <pt x="125" y="186" on="0"/>
        <pt x="94" y="171" on="0"/>
        <pt x="70" y="148" on="0"/>
        <pt x="52" y="118" on="0"/>
        <pt x="47" y="103" on="1"/>
        <pt x="29" y="103" on="1"/>
        <pt x="38" y="132" on="0"/>
        <pt x="70" y="179" on="0"/>
        <pt x="106" y="199" on="0"/>
        <pt x="135" y="206" on="0"/>
        <pt x="143" y="204" on="1"/>
        <pt x="167" y="203" on="0"/>
        <pt x="215" y="188" on="0"/>
        <pt x="239" y="181" on="1"/>
        <pt x="253" y="177" on="0"/>
        <pt x="302" y="159" on="0"/>
        <pt x="355" y="141" on="0"/>
        <pt x="406" y="127" on="0"/>
        <pt x="423" y="127" on="1"/>
        <pt x="441" y="127" on="0"/>
        <pt x="472" y="141" on="0"/>
        <pt x="497" y="164" on="0"/>
        <pt x="515" y="194" on="0"/>
        <pt x="520" y="210" on="1"/>
      </contour>
      <contour>
        <pt x="536" y="386" on="1"/>
        <pt x="527" y="357" on="0"/>
        <pt x="496" y="310" on="0"/>
        <pt x="459" y="292" on="0"/>
        <pt x="430" y="283" on="0"/>
        <pt x="422" y="285" on="1"/>
        <pt x="386" y="283" on="0"/>
        <pt x="317" y="311" on="0"/>
        <pt x="282" y="322" on="1"/>
        <pt x="272" y="325" on="0"/>
        <pt x="234" y="339" on="0"/>
        <pt x="192" y="352" on="0"/>
        <pt x="152" y="362" on="0"/>
        <pt x="140" y="362" on="1"/>
        <pt x="122" y="362" on="0"/>
        <pt x="92" y="348" on="0"/>
        <pt x="68" y="324" on="0"/>
        <pt x="51" y="294" on="0"/>
        <pt x="46" y="279" on="1"/>
        <pt x="28" y="279" on="1"/>
        <pt x="34" y="298" on="0"/>
        <pt x="54" y="334" on="0"/>
        <pt x="83" y="363" on="0"/>
        <pt x="119" y="380" on="0"/>
        <pt x="141" y="380" on="1"/>
        <pt x="151" y="380" on="0"/>
        <pt x="175" y="374" on="0"/>
        <pt x="180" y="372" on="0"/>
        <pt x="255" y="350" on="0"/>
        <pt x="293" y="337" on="1"/>
        <pt x="304" y="333" on="0"/>
        <pt x="337" y="321" on="0"/>
        <pt x="374" y="310" on="0"/>
        <pt x="409" y="302" on="0"/>
        <pt x="421" y="302" on="1"/>
        <pt x="439" y="302" on="0"/>
        <pt x="470" y="316" on="0"/>
        <pt x="495" y="340" on="0"/>
        <pt x="513" y="370" on="0"/>
        <pt x="518" y="386" on="1"/>
      </contour>
    </TTGlyph>
    <TTGlyph name="aring" xMin="22" yMin="-12" xMax="485" yMax="758">
      <component glyphName="a" x="0" y="0" flags="0x204"/>
      <component glyphName="ring" x="174" y="0" flags="0x4"/>
    </TTGlyph>
    <TTGlyph name="asciicircum" xMin="59" yMin="227" xMax="541" yMax="680">
      <contour>
        <pt x="541" y="227" on="1"/>
        <pt x="521" y="227" on="1"/>
        <pt x="300" y="660" on="1"/>
        <pt x="79" y="227" on="1"/>
        <pt x="59" y="227" on="1"/>
        <pt x="290" y="680" on="1"/>
        <pt x="310" y="680" on="1"/>
      </contour>
    </TTGlyph>
    <TTGlyph name="asciitilde" xMin="77" yMin="205" xMax="523" yMax="301">
      <contour>
        <pt x="523" y="295" on="1"/>
        <pt x="513" y="279" on="0"/>
        <pt x="491" y="248" on="0"/>
        <pt x="465" y="224" on="0"/>
        <pt x="433" y="209" on="0"/>
        <pt x="414" y="209" on="1"/>
        <pt x="389" y="209" on="0"/>
        <pt x="343" y="230" on="0"/>
        <pt x="317" y="241" on="1"/>
        <pt x="291" y="253" on="0"/>
        <pt x="234" y="278" on="0"/>
        <pt x="195" y="278" on="1"/>
        <pt x="161" y="278" on="0"/>
        <pt x="115" y="237" on="0"/>
        <pt x="97" y="205" on="1"/>
        <pt x="77" y="211" on="1"/>
        <pt x="96" y="246" on="0"/>
        <pt x="153" y="298" on="0"/>
        <pt x="195" y="298" on="1"/>
        <pt x="222" y="300" on="0"/>
        <pt x="283" y="278" on="0"/>
        <pt x="312" y="264" on="1"/>
        <pt x="342" y="251" on="0"/>
        <pt x="395" y="229" on="0"/>
        <pt x="415" y="229" on="1"/>
        <pt x="430" y="229" on="0"/>
        <pt x="455" y="242" on="0"/>
        <pt x="476" y="262" on="0"/>
        <pt x="494" y="288" on="0"/>
        <pt x="503" y="301" on="1"/>
      </contour>
    </TTGlyph>
    <TTGlyph name="asterisk" xMin="32" yMin="434" xMax="320" yMax="714">
      <contour>
        <pt x="184" y="714" on="1"/>
        <pt x="184" y="574" on="1"/>
        <pt x="316" y="617" on="1"/>
        <pt x="320" y="598" on="1"/>
        <pt x="190" y="555" on="1"/>
        <pt x="273" y="446" on="1"/>
        <pt x="257" y="434" on="1"/>
        <pt x="174" y="542" on="1"/>
        <pt x="90" y="438" on="1"/>
        <pt x="74" y="451" on="1"/>
        <pt x="162" y="555" on="1"/>
        <pt x="32" y="598" on="1"/>
        <pt x="38" y="617" on="1"/>
        <pt x="164" y="574" on="1"/>
        <pt x="164" y="714" on="1"/>
      </contour>
    </TTGlyph>
    <TTGlyph name="at" xMin="57" yMin="-12" xMax="743" yMax="712">
      <contour>
        <pt x="594" y="547" on="1"/>
        <pt x="615" y="547" on="1"/>
        <pt x="504" y="259" on="1"/>
        <pt x="495" y="237" on="0"/>
        <pt x="486" y="198" on="0"/>
        <pt x="489" y="169" on="0"/>
        <pt x="509" y="152" on="0"/>
        <pt x="529" y="152" on="1"/>
        <pt x="560" y="152" on="0"/>
        <pt x="628" y="192" on="0"/>
        <pt x="685" y="261" on="0"/>
        <pt x="723" y="356" on="0"/>
        <pt x="723" y="411" on="1"/>
        <pt x="723" y="473" on="0"/>
        <pt x="677" y="577" on="0"/>
        <pt x="596" y="651" on="0"/>
        <pt x="484" y="692" on="0"/>
        <pt x="419" y="692" on="1"/>
        <pt x="346" y="692" on="0"/>
        <pt x="221" y="639" on="0"/>
        <pt x="129" y="547" on="0"/>
        <pt x="77" y="423" on="0"/>
        <pt x="77" y="353" on="1"/>
        <pt x="77" y="268" on="0"/>
        <pt x="132" y="139" on="0"/>
        <pt x="226" y="52" on="0"/>
        <pt x="350" y="8" on="0"/>
        <pt x="419" y="8" on="1"/>
        <pt x="465" y="8" on="0"/>
        <pt x="549" y="32" on="0"/>
        <pt x="624" y="75" on="0"/>
        <pt x="686" y="133" on="0"/>
        <pt x="709" y="166" on="1"/>
        <pt x="732" y="166" on="1"/>
        <pt x="708" y="126" on="0"/>
        <pt x="638" y="60" on="0"/>
        <pt x="556" y="14" on="0"/>
        <pt x="465" y="-12" on="0"/>
        <pt x="419" y="-12" on="1"/>
        <pt x="352" y="-12" on="0"/>
        <pt x="222" y="31" on="0"/>
        <pt x="120" y="120" on="0"/>
        <pt x="57" y="258" on="0"/>
        <pt x="57" y="353" on="1"/>
        <pt x="57" y="431" on="0"/>
        <pt x="114" y="562" on="0"/>
        <pt x="213" y="658" on="0"/>
        <pt x="345" y="712" on="0"/>
        <pt x="419" y="712" on="1"/>
        <pt x="486" y="712" on="0"/>
        <pt x="604" y="670" on="0"/>
        <pt x="692" y="592" on="0"/>
        <pt x="743" y="480" on="0"/>
        <pt x="743" y="411" on="1"/>
        <pt x="743" y="353" on="0"/>
        <pt x="703" y="252" on="0"/>
        <pt x="640" y="176" on="0"/>
        <pt x="563" y="132" on="0"/>
        <pt x="527" y="132" on="1"/>
        <pt x="498" y="132" on="0"/>
        <pt x="463" y="167" on="0"/>
        <pt x="468" y="195" on="1"/>
        <pt x="466" y="195" on="1"/>
        <pt x="438" y="157" on="0"/>
        <pt x="365" y="132" on="0"/>
        <pt x="330" y="132" on="1"/>
        <pt x="301" y="132" on="0"/>
        <pt x="251" y="155" on="0"/>
        <pt x="215" y="194" on="0"/>
        <pt x="194" y="247" on="0"/>
        <pt x="194" y="277" on="1"/>
        <pt x="194" y="323" on="0"/>
        <pt x="228" y="425" on="0"/>
        <pt x="290" y="511" on="0"/>
        <pt x="378" y="566" on="0"/>
        <pt x="431" y="566" on="1"/>
        <pt x="478" y="566" on="0"/>
        <pt x="555" y="521" on="0"/>
        <pt x="568" y="481" on="1"/>
        <pt x="570" y="481" on="1"/>
      </contour>
      <contour>
        <pt x="559" y="456" on="1"/>
        <pt x="552" y="482" on="0"/>
        <pt x="523" y="516" on="0"/>
        <pt x="487" y="537" on="0"/>
        <pt x="446" y="546" on="0"/>
        <pt x="427" y="546" on="1"/>
        <pt x="380" y="546" on="0"/>
        <pt x="301" y="493" on="0"/>
        <pt x="245" y="413" on="0"/>
        <pt x="214" y="319" on="0"/>
        <pt x="214" y="277" on="1"/>
        <pt x="214" y="250" on="0"/>
        <pt x="232" y="205" on="0"/>
        <pt x="264" y="171" on="0"/>
        <pt x="308" y="152" on="0"/>
        <pt x="334" y="152" on="1"/>
        <pt x="354" y="152" on="0"/>
        <pt x="397" y="162" on="0"/>
        <pt x="437" y="189" on="0"/>
        <pt x="474" y="236" on="0"/>
        <pt x="488" y="272" on="1"/>
      </contour>
    </TTGlyph>
    <TTGlyph name="atilde" xMin="22" yMin="-12" xMax="485" yMax="694">
      <component glyphName="a" x="0" y="0" flags="0x204"/>
      <component glyphName="tilde" x="174" y="0" flags="0x4"/>
    </TTGlyph>
    <TTGlyph name="b" xMin="55" yMin="-12" xMax="502" yMax="714">
      <contour>
        <pt x="75" y="370" on="1"/>
        <pt x="77" y="370" on="1"/>
        <pt x="95" y="440" on="0"/>
        <pt x="201" y="526" on="0"/>
        <pt x="283" y="526" on="1"/>
        <pt x="336" y="526" on="0"/>
        <pt x="418" y="482" on="0"/>
        <pt x="473" y="408" on="0"/>
        <pt x="502" y="310" on="0"/>
        <pt x="502" y="256" on="1"/>
        <pt x="502" y="198" on="0"/>
        <pt x="472" y="100" on="0"/>
        <pt x="415" y="28" on="0"/>
        <pt x="334" y="-12" on="0"/>
        <pt x="283" y="-12" on="1"/>
        <pt x="244" y="-12" on="0"/>
        <pt x="177" y="11" on="0"/>
        <pt x="124" y="53" on="0"/>
        <pt x="87" y="110" on="0"/>
        <pt x="77" y="144" on="1"/>
        <pt x="75" y="144" on="1"/>
        <pt x="75" y="0" on="1"/>
        <pt x="55" y="0" on="1"/>
        <pt x="55" y="714" on="1"/>
        <pt x="75" y="714" on="1"/>
      </contour>
      <contour>
        <pt x="75" y="256" on="1"/>
        <pt x="75" y="206" on="0"/>
        <pt x="103" y="116" on="0"/>
        <pt x="156" y="48" on="0"/>
        <pt x="233" y="8" on="0"/>
        <pt x="283" y="8" on="1"/>
        <pt x="333" y="8" on="0"/>
        <pt x="408" y="48" on="0"/>
        <pt x="457" y="117" on="0"/>
        <pt x="482" y="206" on="0"/>
        <pt x="482" y="256" on="1"/>
        <pt x="482" y="301" on="0"/>
        <pt x="459" y="390" on="0"/>
        <pt x="411" y="461" on="0"/>
        <pt x="336" y="506" on="0"/>
        <pt x="283" y="506" on="1"/>
        <pt x="236" y="506" on="0"/>
        <pt x="159" y="473" on="0"/>
        <pt x="105" y="409" on="0"/>
        <pt x="75" y="316" on="0"/>
      </contour>
    </TTGlyph>
    <TTGlyph name="backslash" xMin="-7" yMin="-17" xMax="340" yMax="731">
      <contour>
        <pt x="320" y="-17" on="1"/>
        <pt x="-7" y="731" on="1"/>
        <pt x="13" y="731" on="1"/>
        <pt x="340" y="-17" on="1"/>
      </contour>
    </TTGlyph>
    <TTGlyph name="bar" xMin="101" yMin="-214" xMax="121" yMax="786">
      <contour>
        <pt x="101" y="-214" on="1"/>
        <pt x="101" y="786" on="1"/>
        <pt x="121" y="786" on="1"/>
        <pt x="121" y="-214" on="1"/>
      </contour>
    </TTGlyph>
    <TTGlyph name="braceleft" xMin="85" yMin="-177" xMax="280" yMax="731">
      <contour>
        <pt x="230" y="-177" on="1"/>
        <pt x="188" y="-177" on="0"/>
        <pt x="157" y="-123" on="0"/>
        <pt x="157" y="-66" on="1"/>
        <pt x="157" y="97" on="1"/>
        <pt x="157" y="158" on="0"/>
        <pt x="129" y="241" on="0"/>
        <pt x="85" y="270" on="1"/>
        <pt x="85" y="290" on="1"/>
        <pt x="101" y="293" on="0"/>
        <pt x="128" y="323" on="0"/>
        <pt x="147" y="369" on="0"/>
        <pt x="157" y="427" on="0"/>
        <pt x="157" y="457" on="1"/>
        <pt x="157" y="622" on="1"/>
        <pt x="157" y="679" on="0"/>
        <pt x="188" y="731" on="0"/>
        <pt x="230" y="731" on="1"/>
        <pt x="280" y="731" on="1"/>
        <pt x="280" y="711" on="1"/>
        <pt x="232" y="711" on="1"/>
        <pt x="202" y="711" on="0"/>
        <pt x="177" y="666" on="0"/>
        <pt x="177" y="604" on="1"/>
        <pt x="177" y="440" on="1"/>
        <pt x="177" y="418" on="0"/>
        <pt x="169" y="368" on="0"/>
        <pt x="151" y="322" on="0"/>
        <pt x="124" y="286" on="0"/>
        <pt x="105" y="278" on="1"/>
        <pt x="138" y="262" on="0"/>
        <pt x="177" y="171" on="0"/>
        <pt x="177" y="114" on="1"/>
        <pt x="177" y="-48" on="1"/>
        <pt x="177" y="-81" on="0"/>
        <pt x="183" y="-124" on="0"/>
        <pt x="197" y="-148" on="0"/>
        <pt x="218" y="-157" on="0"/>
        <pt x="232" y="-157" on="1"/>
        <pt x="280" y="-157" on="1"/>
        <pt x="280" y="-177" on="1"/>
      </contour>
    </TTGlyph>
    <TTGlyph name="braceright" xMin="53" yMin="-177" xMax="248" yMax="731">
      <contour>
        <pt x="103" y="731" on="1"/>
        <pt x="145" y="731" on="0"/>
        <pt x="176" y="677" on="0"/>
        <pt x="176" y="620" on="1"/>
        <pt x="176" y="457" on="1"/>
        <pt x="176" y="396" on="0"/>
        <pt x="204" y="312" on="0"/>
        <pt x="248" y="284" on="1"/>
        <pt x="248" y="264" on="1"/>
        <pt x="232" y="261" on="0"/>
        <pt x="205" y="231" on="0"/>
        <pt x="186" y="185" on="0"/>
        <pt x="176" y="127" on="0"/>
        <pt x="176" y="97" on="1"/>
        <pt x="176" y="-68" on="1"/>
        <pt x="176" y="-125" on="0"/>
        <pt x="145" y="-177" on="0"/>
        <pt x="103" y="-177" on="1"/>
        <pt x="53" y="-177" on="1"/>
        <pt x="53" y="-157" on="1"/>
        <pt x="101" y="-157" on="1"/>
        <pt x="131" y="-157" on="0"/>
        <pt x="156" y="-112" on="0"/>
        <pt x="156" y="-50" on="1"/>
        <pt x="156" y="114" on="1"/>
        <pt x="156" y="136" on="0"/>
        <pt x="164" y="186" on="0"/>
        <pt x="182" y="232" on="0"/>
        <pt x="209" y="268" on="0"/>
        <pt x="228" y="276" on="1"/>
        <pt x="195" y="292" on="0"/>
        <pt x="156" y="383" on="0"/>
        <pt x="156" y="440" on="1"/>
        <pt x="156" y="602" on="1"/>
        <pt x="156" y="635" on="0"/>
        <pt x="149" y="678" on="0"/>
        <pt x="136" y="702" on="0"/>
        <pt x="115" y="711" on="0"/>
        <pt x="101" y="711" on="1"/>
        <pt x="53" y="711" on="1"/>
        <pt x="53" y="731" on="1"/>
      </contour>
    </TTGlyph>
    <TTGlyph name="bracketleft" xMin="96" yMin="-177" xMax="209" yMax="731">
      <contour>
        <pt x="209" y="731" on="1"/>
        <pt x="209" y="711" on="1"/>
        <pt x="116" y="711" on="1"/>
        <pt x="116" y="-157" on="1"/>
        <pt x="209" y="-157" on="1"/>
        <pt x="209" y="-177" on="1"/>
        <pt x="96" y="-177" on="1"/>
        <pt x="96" y="731" on="1"/>
      </contour>
    </TTGlyph>
    <TTGlyph name="bracketright" xMin="13" yMin="-177" xMax="126" yMax="731">
      <contour>
        <pt x="13" y="-177" on="1"/>
        <pt x="13" y="-157" on="1"/>
        <pt x="106" y="-157" on="1"/>
        <pt x="106" y="711" on="1"/>
        <pt x="13" y="711" on="1"/>
        <pt x="13" y="731" on="1"/>
        <pt x="126" y="731" on="1"/>
        <pt x="126" y="-177" on="1"/>
      </contour>
    </TTGlyph>
    <TTGlyph name="breve" xMin="-58" yMin="607" xMax="188" yMax="714">
      <contour>
        <pt x="-38" y="714" on="1"/>
        <pt x="-33" y="675" on="0"/>
        <pt x="22" y="627" on="0"/>
        <pt x="62" y="627" on="1"/>
        <pt x="105" y="627" on="0"/>
        <pt x="163" y="669" on="0"/>
        <pt x="168" y="714" on="1"/>
        <pt x="188" y="714" on="1"/>
        <pt x="182" y="663" on="0"/>
        <pt x="113" y="607" on="0"/>
        <pt x="62" y="607" on="1"/>
        <pt x="13" y="607" on="0"/>
        <pt x="-52" y="666" on="0"/>
        <pt x="-58" y="714" on="1"/>
      </contour>
    </TTGlyph>
    <TTGlyph name="breve.cap" xMin="-58" yMin="797" xMax="188" yMax="904">
      <contour>
        <pt x="-38" y="904" on="1"/>
        <pt x="-33" y="865" on="0"/>
        <pt x="22" y="817" on="0"/>
        <pt x="62" y="817" on="1"/>
        <pt x="105" y="817" on="0"/>
        <pt x="163" y="859" on="0"/>
        <pt x="168" y="904" on="1"/>
        <pt x="188" y="904" on="1"/>
        <pt x="182" y="853" on="0"/>
        <pt x="113" y="797" on="0"/>
        <pt x="62" y="797" on="1"/>
        <pt x="13" y="797" on="0"/>
        <pt x="-52" y="856" on="0"/>
        <pt x="-58" y="904" on="1"/>
      </contour>
    </TTGlyph>
    <TTGlyph name="brokenbar" xMin="101" yMin="-89" xMax="121" yMax="661">
      <contour>
        <pt x="121" y="661" on="1"/>
        <pt x="121" y="411" on="1"/>
        <pt x="101" y="411" on="1"/>
        <pt x="101" y="661" on="1"/>
      </contour>
      <contour>
        <pt x="121" y="-89" on="1"/>
        <pt x="101" y="-89" on="1"/>
        <pt x="101" y="161" on="1"/>
        <pt x="121" y="161" on="1"/>
      </contour>
    </TTGlyph>
    <TTGlyph name="bullet" xMin="72" yMin="178" xMax="429" yMax="535">
      <contour>
        <pt x="72" y="357" on="1"/>
        <pt x="72" y="394" on="0"/>
        <pt x="100" y="459" on="0"/>
        <pt x="148" y="507" on="0"/>
        <pt x="213" y="535" on="0"/>
        <pt x="250" y="535" on="1"/>
        <pt x="287" y="535" on="0"/>
        <pt x="352" y="507" on="0"/>
        <pt x="401" y="459" on="0"/>
        <pt x="429" y="394" on="0"/>
        <pt x="429" y="357" on="1"/>
        <pt x="429" y="320" on="0"/>
        <pt x="401" y="255" on="0"/>
        <pt x="352" y="206" on="0"/>
        <pt x="287" y="178" on="0"/>
        <pt x="250" y="178" on="1"/>
        <pt x="213" y="178" on="0"/>
        <pt x="148" y="206" on="0"/>
        <pt x="100" y="255" on="0"/>
        <pt x="72" y="320" on="0"/>
      </contour>
    </TTGlyph>
    <TTGlyph name="c" xMin="31" yMin="-12" xMax="469" yMax="526">
      <contour>
        <pt x="469" y="175" on="1"/>
        <pt x="465" y="132" on="0"/>
        <pt x="431" y="63" on="0"/>
        <pt x="376" y="14" on="0"/>
        <pt x="302" y="-12" on="0"/>
        <pt x="259" y="-12" on="1"/>
        <pt x="204" y="-12" on="0"/>
        <pt x="119" y="29" on="0"/>
        <pt x="61" y="100" on="0"/>
        <pt x="31" y="193" on="0"/>
        <pt x="31" y="246" on="1"/>
        <pt x="31" y="302" on="0"/>
        <pt x="60" y="403" on="0"/>
        <pt x="119" y="480" on="0"/>
        <pt x="209" y="526" on="0"/>
        <pt x="271" y="526" on="1"/>
        <pt x="307" y="526" on="0"/>
        <pt x="373" y="504" on="0"/>
        <pt x="425" y="462" on="0"/>
        <pt x="460" y="399" on="0"/>
        <pt x="465" y="358" on="1"/>
        <pt x="445" y="358" on="1"/>
        <pt x="439" y="395" on="0"/>
        <pt x="407" y="451" on="0"/>
        <pt x="361" y="488" on="0"/>
        <pt x="303" y="506" on="0"/>
        <pt x="271" y="506" on="1"/>
        <pt x="209" y="506" on="0"/>
        <pt x="125" y="459" on="0"/>
        <pt x="74" y="384" on="0"/>
        <pt x="51" y="291" on="0"/>
        <pt x="51" y="246" on="1"/>
        <pt x="51" y="199" on="0"/>
        <pt x="78" y="113" on="0"/>
        <pt x="130" y="47" on="0"/>
        <pt x="208" y="8" on="0"/>
        <pt x="259" y="8" on="1"/>
        <pt x="297" y="8" on="0"/>
        <pt x="363" y="31" on="0"/>
        <pt x="414" y="75" on="0"/>
        <pt x="446" y="136" on="0"/>
        <pt x="449" y="175" on="1"/>
      </contour>
    </TTGlyph>
    <TTGlyph name="cacute" xMin="31" yMin="-12" xMax="469" yMax="732">
      <component glyphName="c" x="0" y="0" flags="0x204"/>
      <component glyphName="acute" x="238" y="0" flags="0x4"/>
    </TTGlyph>
    <TTGlyph name="caron" xMin="-56" yMin="591" xMax="186" yMax="730">
      <contour>
        <pt x="-36" y="730" on="1"/>
        <pt x="67" y="607" on="1"/>
        <pt x="166" y="730" on="1"/>
        <pt x="186" y="730" on="1"/>
        <pt x="73" y="591" on="1"/>
        <pt x="58" y="591" on="1"/>
        <pt x="-56" y="730" on="1"/>
      </contour>
    </TTGlyph>
    <TTGlyph name="caron.alt" xMin="50" yMin="570" xMax="130" yMax="714">
      <contour>
        <pt x="130" y="714" on="1"/>
        <pt x="65" y="570" on="1"/>
        <pt x="50" y="570" on="1"/>
        <pt x="101" y="714" on="1"/>
      </contour>
    </TTGlyph>
    <TTGlyph name="caron.cap" xMin="-56" yMin="778" xMax="186" yMax="917">
      <contour>
        <pt x="-36" y="917" on="1"/>
        <pt x="67" y="794" on="1"/>
        <pt x="166" y="917" on="1"/>
        <pt x="186" y="917" on="1"/>
        <pt x="73" y="778" on="1"/>
        <pt x="58" y="778" on="1"/>
        <pt x="-56" y="917" on="1"/>
      </contour>
    </TTGlyph>
    <TTGlyph name="carontwo" xMin="50" yMin="570" xMax="130" yMax="714">
      <contour>
        <pt x="130" y="714" on="1"/>
        <pt x="65" y="570" on="1"/>
        <pt x="50" y="570" on="1"/>
        <pt x="101" y="714" on="1"/>
      </contour>
    </TTGlyph>
    <TTGlyph name="ccaron" xMin="31" yMin="-12" xMax="469" yMax="730">
      <component glyphName="c" x="0" y="0" flags="0x204"/>
      <component glyphName="caron" x="193" y="0" flags="0x4"/>
    </TTGlyph>
    <TTGlyph name="ccedilla" xMin="31" yMin="-188" xMax="469" yMax="526">
      <contour>
        <pt x="179" y="-151" on="1"/>
        <pt x="196" y="-159" on="0"/>
        <pt x="230" y="-168" on="0"/>
        <pt x="250" y="-168" on="1"/>
        <pt x="264" y="-168" on="0"/>
        <pt x="292" y="-160" on="0"/>
        <pt x="311" y="-144" on="0"/>
        <pt x="320" y="-125" on="0"/>
        <pt x="320" y="-113" on="1"/>
        <pt x="320" y="-100" on="0"/>
        <pt x="310" y="-84" on="0"/>
        <pt x="295" y="-74" on="0"/>
        <pt x="274" y="-70" on="0"/>
        <pt x="267" y="-70" on="1"/>
        <pt x="235" y="-70" on="0"/>
        <pt x="213" y="-83" on="1"/>
        <pt x="198" y="-73" on="1"/>
        <pt x="249" y="-12" on="1"/>
        <pt x="200" y="-10" on="0"/>
        <pt x="161" y="8" on="1"/>
        <pt x="119" y="29" on="0"/>
        <pt x="61" y="100" on="0"/>
        <pt x="31" y="193" on="0"/>
        <pt x="31" y="246" on="1"/>
        <pt x="31" y="302" on="0"/>
        <pt x="60" y="403" on="0"/>
        <pt x="119" y="480" on="0"/>
        <pt x="209" y="526" on="0"/>
        <pt x="271" y="526" on="1"/>
        <pt x="307" y="526" on="0"/>
        <pt x="373" y="504" on="0"/>
        <pt x="425" y="462" on="0"/>
        <pt x="460" y="399" on="0"/>
        <pt x="465" y="358" on="1"/>
        <pt x="445" y="358" on="1"/>
        <pt x="439" y="395" on="0"/>
        <pt x="407" y="451" on="0"/>
        <pt x="361" y="488" on="0"/>
        <pt x="303" y="506" on="0"/>
        <pt x="271" y="506" on="1"/>
        <pt x="209" y="506" on="0"/>
        <pt x="125" y="459" on="0"/>
        <pt x="74" y="384" on="0"/>
        <pt x="51" y="291" on="0"/>
        <pt x="51" y="246" on="1"/>
        <pt x="51" y="199" on="0"/>
        <pt x="78" y="113" on="0"/>
        <pt x="130" y="47" on="0"/>
        <pt x="208" y="8" on="0"/>
        <pt x="259" y="8" on="1"/>
        <pt x="297" y="8" on="0"/>
        <pt x="363" y="31" on="0"/>
        <pt x="414" y="75" on="0"/>
        <pt x="446" y="136" on="0"/>
        <pt x="449" y="175" on="1"/>
        <pt x="469" y="175" on="1"/>
        <pt x="465" y="132" on="0"/>
        <pt x="431" y="63" on="0"/>
        <pt x="376" y="14" on="0"/>
        <pt x="339" y="1" on="1"/>
        <pt x="307" y="-10" on="0"/>
        <pt x="270" y="-12" on="1"/>
        <pt x="234" y="-56" on="1"/>
        <pt x="241" y="-53" on="0"/>
        <pt x="256" y="-50" on="0"/>
        <pt x="267" y="-50" on="1"/>
        <pt x="300" y="-50" on="0"/>
        <pt x="342" y="-79" on="0"/>
        <pt x="343" y="-110" on="1"/>
        <pt x="343" y="-125" on="0"/>
        <pt x="329" y="-157" on="0"/>
        <pt x="304" y="-177" on="0"/>
        <pt x="269" y="-188" on="0"/>
        <pt x="250" y="-188" on="1"/>
        <pt x="226" y="-188" on="0"/>
        <pt x="184" y="-177" on="0"/>
        <pt x="170" y="-170" on="1"/>
      </contour>
    </TTGlyph>
    <TTGlyph name="ccircumflex" xMin="31" yMin="-12" xMax="469" yMax="730">
      <component glyphName="c" x="0" y="0" flags="0x204"/>
      <component glyphName="circumflex" x="200" y="0" flags="0x4"/>
    </TTGlyph>
    <TTGlyph name="cdotaccent" xMin="31" yMin="-12" xMax="469" yMax="695">
      <component glyphName="c" x="0" y="0" flags="0x204"/>
      <component glyphName="dotaccent" x="202" y="0" flags="0x4"/>
    </TTGlyph>
    <TTGlyph name="cedilla" xMin="-17" yMin="-188" xMax="156" yMax="0">
      <contour>
        <pt x="-8" y="-151" on="1"/>
        <pt x="9" y="-159" on="0"/>
        <pt x="43" y="-168" on="0"/>
        <pt x="63" y="-168" on="1"/>
        <pt x="77" y="-168" on="0"/>
        <pt x="105" y="-160" on="0"/>
        <pt x="124" y="-144" on="0"/>
        <pt x="133" y="-125" on="0"/>
        <pt x="133" y="-113" on="1"/>
        <pt x="133" y="-100" on="0"/>
        <pt x="123" y="-84" on="0"/>
        <pt x="108" y="-74" on="0"/>
        <pt x="87" y="-70" on="0"/>
        <pt x="80" y="-70" on="1"/>
        <pt x="48" y="-70" on="0"/>
        <pt x="26" y="-83" on="1"/>
        <pt x="11" y="-73" on="1"/>
        <pt x="68" y="0" on="1"/>
        <pt x="88" y="0" on="1"/>
        <pt x="47" y="-56" on="1"/>
        <pt x="54" y="-53" on="0"/>
        <pt x="69" y="-50" on="0"/>
        <pt x="80" y="-50" on="1"/>
        <pt x="113" y="-50" on="0"/>
        <pt x="155" y="-79" on="0"/>
        <pt x="156" y="-110" on="1"/>
        <pt x="156" y="-125" on="0"/>
        <pt x="142" y="-157" on="0"/>
        <pt x="117" y="-177" on="0"/>
        <pt x="82" y="-188" on="0"/>
        <pt x="63" y="-188" on="1"/>
        <pt x="39" y="-188" on="0"/>
        <pt x="-3" y="-177" on="0"/>
        <pt x="-17" y="-170" on="1"/>
      </contour>
    </TTGlyph>
    <TTGlyph name="cent" xMin="59" yMin="-121" xMax="497" yMax="613">
      <contour>
        <pt x="292" y="8" on="1"/>
        <pt x="297" y="8" on="1"/>
        <pt x="334" y="8" on="0"/>
        <pt x="396" y="33" on="0"/>
        <pt x="444" y="78" on="0"/>
        <pt x="473" y="139" on="0"/>
        <pt x="477" y="175" on="1"/>
        <pt x="497" y="175" on="1"/>
        <pt x="486" y="87" on="0"/>
        <pt x="375" y="-11" on="0"/>
        <pt x="292" y="-12" on="1"/>
        <pt x="292" y="-121" on="1"/>
        <pt x="272" y="-121" on="1"/>
        <pt x="272" y="-12" on="1"/>
        <pt x="218" y="-10" on="0"/>
        <pt x="138" y="36" on="0"/>
        <pt x="85" y="111" on="0"/>
        <pt x="59" y="207" on="0"/>
        <pt x="59" y="258" on="1"/>
        <pt x="59" y="307" on="0"/>
        <pt x="86" y="402" on="0"/>
        <pt x="139" y="476" on="0"/>
        <pt x="219" y="523" on="0"/>
        <pt x="272" y="525" on="1"/>
        <pt x="272" y="613" on="1"/>
        <pt x="292" y="613" on="1"/>
        <pt x="292" y="525" on="1"/>
        <pt x="331" y="524" on="0"/>
        <pt x="399" y="502" on="0"/>
        <pt x="453" y="460" on="0"/>
        <pt x="487" y="399" on="0"/>
        <pt x="492" y="358" on="1"/>
        <pt x="472" y="358" on="1"/>
        <pt x="461" y="431" on="0"/>
        <pt x="362" y="503" on="0"/>
        <pt x="292" y="505" on="1"/>
      </contour>
      <contour>
        <pt x="272" y="505" on="1"/>
        <pt x="223" y="503" on="0"/>
        <pt x="150" y="459" on="0"/>
        <pt x="102" y="390" on="0"/>
        <pt x="79" y="303" on="0"/>
        <pt x="79" y="258" on="1"/>
        <pt x="79" y="212" on="0"/>
        <pt x="102" y="124" on="0"/>
        <pt x="150" y="54" on="0"/>
        <pt x="222" y="10" on="0"/>
        <pt x="272" y="8" on="1"/>
      </contour>
    </TTGlyph>
    <TTGlyph name="circumflex" xMin="-56" yMin="591" xMax="186" yMax="730">
      <contour>
        <pt x="166" y="591" on="1"/>
        <pt x="63" y="714" on="1"/>
        <pt x="-36" y="591" on="1"/>
        <pt x="-56" y="591" on="1"/>
        <pt x="57" y="730" on="1"/>
        <pt x="72" y="730" on="1"/>
        <pt x="186" y="591" on="1"/>
      </contour>
    </TTGlyph>
    <TTGlyph name="circumflex.cap" xMin="-56" yMin="778" xMax="186" yMax="917">
      <contour>
        <pt x="166" y="778" on="1"/>
        <pt x="63" y="901" on="1"/>
        <pt x="-36" y="778" on="1"/>
        <pt x="-56" y="778" on="1"/>
        <pt x="57" y="917" on="1"/>
        <pt x="72" y="917" on="1"/>
        <pt x="186" y="778" on="1"/>
      </contour>
    </TTGlyph>
    <TTGlyph name="colon" xMin="129" yMin="0" xMax="149" yMax="514">
      <contour>
        <pt x="129" y="416" on="1"/>
        <pt x="129" y="514" on="1"/>
        <pt x="149" y="514" on="1"/>
        <pt x="149" y="416" on="1"/>
      </contour>
      <contour>
        <pt x="129" y="0" on="1"/>
        <pt x="129" y="98" on="1"/>
        <pt x="149" y="98" on="1"/>
        <pt x="149" y="0" on="1"/>
      </contour>
    </TTGlyph>
    <TTGlyph name="comma" xMin="105" yMin="-119" xMax="149" yMax="98">
      <contour>
        <pt x="149" y="98" on="1"/>
        <pt x="149" y="0" on="1"/>
        <pt x="149" y="-45" on="0"/>
        <pt x="130" y="-102" on="0"/>
        <pt x="105" y="-119" on="1"/>
        <pt x="105" y="-99" on="1"/>
        <pt x="118" y="-86" on="0"/>
        <pt x="129" y="-41" on="0"/>
        <pt x="129" y="0" on="1"/>
        <pt x="129" y="98" on="1"/>
      </contour>
    </TTGlyph>
    <TTGlyph name="commaaccent" xMin="91" yMin="-189" xMax="149" yMax="-50">
      <contour>
        <pt x="149" y="-50" on="1"/>
        <pt x="149" y="-128" on="1"/>
        <pt x="149" y="-154" on="0"/>
        <pt x="122" y="-186" on="0"/>
        <pt x="91" y="-189" on="1"/>
        <pt x="91" y="-173" on="1"/>
        <pt x="115" y="-168" on="0"/>
        <pt x="129" y="-141" on="0"/>
        <pt x="129" y="-122" on="1"/>
        <pt x="129" y="-50" on="1"/>
      </contour>
    </TTGlyph>
    <TTGlyph name="commaaccent.alt" xMin="91" yMin="-189" xMax="149" yMax="-50">
      <contour>
        <pt x="149" y="-50" on="1"/>
        <pt x="149" y="-128" on="1"/>
        <pt x="149" y="-154" on="0"/>
        <pt x="122" y="-186" on="0"/>
        <pt x="91" y="-189" on="1"/>
        <pt x="91" y="-173" on="1"/>
        <pt x="115" y="-168" on="0"/>
        <pt x="129" y="-141" on="0"/>
        <pt x="129" y="-122" on="1"/>
        <pt x="129" y="-50" on="1"/>
      </contour>
    </TTGlyph>
    <TTGlyph name="commaaccenttwo" xMin="119" yMin="616" xMax="177" yMax="755">
      <contour>
        <pt x="119" y="616" on="1"/>
        <pt x="119" y="694" on="1"/>
        <pt x="119" y="720" on="0"/>
        <pt x="146" y="752" on="0"/>
        <pt x="177" y="755" on="1"/>
        <pt x="177" y="739" on="1"/>
        <pt x="153" y="734" on="0"/>
        <pt x="139" y="707" on="0"/>
        <pt x="139" y="688" on="1"/>
        <pt x="139" y="616" on="1"/>
      </contour>
    </TTGlyph>
    <TTGlyph name="copyright" xMin="26" yMin="-17" xMax="774" yMax="731">
      <contour>
        <pt x="46" y="357" on="1"/>
        <pt x="46" y="283" on="0"/>
        <pt x="101" y="154" on="0"/>
        <pt x="197" y="58" on="0"/>
        <pt x="326" y="3" on="0"/>
        <pt x="400" y="3" on="1"/>
        <pt x="473" y="3" on="0"/>
        <pt x="602" y="58" on="0"/>
        <pt x="698" y="154" on="0"/>
        <pt x="754" y="283" on="0"/>
        <pt x="754" y="357" on="1"/>
        <pt x="754" y="430" on="0"/>
        <pt x="698" y="559" on="0"/>
        <pt x="602" y="655" on="0"/>
        <pt x="473" y="711" on="0"/>
        <pt x="400" y="711" on="1"/>
        <pt x="326" y="711" on="0"/>
        <pt x="197" y="655" on="0"/>
        <pt x="101" y="559" on="0"/>
        <pt x="46" y="430" on="0"/>
      </contour>
      <contour>
        <pt x="26" y="357" on="1"/>
        <pt x="26" y="435" on="0"/>
        <pt x="85" y="571" on="0"/>
        <pt x="186" y="672" on="0"/>
        <pt x="322" y="731" on="0"/>
        <pt x="400" y="731" on="1"/>
        <pt x="478" y="731" on="0"/>
        <pt x="614" y="672" on="0"/>
        <pt x="715" y="571" on="0"/>
        <pt x="774" y="435" on="0"/>
        <pt x="774" y="357" on="1"/>
        <pt x="774" y="279" on="0"/>
        <pt x="715" y="143" on="0"/>
        <pt x="614" y="42" on="0"/>
        <pt x="478" y="-17" on="0"/>
        <pt x="400" y="-17" on="1"/>
        <pt x="322" y="-17" on="0"/>
        <pt x="186" y="42" on="0"/>
        <pt x="85" y="143" on="0"/>
        <pt x="26" y="279" on="0"/>
      </contour>
      <contour>
        <pt x="573" y="428" on="1"/>
        <pt x="568" y="461" on="0"/>
        <pt x="538" y="510" on="0"/>
        <pt x="493" y="543" on="0"/>
        <pt x="438" y="559" on="0"/>
        <pt x="408" y="559" on="1"/>
        <pt x="361" y="559" on="0"/>
        <pt x="288" y="527" on="0"/>
        <pt x="237" y="472" on="0"/>
        <pt x="211" y="396" on="0"/>
        <pt x="211" y="352" on="1"/>
        <pt x="211" y="308" on="0"/>
        <pt x="238" y="231" on="0"/>
        <pt x="290" y="173" on="0"/>
        <pt x="364" y="140" on="0"/>
        <pt x="411" y="140" on="1"/>
        <pt x="466" y="140" on="0"/>
        <pt x="557" y="210" on="0"/>
        <pt x="573" y="276" on="1"/>
        <pt x="593" y="276" on="1"/>
        <pt x="585" y="241" on="0"/>
        <pt x="552" y="184" on="0"/>
        <pt x="505" y="143" on="0"/>
        <pt x="445" y="120" on="0"/>
        <pt x="411" y="120" on="1"/>
        <pt x="361" y="120" on="0"/>
        <pt x="279" y="156" on="0"/>
        <pt x="222" y="218" on="0"/>
        <pt x="191" y="302" on="0"/>
        <pt x="191" y="351" on="1"/>
        <pt x="191" y="400" on="0"/>
        <pt x="221" y="484" on="0"/>
        <pt x="276" y="545" on="0"/>
        <pt x="357" y="579" on="0"/>
        <pt x="408" y="579" on="1"/>
        <pt x="443" y="579" on="0"/>
        <pt x="506" y="559" on="0"/>
        <pt x="556" y="521" on="0"/>
        <pt x="588" y="464" on="0"/>
        <pt x="593" y="428" on="1"/>
      </contour>
    </TTGlyph>
    <TTGlyph name="currency" xMin="30" yMin="92" xMax="526" yMax="588">
      <contour>
        <pt x="506" y="340" on="1"/>
        <pt x="506" y="387" on="0"/>
        <pt x="470" y="470" on="0"/>
        <pt x="408" y="532" on="0"/>
        <pt x="325" y="568" on="0"/>
        <pt x="278" y="568" on="1"/>
        <pt x="231" y="568" on="0"/>
        <pt x="148" y="532" on="0"/>
        <pt x="86" y="470" on="0"/>
        <pt x="50" y="387" on="0"/>
        <pt x="50" y="340" on="1"/>
        <pt x="50" y="293" on="0"/>
        <pt x="86" y="210" on="0"/>
        <pt x="148" y="148" on="0"/>
        <pt x="231" y="112" on="0"/>
        <pt x="278" y="112" on="1"/>
        <pt x="325" y="112" on="0"/>
        <pt x="408" y="148" on="0"/>
        <pt x="470" y="210" on="0"/>
        <pt x="506" y="293" on="0"/>
      </contour>
      <contour>
        <pt x="503" y="579" on="1"/>
        <pt x="517" y="565" on="1"/>
        <pt x="460" y="508" on="1"/>
        <pt x="493" y="473" on="0"/>
        <pt x="526" y="386" on="0"/>
        <pt x="526" y="340" on="1"/>
        <pt x="526" y="295" on="0"/>
        <pt x="493" y="208" on="0"/>
        <pt x="460" y="172" on="1"/>
        <pt x="517" y="115" on="1"/>
        <pt x="503" y="101" on="1"/>
        <pt x="446" y="158" on="1"/>
        <pt x="411" y="126" on="0"/>
        <pt x="324" y="93" on="0"/>
        <pt x="278" y="92" on="1"/>
        <pt x="233" y="92" on="0"/>
        <pt x="146" y="125" on="0"/>
        <pt x="110" y="158" on="1"/>
        <pt x="53" y="101" on="1"/>
        <pt x="39" y="115" on="1"/>
        <pt x="96" y="172" on="1"/>
        <pt x="63" y="208" on="0"/>
        <pt x="30" y="295" on="0"/>
        <pt x="30" y="340" on="1"/>
        <pt x="31" y="386" on="0"/>
        <pt x="64" y="473" on="0"/>
        <pt x="96" y="508" on="1"/>
        <pt x="39" y="565" on="1"/>
        <pt x="53" y="579" on="1"/>
        <pt x="110" y="522" on="1"/>
        <pt x="146" y="555" on="0"/>
        <pt x="233" y="588" on="0"/>
        <pt x="278" y="588" on="1"/>
        <pt x="324" y="588" on="0"/>
        <pt x="411" y="555" on="0"/>
        <pt x="446" y="522" on="1"/>
      </contour>
    </TTGlyph>
    <TTGlyph name="d" xMin="28" yMin="-12" xMax="475" yMax="714">
      <contour>
        <pt x="455" y="714" on="1"/>
        <pt x="475" y="714" on="1"/>
        <pt x="475" y="0" on="1"/>
        <pt x="455" y="0" on="1"/>
        <pt x="455" y="144" on="1"/>
        <pt x="453" y="144" on="1"/>
        <pt x="443" y="110" on="0"/>
        <pt x="406" y="53" on="0"/>
        <pt x="353" y="11" on="0"/>
        <pt x="286" y="-12" on="0"/>
        <pt x="247" y="-12" on="1"/>
        <pt x="196" y="-12" on="0"/>
        <pt x="115" y="28" on="0"/>
        <pt x="58" y="100" on="0"/>
        <pt x="28" y="198" on="0"/>
        <pt x="28" y="256" on="1"/>
        <pt x="28" y="310" on="0"/>
        <pt x="56" y="408" on="0"/>
        <pt x="112" y="482" on="0"/>
        <pt x="194" y="526" on="0"/>
        <pt x="247" y="526" on="1"/>
        <pt x="329" y="526" on="0"/>
        <pt x="435" y="440" on="0"/>
        <pt x="453" y="370" on="1"/>
        <pt x="455" y="370" on="1"/>
      </contour>
      <contour>
        <pt x="455" y="256" on="1"/>
        <pt x="455" y="316" on="0"/>
        <pt x="425" y="409" on="0"/>
        <pt x="371" y="473" on="0"/>
        <pt x="294" y="506" on="0"/>
        <pt x="247" y="506" on="1"/>
        <pt x="194" y="506" on="0"/>
        <pt x="119" y="461" on="0"/>
        <pt x="71" y="390" on="0"/>
        <pt x="48" y="301" on="0"/>
        <pt x="48" y="256" on="1"/>
        <pt x="48" y="206" on="0"/>
        <pt x="73" y="117" on="0"/>
        <pt x="122" y="48" on="0"/>
        <pt x="197" y="8" on="0"/>
        <pt x="247" y="8" on="1"/>
        <pt x="296" y="8" on="0"/>
        <pt x="374" y="48" on="0"/>
        <pt x="427" y="116" on="0"/>
        <pt x="455" y="206" on="0"/>
      </contour>
    </TTGlyph>
    <TTGlyph name="dagger" xMin="60" yMin="-140" xMax="496" yMax="714">
      <contour>
        <pt x="288" y="714" on="1"/>
        <pt x="288" y="471" on="1"/>
        <pt x="496" y="471" on="1"/>
        <pt x="496" y="451" on="1"/>
        <pt x="288" y="451" on="1"/>
        <pt x="288" y="-140" on="1"/>
        <pt x="268" y="-140" on="1"/>
        <pt x="268" y="451" on="1"/>
        <pt x="60" y="451" on="1"/>
        <pt x="60" y="471" on="1"/>
        <pt x="268" y="471" on="1"/>
        <pt x="268" y="714" on="1"/>
      </contour>
    </TTGlyph>
    <TTGlyph name="daggerdbl" xMin="60" yMin="-140" xMax="496" yMax="714">
      <contour>
        <pt x="60" y="57" on="1"/>
        <pt x="60" y="77" on="1"/>
        <pt x="268" y="77" on="1"/>
        <pt x="268" y="497" on="1"/>
        <pt x="60" y="497" on="1"/>
        <pt x="60" y="517" on="1"/>
        <pt x="268" y="517" on="1"/>
        <pt x="268" y="714" on="1"/>
        <pt x="288" y="714" on="1"/>
        <pt x="288" y="517" on="1"/>
        <pt x="496" y="517" on="1"/>
        <pt x="496" y="497" on="1"/>
        <pt x="288" y="497" on="1"/>
        <pt x="288" y="77" on="1"/>
        <pt x="496" y="77" on="1"/>
        <pt x="496" y="57" on="1"/>
        <pt x="288" y="57" on="1"/>
        <pt x="288" y="-140" on="1"/>
        <pt x="268" y="-140" on="1"/>
        <pt x="268" y="57" on="1"/>
      </contour>
    </TTGlyph>
    <TTGlyph name="dcaron" xMin="28" yMin="-12" xMax="605" yMax="714">
      <component glyphName="d" x="0" y="0" flags="0x4"/>
      <component glyphName="carontwo" x="475" y="0" flags="0x4"/>
    </TTGlyph>
    <TTGlyph name="dcroat" xMin="28" yMin="-12" xMax="547" yMax="714">
      <contour>
        <pt x="455" y="714" on="1"/>
        <pt x="475" y="714" on="1"/>
        <pt x="475" y="633" on="1"/>
        <pt x="547" y="633" on="1"/>
        <pt x="547" y="613" on="1"/>
        <pt x="475" y="613" on="1"/>
        <pt x="475" y="0" on="1"/>
        <pt x="455" y="0" on="1"/>
        <pt x="455" y="144" on="1"/>
        <pt x="453" y="144" on="1"/>
        <pt x="443" y="110" on="0"/>
        <pt x="406" y="53" on="0"/>
        <pt x="353" y="11" on="0"/>
        <pt x="286" y="-12" on="0"/>
        <pt x="247" y="-12" on="1"/>
        <pt x="196" y="-12" on="0"/>
        <pt x="115" y="28" on="0"/>
        <pt x="58" y="100" on="0"/>
        <pt x="28" y="198" on="0"/>
        <pt x="28" y="256" on="1"/>
        <pt x="28" y="310" on="0"/>
        <pt x="56" y="408" on="0"/>
        <pt x="112" y="482" on="0"/>
        <pt x="194" y="526" on="0"/>
        <pt x="247" y="526" on="1"/>
        <pt x="329" y="526" on="0"/>
        <pt x="435" y="440" on="0"/>
        <pt x="453" y="370" on="1"/>
        <pt x="455" y="370" on="1"/>
        <pt x="455" y="613" on="1"/>
        <pt x="276" y="613" on="1"/>
        <pt x="276" y="633" on="1"/>
        <pt x="455" y="633" on="1"/>
      </contour>
      <contour>
        <pt x="455" y="256" on="1"/>
        <pt x="455" y="316" on="0"/>
        <pt x="425" y="409" on="0"/>
        <pt x="371" y="473" on="0"/>
        <pt x="294" y="506" on="0"/>
        <pt x="247" y="506" on="1"/>
        <pt x="194" y="506" on="0"/>
        <pt x="119" y="461" on="0"/>
        <pt x="71" y="390" on="0"/>
        <pt x="48" y="301" on="0"/>
        <pt x="48" y="256" on="1"/>
        <pt x="48" y="206" on="0"/>
        <pt x="73" y="117" on="0"/>
        <pt x="122" y="48" on="0"/>
        <pt x="197" y="8" on="0"/>
        <pt x="247" y="8" on="1"/>
        <pt x="296" y="8" on="0"/>
        <pt x="374" y="48" on="0"/>
        <pt x="427" y="116" on="0"/>
        <pt x="455" y="206" on="0"/>
      </contour>
    </TTGlyph>
    <TTGlyph name="degree" xMin="57" yMin="404" xMax="343" yMax="692">
      <contour>
        <pt x="343" y="549" on="1"/>
        <pt x="343" y="519" on="0"/>
        <pt x="321" y="466" on="0"/>
        <pt x="283" y="427" on="0"/>
        <pt x="230" y="404" on="0"/>
        <pt x="200" y="404" on="1"/>
        <pt x="170" y="404" on="0"/>
        <pt x="118" y="426" on="0"/>
        <pt x="79" y="465" on="0"/>
        <pt x="57" y="518" on="0"/>
        <pt x="57" y="549" on="1"/>
        <pt x="57" y="578" on="0"/>
        <pt x="79" y="630" on="0"/>
        <pt x="118" y="669" on="0"/>
        <pt x="170" y="692" on="0"/>
        <pt x="200" y="692" on="1"/>
        <pt x="230" y="692" on="0"/>
        <pt x="282" y="669" on="0"/>
        <pt x="321" y="630" on="0"/>
        <pt x="343" y="578" on="0"/>
      </contour>
      <contour>
        <pt x="323" y="549" on="1"/>
        <pt x="323" y="574" on="0"/>
        <pt x="305" y="618" on="0"/>
        <pt x="272" y="652" on="0"/>
        <pt x="227" y="672" on="0"/>
        <pt x="200" y="672" on="1"/>
        <pt x="175" y="672" on="0"/>
        <pt x="131" y="652" on="0"/>
        <pt x="97" y="617" on="0"/>
        <pt x="77" y="573" on="0"/>
        <pt x="77" y="549" on="1"/>
        <pt x="77" y="522" on="0"/>
        <pt x="97" y="476" on="0"/>
        <pt x="131" y="443" on="0"/>
        <pt x="175" y="424" on="0"/>
        <pt x="200" y="424" on="1"/>
        <pt x="226" y="424" on="0"/>
        <pt x="271" y="443" on="0"/>
        <pt x="304" y="477" on="0"/>
        <pt x="323" y="523" on="0"/>
      </contour>
    </TTGlyph>
    <TTGlyph name="dieresis" xMin="-23" yMin="614" xMax="153" yMax="695">
      <contour>
        <pt x="133" y="614" on="1"/>
        <pt x="133" y="695" on="1"/>
        <pt x="153" y="695" on="1"/>
        <pt x="153" y="614" on="1"/>
      </contour>
      <contour>
        <pt x="-23" y="614" on="1"/>
        <pt x="-23" y="695" on="1"/>
        <pt x="-3" y="695" on="1"/>
        <pt x="-3" y="614" on="1"/>
      </contour>
    </TTGlyph>
    <TTGlyph name="dieresis.cap" xMin="-23" yMin="804" xMax="153" yMax="885">
      <contour>
        <pt x="133" y="804" on="1"/>
        <pt x="133" y="885" on="1"/>
        <pt x="153" y="885" on="1"/>
        <pt x="153" y="804" on="1"/>
      </contour>
      <contour>
        <pt x="-23" y="804" on="1"/>
        <pt x="-23" y="885" on="1"/>
        <pt x="-3" y="885" on="1"/>
        <pt x="-3" y="804" on="1"/>
      </contour>
    </TTGlyph>
    <TTGlyph name="divide" xMin="48" yMin="0" xMax="552" yMax="506">
      <contour>
        <pt x="300" y="0" on="1"/>
        <pt x="278" y="0" on="0"/>
        <pt x="259" y="24" on="0"/>
        <pt x="259" y="41" on="1"/>
        <pt x="259" y="59" on="0"/>
        <pt x="283" y="82" on="0"/>
        <pt x="300" y="82" on="1"/>
        <pt x="317" y="82" on="0"/>
        <pt x="341" y="58" on="0"/>
        <pt x="341" y="41" on="1"/>
        <pt x="341" y="24" on="0"/>
        <pt x="323" y="0" on="0"/>
      </contour>
      <contour>
        <pt x="300" y="424" on="1"/>
        <pt x="278" y="424" on="0"/>
        <pt x="259" y="448" on="0"/>
        <pt x="259" y="465" on="1"/>
        <pt x="259" y="483" on="0"/>
        <pt x="283" y="506" on="0"/>
        <pt x="300" y="506" on="1"/>
        <pt x="317" y="506" on="0"/>
        <pt x="341" y="482" on="0"/>
        <pt x="341" y="465" on="1"/>
        <pt x="341" y="448" on="0"/>
        <pt x="323" y="424" on="0"/>
      </contour>
      <contour>
        <pt x="48" y="243" on="1"/>
        <pt x="48" y="263" on="1"/>
        <pt x="552" y="263" on="1"/>
        <pt x="552" y="243" on="1"/>
      </contour>
    </TTGlyph>
    <TTGlyph name="dollar" xMin="5" yMin="-105" xMax="537" yMax="774">
      <contour>
        <pt x="285" y="3" on="1"/>
        <pt x="327" y="3" on="0"/>
        <pt x="410" y="22" on="0"/>
        <pt x="476" y="64" on="0"/>
        <pt x="517" y="130" on="0"/>
        <pt x="517" y="176" on="1"/>
        <pt x="517" y="227" on="0"/>
        <pt x="474" y="289" on="0"/>
        <pt x="407" y="326" on="0"/>
        <pt x="325" y="346" on="0"/>
        <pt x="285" y="355" on="1"/>
      </contour>
      <contour>
        <pt x="26" y="237" on="1"/>
        <pt x="26" y="176" on="0"/>
        <pt x="61" y="89" on="0"/>
        <pt x="124" y="33" on="0"/>
        <pt x="212" y="6" on="0"/>
        <pt x="265" y="4" on="1"/>
        <pt x="265" y="360" on="1"/>
        <pt x="222" y="370" on="0"/>
        <pt x="137" y="392" on="0"/>
        <pt x="69" y="431" on="0"/>
        <pt x="27" y="495" on="0"/>
        <pt x="27" y="547" on="1"/>
        <pt x="27" y="599" on="0"/>
        <pt x="70" y="670" on="0"/>
        <pt x="138" y="712" on="0"/>
        <pt x="223" y="731" on="0"/>
        <pt x="265" y="731" on="1"/>
        <pt x="265" y="774" on="1"/>
        <pt x="285" y="774" on="1"/>
        <pt x="285" y="730" on="1"/>
        <pt x="335" y="729" on="0"/>
        <pt x="420" y="704" on="0"/>
        <pt x="483" y="653" on="0"/>
        <pt x="520" y="572" on="0"/>
        <pt x="523" y="514" on="1"/>
        <pt x="503" y="514" on="1"/>
        <pt x="501" y="567" on="0"/>
        <pt x="467" y="640" on="0"/>
        <pt x="409" y="687" on="0"/>
        <pt x="331" y="709" on="0"/>
        <pt x="285" y="710" on="1"/>
        <pt x="285" y="376" on="1"/>
        <pt x="293" y="374" on="1"/>
        <pt x="343" y="361" on="0"/>
        <pt x="432" y="338" on="0"/>
        <pt x="498" y="297" on="0"/>
        <pt x="537" y="231" on="0"/>
        <pt x="537" y="175" on="1"/>
        <pt x="537" y="124" on="0"/>
        <pt x="493" y="52" on="0"/>
        <pt x="421" y="5" on="0"/>
        <pt x="331" y="-17" on="0"/>
        <pt x="285" y="-17" on="1"/>
        <pt x="285" y="-105" on="1"/>
        <pt x="265" y="-105" on="1"/>
        <pt x="265" y="-16" on="1"/>
        <pt x="208" y="-14" on="0"/>
        <pt x="112" y="17" on="0"/>
        <pt x="43" y="79" on="0"/>
        <pt x="5" y="172" on="0"/>
        <pt x="6" y="237" on="1"/>
      </contour>
      <contour>
        <pt x="265" y="711" on="1"/>
        <pt x="227" y="711" on="0"/>
        <pt x="150" y="694" on="0"/>
        <pt x="87" y="657" on="0"/>
        <pt x="47" y="594" on="0"/>
        <pt x="47" y="547" on="1"/>
        <pt x="47" y="502" on="0"/>
        <pt x="83" y="446" on="0"/>
        <pt x="144" y="411" on="0"/>
        <pt x="223" y="390" on="0"/>
        <pt x="265" y="381" on="1"/>
      </contour>
    </TTGlyph>
    <TTGlyph name="dotaccent" xMin="55" yMin="614" xMax="75" yMax="695">
      <contour>
        <pt x="75" y="695" on="1"/>
        <pt x="75" y="614" on="1"/>
        <pt x="55" y="614" on="1"/>
        <pt x="55" y="695" on="1"/>
      </contour>
    </TTGlyph>
    <TTGlyph name="dotaccent.cap" xMin="55" yMin="804" xMax="75" yMax="885">
      <contour>
        <pt x="75" y="885" on="1"/>
        <pt x="75" y="804" on="1"/>
        <pt x="55" y="804" on="1"/>
        <pt x="55" y="885" on="1"/>
      </contour>
    </TTGlyph>
    <TTGlyph name="dotlessi" xMin="55" yMin="0" xMax="75" yMax="514">
      <contour>
        <pt x="55" y="0" on="1"/>
        <pt x="55" y="514" on="1"/>
        <pt x="75" y="514" on="1"/>
        <pt x="75" y="0" on="1"/>
      </contour>
    </TTGlyph>
    <TTGlyph name="dotlessj" xMin="-49" yMin="-177" xMax="75" yMax="514">
      <contour>
        <pt x="75" y="-75" on="1"/>
        <pt x="75" y="-111" on="0"/>
        <pt x="58" y="-151" on="0"/>
        <pt x="27" y="-171" on="0"/>
        <pt x="-19" y="-177" on="0"/>
        <pt x="-49" y="-177" on="1"/>
        <pt x="-49" y="-157" on="1"/>
        <pt x="-20" y="-157" on="0"/>
        <pt x="20" y="-153" on="0"/>
        <pt x="44" y="-136" on="0"/>
        <pt x="55" y="-100" on="0"/>
        <pt x="55" y="-68" on="1"/>
        <pt x="55" y="514" on="1"/>
        <pt x="75" y="514" on="1"/>
      </contour>
    </TTGlyph>
    <TTGlyph name="e" xMin="25" yMin="-13" xMax="477" yMax="526">
      <contour>
        <pt x="45" y="253" on="1"/>
        <pt x="46" y="201" on="0"/>
        <pt x="68" y="112" on="0"/>
        <pt x="117" y="46" on="0"/>
        <pt x="193" y="8" on="0"/>
        <pt x="248" y="8" on="1"/>
        <pt x="328" y="8" on="0"/>
        <pt x="436" y="94" on="0"/>
        <pt x="449" y="178" on="1"/>
        <pt x="469" y="178" on="1"/>
        <pt x="464" y="134" on="0"/>
        <pt x="427" y="63" on="0"/>
        <pt x="369" y="14" on="0"/>
        <pt x="294" y="-12" on="0"/>
        <pt x="250" y="-12" on="1"/>
        <pt x="190" y="-13" on="0"/>
        <pt x="105" y="28" on="0"/>
        <pt x="51" y="101" on="0"/>
        <pt x="25" y="200" on="0"/>
        <pt x="25" y="257" on="1"/>
        <pt x="25" y="321" on="0"/>
        <pt x="63" y="421" on="0"/>
        <pt x="125" y="490" on="0"/>
        <pt x="206" y="526" on="0"/>
        <pt x="250" y="526" on="1"/>
        <pt x="310" y="526" on="0"/>
        <pt x="397" y="480" on="0"/>
        <pt x="452" y="404" on="0"/>
        <pt x="477" y="306" on="0"/>
        <pt x="475" y="253" on="1"/>
      </contour>
      <contour>
        <pt x="455" y="273" on="1"/>
        <pt x="455" y="320" on="0"/>
        <pt x="429" y="405" on="0"/>
        <pt x="378" y="469" on="0"/>
        <pt x="302" y="506" on="0"/>
        <pt x="252" y="506" on="1"/>
        <pt x="210" y="506" on="0"/>
        <pt x="137" y="474" on="0"/>
        <pt x="82" y="413" on="0"/>
        <pt x="48" y="327" on="0"/>
        <pt x="45" y="273" on="1"/>
      </contour>
    </TTGlyph>
    <TTGlyph name="eacute" xMin="25" yMin="-13" xMax="477" yMax="732">
      <component glyphName="e" x="0" y="0" flags="0x204"/>
      <component glyphName="acute" x="230" y="0" flags="0x4"/>
    </TTGlyph>
    <TTGlyph name="ebreve" xMin="25" yMin="-13" xMax="477" yMax="714">
      <component glyphName="e" x="0" y="0" flags="0x204"/>
      <component glyphName="breve" x="189" y="0" flags="0x4"/>
    </TTGlyph>
    <TTGlyph name="ecaron" xMin="25" yMin="-13" xMax="477" yMax="730">
      <component glyphName="e" x="0" y="0" flags="0x204"/>
      <component glyphName="caron" x="186" y="0" flags="0x4"/>
    </TTGlyph>
    <TTGlyph name="ecircumflex" xMin="25" yMin="-13" xMax="477" yMax="730">
      <component glyphName="e" x="0" y="0" flags="0x204"/>
      <component glyphName="circumflex" x="191" y="0" flags="0x4"/>
    </TTGlyph>
    <TTGlyph name="edieresis" xMin="25" yMin="-13" xMax="477" yMax="695">
      <component glyphName="e" x="0" y="0" flags="0x204"/>
      <component glyphName="dieresis" x="189" y="0" flags="0x4"/>
    </TTGlyph>
    <TTGlyph name="edotaccent" xMin="25" yMin="-13" xMax="477" yMax="695">
      <component glyphName="e" x="0" y="0" flags="0x204"/>
      <component glyphName="dotaccent" x="185" y="0" flags="0x4"/>
    </TTGlyph>
    <TTGlyph name="egrave" xMin="25" yMin="-13" xMax="477" yMax="732">
      <component glyphName="e" x="0" y="0" flags="0x204"/>
      <component glyphName="grave" x="147" y="0" flags="0x4"/>
    </TTGlyph>
    <TTGlyph name="eight" xMin="31" yMin="-12" xMax="525" yMax="692">
      <contour>
        <pt x="471" y="520" on="1"/>
        <pt x="471" y="563" on="0"/>
        <pt x="438" y="622" on="0"/>
        <pt x="384" y="657" on="0"/>
        <pt x="315" y="672" on="0"/>
        <pt x="278" y="672" on="1"/>
        <pt x="241" y="672" on="0"/>
        <pt x="172" y="657" on="0"/>
        <pt x="118" y="622" on="0"/>
        <pt x="85" y="563" on="0"/>
        <pt x="85" y="520" on="1"/>
        <pt x="85" y="484" on="0"/>
        <pt x="120" y="431" on="0"/>
        <pt x="175" y="398" on="0"/>
        <pt x="244" y="382" on="0"/>
        <pt x="278" y="382" on="1"/>
        <pt x="312" y="382" on="0"/>
        <pt x="380" y="398" on="0"/>
        <pt x="436" y="431" on="0"/>
        <pt x="471" y="484" on="0"/>
      </contour>
      <contour>
        <pt x="351" y="373" on="1"/>
        <pt x="432" y="365" on="0"/>
        <pt x="525" y="268" on="0"/>
        <pt x="525" y="190" on="1"/>
        <pt x="525" y="137" on="0"/>
        <pt x="485" y="61" on="0"/>
        <pt x="418" y="11" on="0"/>
        <pt x="328" y="-12" on="0"/>
        <pt x="278" y="-12" on="1"/>
        <pt x="228" y="-12" on="0"/>
        <pt x="138" y="11" on="0"/>
        <pt x="71" y="61" on="0"/>
        <pt x="31" y="137" on="0"/>
        <pt x="31" y="190" on="1"/>
        <pt x="31" y="268" on="0"/>
        <pt x="124" y="365" on="0"/>
        <pt x="205" y="373" on="1"/>
        <pt x="205" y="375" on="1"/>
        <pt x="176" y="379" on="0"/>
        <pt x="125" y="403" on="0"/>
        <pt x="87" y="441" on="0"/>
        <pt x="65" y="491" on="0"/>
        <pt x="65" y="520" on="1"/>
        <pt x="65" y="566" on="0"/>
        <pt x="98" y="631" on="0"/>
        <pt x="156" y="673" on="0"/>
        <pt x="234" y="692" on="0"/>
        <pt x="278" y="692" on="1"/>
        <pt x="322" y="692" on="0"/>
        <pt x="400" y="673" on="0"/>
        <pt x="458" y="631" on="0"/>
        <pt x="491" y="566" on="0"/>
        <pt x="491" y="520" on="1"/>
        <pt x="491" y="491" on="0"/>
        <pt x="469" y="441" on="0"/>
        <pt x="431" y="403" on="0"/>
        <pt x="380" y="379" on="0"/>
        <pt x="351" y="375" on="1"/>
      </contour>
      <contour>
        <pt x="505" y="190" on="1"/>
        <pt x="505" y="239" on="0"/>
        <pt x="467" y="305" on="0"/>
        <pt x="404" y="345" on="0"/>
        <pt x="322" y="362" on="0"/>
        <pt x="278" y="362" on="1"/>
        <pt x="234" y="362" on="0"/>
        <pt x="152" y="345" on="0"/>
        <pt x="89" y="305" on="0"/>
        <pt x="51" y="239" on="0"/>
        <pt x="51" y="190" on="1"/>
        <pt x="51" y="141" on="0"/>
        <pt x="88" y="72" on="0"/>
        <pt x="151" y="28" on="0"/>
        <pt x="233" y="8" on="0"/>
        <pt x="278" y="8" on="1"/>
        <pt x="323" y="8" on="0"/>
        <pt x="405" y="28" on="0"/>
        <pt x="468" y="72" on="0"/>
        <pt x="505" y="141" on="0"/>
      </contour>
    </TTGlyph>
    <TTGlyph name="ellipsis" xMin="157" yMin="0" xMax="843" yMax="98">
      <contour>
        <pt x="843" y="0" on="1"/>
        <pt x="823" y="0" on="1"/>
        <pt x="823" y="98" on="1"/>
        <pt x="843" y="98" on="1"/>
      </contour>
      <contour>
        <pt x="510" y="0" on="1"/>
        <pt x="490" y="0" on="1"/>
        <pt x="490" y="98" on="1"/>
        <pt x="510" y="98" on="1"/>
      </contour>
      <contour>
        <pt x="177" y="0" on="1"/>
        <pt x="157" y="0" on="1"/>
        <pt x="157" y="98" on="1"/>
        <pt x="177" y="98" on="1"/>
      </contour>
    </TTGlyph>
    <TTGlyph name="emacron" xMin="25" yMin="-13" xMax="477" yMax="660">
      <component glyphName="e" x="0" y="0" flags="0x204"/>
      <component glyphName="macron" x="188" y="0" flags="0x4"/>
    </TTGlyph>
    <TTGlyph name="emdash" xMin="130" yMin="258" xMax="870" yMax="278">
      <contour>
        <pt x="870" y="258" on="1"/>
        <pt x="130" y="258" on="1"/>
        <pt x="130" y="278" on="1"/>
        <pt x="870" y="278" on="1"/>
      </contour>
    </TTGlyph>
    <TTGlyph name="endash" xMin="0" yMin="258" xMax="500" yMax="278">
      <contour>
        <pt x="0" y="278" on="1"/>
        <pt x="500" y="278" on="1"/>
        <pt x="500" y="258" on="1"/>
        <pt x="0" y="258" on="1"/>
      </contour>
    </TTGlyph>
    <TTGlyph name="eogonek" xMin="25" yMin="-188" xMax="477" yMax="526">
      <contour>
        <pt x="45" y="253" on="1"/>
        <pt x="46" y="201" on="0"/>
        <pt x="68" y="112" on="0"/>
        <pt x="117" y="46" on="0"/>
        <pt x="193" y="8" on="0"/>
        <pt x="248" y="8" on="1"/>
        <pt x="328" y="8" on="0"/>
        <pt x="436" y="94" on="0"/>
        <pt x="449" y="178" on="1"/>
        <pt x="469" y="178" on="1"/>
        <pt x="464" y="134" on="0"/>
        <pt x="427" y="63" on="0"/>
        <pt x="369" y="14" on="0"/>
        <pt x="331" y="1" on="1"/>
        <pt x="309" y="-7" on="0"/>
        <pt x="283" y="-10" on="1"/>
        <pt x="237" y="-47" on="0"/>
        <pt x="218" y="-71" on="1"/>
        <pt x="196" y="-98" on="0"/>
        <pt x="196" y="-123" on="1"/>
        <pt x="196" y="-142" on="0"/>
        <pt x="223" y="-168" on="0"/>
        <pt x="247" y="-168" on="1"/>
        <pt x="275" y="-168" on="0"/>
        <pt x="312" y="-147" on="0"/>
        <pt x="322" y="-136" on="1"/>
        <pt x="339" y="-148" on="1"/>
        <pt x="318" y="-170" on="0"/>
        <pt x="275" y="-188" on="0"/>
        <pt x="247" y="-188" on="1"/>
        <pt x="210" y="-188" on="0"/>
        <pt x="172" y="-152" on="0"/>
        <pt x="172" y="-125" on="1"/>
        <pt x="172" y="-106" on="0"/>
        <pt x="190" y="-71" on="0"/>
        <pt x="217" y="-41" on="0"/>
        <pt x="234" y="-26" on="1"/>
        <pt x="242" y="-19" on="0"/>
        <pt x="251" y="-12" on="1"/>
        <pt x="250" y="-12" on="1"/>
        <pt x="190" y="-13" on="0"/>
        <pt x="105" y="28" on="0"/>
        <pt x="51" y="101" on="0"/>
        <pt x="25" y="200" on="0"/>
        <pt x="25" y="257" on="1"/>
        <pt x="25" y="321" on="0"/>
        <pt x="63" y="421" on="0"/>
        <pt x="125" y="490" on="0"/>
        <pt x="206" y="526" on="0"/>
        <pt x="250" y="526" on="1"/>
        <pt x="310" y="526" on="0"/>
        <pt x="397" y="480" on="0"/>
        <pt x="452" y="404" on="0"/>
        <pt x="477" y="306" on="0"/>
        <pt x="475" y="253" on="1"/>
      </contour>
      <contour>
        <pt x="455" y="273" on="1"/>
        <pt x="455" y="320" on="0"/>
        <pt x="429" y="405" on="0"/>
        <pt x="378" y="469" on="0"/>
        <pt x="302" y="506" on="0"/>
        <pt x="252" y="506" on="1"/>
        <pt x="210" y="506" on="0"/>
        <pt x="137" y="474" on="0"/>
        <pt x="82" y="413" on="0"/>
        <pt x="48" y="327" on="0"/>
        <pt x="45" y="273" on="1"/>
      </contour>
    </TTGlyph>
    <TTGlyph name="equal" xMin="48" yMin="146" xMax="552" yMax="360">
      <contour>
        <pt x="48" y="146" on="1"/>
        <pt x="48" y="166" on="1"/>
        <pt x="552" y="166" on="1"/>
        <pt x="552" y="146" on="1"/>
      </contour>
      <contour>
        <pt x="48" y="340" on="1"/>
        <pt x="48" y="360" on="1"/>
        <pt x="552" y="360" on="1"/>
        <pt x="552" y="340" on="1"/>
      </contour>
    </TTGlyph>
    <TTGlyph name="estimated" xMin="44" yMin="-17" xMax="561" yMax="535">
      <contour>
        <pt x="157" y="259" on="1"/>
        <pt x="157" y="78" on="1"/>
        <pt x="216" y="19" on="0"/>
        <pt x="302" y="19" on="1"/>
        <pt x="365" y="19" on="0"/>
        <pt x="457" y="76" on="0"/>
        <pt x="495" y="139" on="1"/>
        <pt x="530" y="118" on="1"/>
        <pt x="507" y="82" on="0"/>
        <pt x="460" y="31" on="0"/>
        <pt x="405" y="-2" on="0"/>
        <pt x="341" y="-17" on="0"/>
        <pt x="302" y="-17" on="1"/>
        <pt x="243" y="-17" on="0"/>
        <pt x="148" y="26" on="0"/>
        <pt x="80" y="101" on="0"/>
        <pt x="44" y="201" on="0"/>
        <pt x="44" y="259" on="1"/>
        <pt x="44" y="317" on="0"/>
        <pt x="80" y="418" on="0"/>
        <pt x="148" y="492" on="0"/>
        <pt x="243" y="535" on="0"/>
        <pt x="302" y="535" on="1"/>
        <pt x="360" y="535" on="0"/>
        <pt x="455" y="494" on="0"/>
        <pt x="523" y="421" on="0"/>
        <pt x="561" y="320" on="0"/>
        <pt x="561" y="259" on="1"/>
      </contour>
      <contour>
        <pt x="448" y="295" on="1"/>
        <pt x="448" y="440" on="1"/>
        <pt x="385" y="500" on="0"/>
        <pt x="301" y="500" on="1"/>
        <pt x="217" y="500" on="0"/>
        <pt x="157" y="440" on="1"/>
        <pt x="157" y="295" on="1"/>
      </contour>
    </TTGlyph>
    <TTGlyph name="eth" xMin="28" yMin="-11" xMax="491" yMax="726">
      <contour>
        <pt x="48" y="248" on="1"/>
        <pt x="48" y="201" on="0"/>
        <pt x="75" y="115" on="0"/>
        <pt x="129" y="49" on="0"/>
        <pt x="208" y="9" on="0"/>
        <pt x="260" y="9" on="1"/>
        <pt x="311" y="9" on="0"/>
        <pt x="390" y="49" on="0"/>
        <pt x="444" y="115" on="0"/>
        <pt x="471" y="201" on="0"/>
        <pt x="471" y="248" on="1"/>
        <pt x="471" y="294" on="0"/>
        <pt x="444" y="380" on="0"/>
        <pt x="390" y="447" on="0"/>
        <pt x="311" y="487" on="0"/>
        <pt x="260" y="487" on="1"/>
        <pt x="208" y="487" on="0"/>
        <pt x="129" y="447" on="0"/>
        <pt x="75" y="380" on="0"/>
        <pt x="48" y="294" on="0"/>
      </contour>
      <contour>
        <pt x="249" y="648" on="1"/>
        <pt x="231" y="662" on="0"/>
        <pt x="185" y="693" on="0"/>
        <pt x="156" y="708" on="1"/>
        <pt x="172" y="722" on="1"/>
        <pt x="201" y="707" on="0"/>
        <pt x="250" y="673" on="0"/>
        <pt x="268" y="658" on="1"/>
        <pt x="391" y="726" on="1"/>
        <pt x="406" y="710" on="1"/>
        <pt x="286" y="643" on="1"/>
        <pt x="339" y="594" on="0"/>
        <pt x="417" y="499" on="0"/>
        <pt x="467" y="403" on="0"/>
        <pt x="491" y="302" on="0"/>
        <pt x="491" y="248" on="1"/>
        <pt x="491" y="197" on="0"/>
        <pt x="461" y="103" on="0"/>
        <pt x="402" y="32" on="0"/>
        <pt x="316" y="-11" on="0"/>
        <pt x="259" y="-11" on="1"/>
        <pt x="203" y="-11" on="0"/>
        <pt x="116" y="32" on="0"/>
        <pt x="58" y="103" on="0"/>
        <pt x="28" y="197" on="0"/>
        <pt x="28" y="248" on="1"/>
        <pt x="28" y="299" on="0"/>
        <pt x="58" y="392" on="0"/>
        <pt x="117" y="464" on="0"/>
        <pt x="203" y="507" on="0"/>
        <pt x="260" y="507" on="1"/>
        <pt x="306" y="507" on="0"/>
        <pt x="393" y="473" on="0"/>
        <pt x="422" y="435" on="1"/>
        <pt x="426" y="435" on="1"/>
        <pt x="411" y="465" on="0"/>
        <pt x="370" y="523" on="0"/>
        <pt x="326" y="576" on="0"/>
        <pt x="283" y="619" on="0"/>
        <pt x="265" y="634" on="1"/>
        <pt x="143" y="566" on="1"/>
        <pt x="128" y="581" on="1"/>
      </contour>
    </TTGlyph>
    <TTGlyph name="exclam" xMin="83" yMin="0" xMax="103" yMax="714">
      <contour>
        <pt x="83" y="182" on="1"/>
        <pt x="83" y="714" on="1"/>
        <pt x="103" y="714" on="1"/>
        <pt x="103" y="182" on="1"/>
      </contour>
      <contour>
        <pt x="83" y="0" on="1"/>
        <pt x="83" y="98" on="1"/>
        <pt x="103" y="98" on="1"/>
        <pt x="103" y="0" on="1"/>
      </contour>
    </TTGlyph>
    <TTGlyph name="exclamdown" xMin="83" yMin="-177" xMax="103" yMax="542">
      <contour>
        <pt x="103" y="360" on="1"/>
        <pt x="103" y="-177" on="1"/>
        <pt x="83" y="-177" on="1"/>
        <pt x="83" y="360" on="1"/>
      </contour>
      <contour>
        <pt x="103" y="542" on="1"/>
        <pt x="103" y="444" on="1"/>
        <pt x="83" y="444" on="1"/>
        <pt x="83" y="542" on="1"/>
      </contour>
    </TTGlyph>
    <TTGlyph name="f" xMin="-1" yMin="0" xMax="231" yMax="714">
      <contour>
        <pt x="-1" y="494" on="1"/>
        <pt x="-1" y="514" on="1"/>
        <pt x="87" y="514" on="1"/>
        <pt x="87" y="628" on="1"/>
        <pt x="87" y="659" on="0"/>
        <pt x="106" y="693" on="0"/>
        <pt x="136" y="710" on="0"/>
        <pt x="172" y="714" on="0"/>
        <pt x="188" y="714" on="1"/>
        <pt x="202" y="714" on="0"/>
        <pt x="223" y="711" on="0"/>
        <pt x="231" y="710" on="1"/>
        <pt x="231" y="690" on="1"/>
        <pt x="217" y="692" on="0"/>
        <pt x="195" y="694" on="0"/>
        <pt x="184" y="694" on="1"/>
        <pt x="136" y="694" on="0"/>
        <pt x="107" y="659" on="0"/>
        <pt x="107" y="621" on="1"/>
        <pt x="107" y="514" on="1"/>
        <pt x="218" y="514" on="1"/>
        <pt x="218" y="494" on="1"/>
        <pt x="107" y="494" on="1"/>
        <pt x="107" y="0" on="1"/>
        <pt x="87" y="0" on="1"/>
        <pt x="87" y="494" on="1"/>
      </contour>
    </TTGlyph>
    <TTGlyph name="fi" xMin="-1" yMin="0" xMax="278" yMax="714">
      <contour>
        <pt x="-1" y="494" on="1"/>
        <pt x="-1" y="514" on="1"/>
        <pt x="87" y="514" on="1"/>
        <pt x="87" y="628" on="1"/>
        <pt x="87" y="659" on="0"/>
        <pt x="106" y="693" on="0"/>
        <pt x="136" y="710" on="0"/>
        <pt x="172" y="714" on="0"/>
        <pt x="188" y="714" on="1"/>
        <pt x="202" y="714" on="0"/>
        <pt x="223" y="711" on="0"/>
        <pt x="231" y="710" on="1"/>
        <pt x="231" y="690" on="1"/>
        <pt x="217" y="692" on="0"/>
        <pt x="195" y="694" on="0"/>
        <pt x="184" y="694" on="1"/>
        <pt x="136" y="694" on="0"/>
        <pt x="107" y="659" on="0"/>
        <pt x="107" y="621" on="1"/>
        <pt x="107" y="514" on="1"/>
        <pt x="218" y="514" on="1"/>
        <pt x="218" y="494" on="1"/>
        <pt x="107" y="494" on="1"/>
        <pt x="107" y="0" on="1"/>
        <pt x="87" y="0" on="1"/>
        <pt x="87" y="494" on="1"/>
      </contour>
      <contour>
        <pt x="278" y="613" on="1"/>
        <pt x="258" y="613" on="1"/>
        <pt x="258" y="714" on="1"/>
        <pt x="278" y="714" on="1"/>
      </contour>
      <contour>
        <pt x="278" y="0" on="1"/>
        <pt x="258" y="0" on="1"/>
        <pt x="258" y="514" on="1"/>
        <pt x="278" y="514" on="1"/>
      </contour>
    </TTGlyph>
    <TTGlyph name="five" xMin="35" yMin="-12" xMax="508" yMax="680">
      <contour>
        <pt x="147" y="660" on="1"/>
        <pt x="85" y="369" on="1"/>
        <pt x="87" y="369" on="1"/>
        <pt x="116" y="416" on="0"/>
        <pt x="213" y="461" on="0"/>
        <pt x="273" y="461" on="1"/>
        <pt x="325" y="461" on="0"/>
        <pt x="412" y="426" on="0"/>
        <pt x="474" y="364" on="0"/>
        <pt x="508" y="277" on="0"/>
        <pt x="508" y="226" on="1"/>
        <pt x="508" y="172" on="0"/>
        <pt x="474" y="84" on="0"/>
        <pt x="412" y="22" on="0"/>
        <pt x="325" y="-12" on="0"/>
        <pt x="273" y="-12" on="1"/>
        <pt x="220" y="-12" on="0"/>
        <pt x="132" y="19" on="0"/>
        <pt x="69" y="78" on="0"/>
        <pt x="35" y="164" on="0"/>
        <pt x="37" y="218" on="1"/>
        <pt x="57" y="218" on="1"/>
        <pt x="55" y="168" on="0"/>
        <pt x="85" y="90" on="0"/>
        <pt x="142" y="36" on="0"/>
        <pt x="223" y="8" on="0"/>
        <pt x="273" y="8" on="1"/>
        <pt x="322" y="8" on="0"/>
        <pt x="402" y="39" on="0"/>
        <pt x="458" y="96" on="0"/>
        <pt x="488" y="176" on="0"/>
        <pt x="488" y="226" on="1"/>
        <pt x="488" y="273" on="0"/>
        <pt x="457" y="352" on="0"/>
        <pt x="401" y="409" on="0"/>
        <pt x="321" y="441" on="0"/>
        <pt x="273" y="441" on="1"/>
        <pt x="213" y="441" on="0"/>
        <pt x="111" y="388" on="0"/>
        <pt x="83" y="337" on="1"/>
        <pt x="58" y="337" on="1"/>
        <pt x="131" y="680" on="1"/>
        <pt x="480" y="680" on="1"/>
        <pt x="480" y="660" on="1"/>
      </contour>
    </TTGlyph>
    <TTGlyph name="fl" xMin="-1" yMin="0" xMax="278" yMax="714">
      <contour>
        <pt x="278" y="0" on="1"/>
        <pt x="258" y="0" on="1"/>
        <pt x="258" y="714" on="1"/>
        <pt x="278" y="714" on="1"/>
      </contour>
      <contour>
        <pt x="-1" y="494" on="1"/>
        <pt x="-1" y="514" on="1"/>
        <pt x="87" y="514" on="1"/>
        <pt x="87" y="628" on="1"/>
        <pt x="87" y="659" on="0"/>
        <pt x="106" y="693" on="0"/>
        <pt x="136" y="710" on="0"/>
        <pt x="172" y="714" on="0"/>
        <pt x="188" y="714" on="1"/>
        <pt x="202" y="714" on="0"/>
        <pt x="223" y="711" on="0"/>
        <pt x="231" y="710" on="1"/>
        <pt x="231" y="690" on="1"/>
        <pt x="217" y="692" on="0"/>
        <pt x="195" y="694" on="0"/>
        <pt x="184" y="694" on="1"/>
        <pt x="136" y="694" on="0"/>
        <pt x="107" y="659" on="0"/>
        <pt x="107" y="621" on="1"/>
        <pt x="107" y="514" on="1"/>
        <pt x="218" y="514" on="1"/>
        <pt x="218" y="494" on="1"/>
        <pt x="107" y="494" on="1"/>
        <pt x="107" y="0" on="1"/>
        <pt x="87" y="0" on="1"/>
        <pt x="87" y="494" on="1"/>
      </contour>
    </TTGlyph>
    <TTGlyph name="florin" xMin="13" yMin="-177" xMax="489" yMax="731">
      <contour>
        <pt x="189" y="-55" on="1"/>
        <pt x="184" y="-79" on="0"/>
        <pt x="166" y="-123" on="0"/>
        <pt x="135" y="-157" on="0"/>
        <pt x="92" y="-177" on="0"/>
        <pt x="63" y="-177" on="1"/>
        <pt x="50" y="-177" on="0"/>
        <pt x="25" y="-175" on="0"/>
        <pt x="13" y="-171" on="1"/>
        <pt x="18" y="-151" on="1"/>
        <pt x="39" y="-157" on="0"/>
        <pt x="60" y="-157" on="1"/>
        <pt x="110" y="-157" on="0"/>
        <pt x="159" y="-98" on="0"/>
        <pt x="168" y="-51" on="1"/>
        <pt x="259" y="411" on="1"/>
        <pt x="140" y="411" on="1"/>
        <pt x="144" y="431" on="1"/>
        <pt x="263" y="431" on="1"/>
        <pt x="302" y="626" on="1"/>
        <pt x="313" y="682" on="0"/>
        <pt x="380" y="731" on="0"/>
        <pt x="434" y="731" on="1"/>
        <pt x="448" y="731" on="0"/>
        <pt x="476" y="728" on="0"/>
        <pt x="489" y="724" on="1"/>
        <pt x="485" y="705" on="1"/>
        <pt x="473" y="707" on="0"/>
        <pt x="446" y="711" on="0"/>
        <pt x="432" y="711" on="1"/>
        <pt x="386" y="711" on="0"/>
        <pt x="333" y="670" on="0"/>
        <pt x="322" y="615" on="1"/>
        <pt x="285" y="431" on="1"/>
        <pt x="412" y="431" on="1"/>
        <pt x="408" y="411" on="1"/>
        <pt x="281" y="411" on="1"/>
      </contour>
    </TTGlyph>
    <TTGlyph name="four" xMin="34" yMin="0" xMax="522" yMax="680">
      <contour>
        <pt x="34" y="177" on="1"/>
        <pt x="34" y="201" on="1"/>
        <pt x="374" y="680" on="1"/>
        <pt x="399" y="680" on="1"/>
        <pt x="399" y="197" on="1"/>
        <pt x="522" y="197" on="1"/>
        <pt x="522" y="177" on="1"/>
        <pt x="399" y="177" on="1"/>
        <pt x="399" y="0" on="1"/>
        <pt x="379" y="0" on="1"/>
        <pt x="379" y="177" on="1"/>
      </contour>
      <contour>
        <pt x="379" y="652" on="1"/>
        <pt x="377" y="652" on="1"/>
        <pt x="54" y="197" on="1"/>
        <pt x="379" y="197" on="1"/>
      </contour>
    </TTGlyph>
    <TTGlyph name="fraction" xMin="-166" yMin="-34" xMax="333" yMax="714">
      <contour>
        <pt x="310" y="714" on="1"/>
        <pt x="333" y="714" on="1"/>
        <pt x="-143" y="-34" on="1"/>
        <pt x="-166" y="-34" on="1"/>
      </contour>
    </TTGlyph>
    <TTGlyph name="g" xMin="28" yMin="-189" xMax="466" yMax="526">
      <contour>
        <pt x="446" y="172" on="1"/>
        <pt x="444" y="172" on="1"/>
        <pt x="436" y="138" on="0"/>
        <pt x="396" y="84" on="0"/>
        <pt x="340" y="47" on="0"/>
        <pt x="275" y="28" on="0"/>
        <pt x="242" y="28" on="1"/>
        <pt x="188" y="28" on="0"/>
        <pt x="108" y="68" on="0"/>
        <pt x="55" y="135" on="0"/>
        <pt x="28" y="224" on="0"/>
        <pt x="28" y="274" on="1"/>
        <pt x="28" y="326" on="0"/>
        <pt x="56" y="417" on="0"/>
        <pt x="112" y="486" on="0"/>
        <pt x="195" y="526" on="0"/>
        <pt x="249" y="526" on="1"/>
        <pt x="286" y="526" on="0"/>
        <pt x="350" y="503" on="0"/>
        <pt x="401" y="463" on="0"/>
        <pt x="436" y="408" on="0"/>
        <pt x="444" y="377" on="1"/>
        <pt x="446" y="377" on="1"/>
        <pt x="446" y="514" on="1"/>
        <pt x="466" y="514" on="1"/>
        <pt x="466" y="17" on="1"/>
        <pt x="466" y="-89" on="0"/>
        <pt x="353" y="-189" on="0"/>
        <pt x="252" y="-189" on="1"/>
        <pt x="213" y="-189" on="0"/>
        <pt x="143" y="-171" on="0"/>
        <pt x="89" y="-132" on="0"/>
        <pt x="57" y="-70" on="0"/>
        <pt x="56" y="-27" on="1"/>
        <pt x="76" y="-27" on="1"/>
        <pt x="77" y="-65" on="0"/>
        <pt x="106" y="-119" on="0"/>
        <pt x="154" y="-153" on="0"/>
        <pt x="216" y="-169" on="0"/>
        <pt x="251" y="-169" on="1"/>
        <pt x="345" y="-169" on="0"/>
        <pt x="446" y="-79" on="0"/>
        <pt x="446" y="17" on="1"/>
      </contour>
      <contour>
        <pt x="445" y="274" on="1"/>
        <pt x="445" y="318" on="0"/>
        <pt x="420" y="402" on="0"/>
        <pt x="371" y="467" on="0"/>
        <pt x="297" y="506" on="0"/>
        <pt x="249" y="506" on="1"/>
        <pt x="199" y="506" on="0"/>
        <pt x="124" y="469" on="0"/>
        <pt x="73" y="405" on="0"/>
        <pt x="48" y="321" on="0"/>
        <pt x="48" y="274" on="1"/>
        <pt x="48" y="226" on="0"/>
        <pt x="73" y="144" on="0"/>
        <pt x="122" y="83" on="0"/>
        <pt x="194" y="48" on="0"/>
        <pt x="241" y="48" on="1"/>
        <pt x="290" y="48" on="0"/>
        <pt x="367" y="84" on="0"/>
        <pt x="418" y="145" on="0"/>
        <pt x="445" y="227" on="0"/>
      </contour>
    </TTGlyph>
    <TTGlyph name="gbreve" xMin="28" yMin="-189" xMax="466" yMax="714">
      <component glyphName="g" x="0" y="0" flags="0x204"/>
      <component glyphName="breve" x="186" y="0" flags="0x4"/>
    </TTGlyph>
    <TTGlyph name="gcircumflex" xMin="28" yMin="-189" xMax="466" yMax="730">
      <component glyphName="g" x="0" y="0" flags="0x204"/>
      <component glyphName="circumflex" x="201" y="0" flags="0x4"/>
    </TTGlyph>
    <TTGlyph name="gcommaaccent" xMin="28" yMin="-189" xMax="466" yMax="755">
      <component glyphName="g" x="0" y="0" flags="0x204"/>
      <component glyphName="commaaccenttwo" x="123" y="0" flags="0x4"/>
    </TTGlyph>
    <TTGlyph name="gdotaccent" xMin="28" yMin="-189" xMax="466" yMax="695">
      <component glyphName="g" x="0" y="0" flags="0x204"/>
      <component glyphName="dotaccent" x="193" y="0" flags="0x4"/>
    </TTGlyph>
    <TTGlyph name="germandbls" xMin="55" yMin="-3" xMax="452" yMax="726">
      <contour>
        <pt x="202" y="407" on="1"/>
        <pt x="240" y="406" on="0"/>
        <pt x="310" y="421" on="0"/>
        <pt x="363" y="457" on="0"/>
        <pt x="395" y="517" on="0"/>
        <pt x="395" y="561" on="1"/>
        <pt x="395" y="595" on="0"/>
        <pt x="369" y="649" on="0"/>
        <pt x="325" y="686" on="0"/>
        <pt x="265" y="706" on="0"/>
        <pt x="231" y="706" on="1"/>
        <pt x="212" y="706" on="0"/>
        <pt x="158" y="697" on="0"/>
        <pt x="109" y="665" on="0"/>
        <pt x="75" y="605" on="0"/>
        <pt x="75" y="553" on="1"/>
        <pt x="75" y="0" on="1"/>
        <pt x="55" y="0" on="1"/>
        <pt x="55" y="556" on="1"/>
        <pt x="55" y="604" on="0"/>
        <pt x="86" y="669" on="0"/>
        <pt x="136" y="709" on="0"/>
        <pt x="199" y="726" on="0"/>
        <pt x="231" y="726" on="1"/>
        <pt x="267" y="726" on="0"/>
        <pt x="333" y="704" on="0"/>
        <pt x="384" y="661" on="0"/>
        <pt x="415" y="600" on="0"/>
        <pt x="415" y="561" on="1"/>
        <pt x="415" y="499" on="0"/>
        <pt x="352" y="411" on="0"/>
        <pt x="288" y="400" on="1"/>
        <pt x="288" y="398" on="1"/>
        <pt x="375" y="390" on="0"/>
        <pt x="452" y="289" on="0"/>
        <pt x="452" y="210" on="1"/>
        <pt x="452" y="162" on="0"/>
        <pt x="427" y="82" on="0"/>
        <pt x="369" y="26" on="0"/>
        <pt x="273" y="-3" on="0"/>
        <pt x="202" y="0" on="1"/>
        <pt x="202" y="20" on="1"/>
        <pt x="253" y="17" on="0"/>
        <pt x="337" y="33" on="0"/>
        <pt x="398" y="77" on="0"/>
        <pt x="432" y="153" on="0"/>
        <pt x="432" y="210" on="1"/>
        <pt x="432" y="265" on="0"/>
        <pt x="398" y="334" on="0"/>
        <pt x="337" y="373" on="0"/>
        <pt x="252" y="387" on="0"/>
        <pt x="202" y="387" on="1"/>
      </contour>
    </TTGlyph>
    <TTGlyph name="grave" xMin="-38" yMin="588" xMax="116" yMax="732">
      <contour>
        <pt x="-38" y="732" on="1"/>
        <pt x="-9" y="732" on="1"/>
        <pt x="116" y="588" on="1"/>
        <pt x="101" y="588" on="1"/>
      </contour>
    </TTGlyph>
    <TTGlyph name="grave.cap" xMin="-38" yMin="778" xMax="116" yMax="922">
      <contour>
        <pt x="-38" y="922" on="1"/>
        <pt x="-9" y="922" on="1"/>
        <pt x="116" y="778" on="1"/>
        <pt x="101" y="778" on="1"/>
      </contour>
    </TTGlyph>
    <TTGlyph name="greater" xMin="46" yMin="-8" xMax="554" yMax="514">
      <contour>
        <pt x="536" y="253" on="1"/>
        <pt x="46" y="493" on="1"/>
        <pt x="46" y="514" on="1"/>
        <pt x="554" y="265" on="1"/>
        <pt x="554" y="241" on="1"/>
        <pt x="46" y="-8" on="1"/>
        <pt x="46" y="13" on="1"/>
      </contour>
    </TTGlyph>
    <TTGlyph name="greaterequal" xMin="55" yMin="-3" xMax="537" yMax="485">
      <contour>
        <pt x="55" y="-3" on="1"/>
        <pt x="55" y="15" on="1"/>
        <pt x="537" y="15" on="1"/>
        <pt x="537" y="-3" on="1"/>
      </contour>
      <contour>
        <pt x="55" y="55" on="1"/>
        <pt x="55" y="74" on="1"/>
        <pt x="516" y="269" on="1"/>
        <pt x="55" y="466" on="1"/>
        <pt x="55" y="485" on="1"/>
        <pt x="537" y="278" on="1"/>
        <pt x="537" y="260" on="1"/>
      </contour>
    </TTGlyph>
    <TTGlyph name="guillemotleft" xMin="66" yMin="121" xMax="262" yMax="415">
      <contour>
        <pt x="262" y="121" on="1"/>
        <pt x="159" y="260" on="1"/>
        <pt x="159" y="276" on="1"/>
        <pt x="262" y="415" on="1"/>
        <pt x="262" y="380" on="1"/>
        <pt x="179" y="268" on="1"/>
        <pt x="262" y="156" on="1"/>
      </contour>
      <contour>
        <pt x="169" y="121" on="1"/>
        <pt x="66" y="260" on="1"/>
        <pt x="66" y="276" on="1"/>
        <pt x="169" y="415" on="1"/>
        <pt x="169" y="380" on="1"/>
        <pt x="86" y="268" on="1"/>
        <pt x="169" y="156" on="1"/>
      </contour>
    </TTGlyph>
    <TTGlyph name="guillemotright" xMin="90" yMin="121" xMax="286" yMax="415">
      <contour>
        <pt x="90" y="415" on="1"/>
        <pt x="193" y="276" on="1"/>
        <pt x="193" y="260" on="1"/>
        <pt x="90" y="121" on="1"/>
        <pt x="90" y="156" on="1"/>
        <pt x="173" y="268" on="1"/>
        <pt x="90" y="380" on="1"/>
      </contour>
      <contour>
        <pt x="183" y="415" on="1"/>
        <pt x="286" y="276" on="1"/>
        <pt x="286" y="260" on="1"/>
        <pt x="183" y="121" on="1"/>
        <pt x="183" y="156" on="1"/>
        <pt x="266" y="268" on="1"/>
        <pt x="183" y="380" on="1"/>
      </contour>
    </TTGlyph>
    <TTGlyph name="guilsinglleft" xMin="66" yMin="121" xMax="169" yMax="415">
      <contour>
        <pt x="169" y="121" on="1"/>
        <pt x="66" y="260" on="1"/>
        <pt x="66" y="276" on="1"/>
        <pt x="169" y="415" on="1"/>
        <pt x="169" y="380" on="1"/>
        <pt x="86" y="268" on="1"/>
        <pt x="169" y="156" on="1"/>
      </contour>
    </TTGlyph>
    <TTGlyph name="guilsinglright" xMin="90" yMin="121" xMax="193" yMax="415">
      <contour>
        <pt x="90" y="415" on="1"/>
        <pt x="193" y="276" on="1"/>
        <pt x="193" y="260" on="1"/>
        <pt x="90" y="121" on="1"/>
        <pt x="90" y="156" on="1"/>
        <pt x="173" y="268" on="1"/>
        <pt x="90" y="380" on="1"/>
      </contour>
    </TTGlyph>
    <TTGlyph name="h" xMin="55" yMin="0" xMax="445" yMax="714">
      <contour>
        <pt x="55" y="714" on="1"/>
        <pt x="75" y="714" on="1"/>
        <pt x="75" y="387" on="1"/>
        <pt x="77" y="387" on="1"/>
        <pt x="84" y="417" on="0"/>
        <pt x="115" y="467" on="0"/>
        <pt x="162" y="505" on="0"/>
        <pt x="224" y="526" on="0"/>
        <pt x="262" y="526" on="1"/>
        <pt x="302" y="526" on="0"/>
        <pt x="369" y="502" on="0"/>
        <pt x="418" y="455" on="0"/>
        <pt x="445" y="386" on="0"/>
        <pt x="445" y="341" on="1"/>
        <pt x="445" y="0" on="1"/>
        <pt x="425" y="0" on="1"/>
        <pt x="425" y="338" on="1"/>
        <pt x="425" y="383" on="0"/>
        <pt x="399" y="446" on="0"/>
        <pt x="354" y="487" on="0"/>
        <pt x="295" y="506" on="0"/>
        <pt x="262" y="506" on="1"/>
        <pt x="216" y="506" on="0"/>
        <pt x="146" y="471" on="0"/>
        <pt x="99" y="412" on="0"/>
        <pt x="75" y="334" on="0"/>
        <pt x="75" y="291" on="1"/>
        <pt x="75" y="0" on="1"/>
        <pt x="55" y="0" on="1"/>
      </contour>
    </TTGlyph>
    <TTGlyph name="hbar" xMin="-2" yMin="0" xMax="455" yMax="714">
      <contour>
        <pt x="65" y="714" on="1"/>
        <pt x="85" y="714" on="1"/>
        <pt x="85" y="633" on="1"/>
        <pt x="259" y="633" on="1"/>
        <pt x="259" y="613" on="1"/>
        <pt x="85" y="613" on="1"/>
        <pt x="85" y="387" on="1"/>
        <pt x="87" y="387" on="1"/>
        <pt x="94" y="417" on="0"/>
        <pt x="125" y="467" on="0"/>
        <pt x="172" y="505" on="0"/>
        <pt x="234" y="526" on="0"/>
        <pt x="272" y="526" on="1"/>
        <pt x="312" y="526" on="0"/>
        <pt x="379" y="502" on="0"/>
        <pt x="428" y="455" on="0"/>
        <pt x="455" y="386" on="0"/>
        <pt x="455" y="341" on="1"/>
        <pt x="455" y="0" on="1"/>
        <pt x="435" y="0" on="1"/>
        <pt x="435" y="338" on="1"/>
        <pt x="435" y="383" on="0"/>
        <pt x="409" y="446" on="0"/>
        <pt x="364" y="487" on="0"/>
        <pt x="305" y="506" on="0"/>
        <pt x="272" y="506" on="1"/>
        <pt x="226" y="506" on="0"/>
        <pt x="156" y="471" on="0"/>
        <pt x="109" y="412" on="0"/>
        <pt x="85" y="334" on="0"/>
        <pt x="85" y="291" on="1"/>
        <pt x="85" y="0" on="1"/>
        <pt x="65" y="0" on="1"/>
        <pt x="65" y="613" on="1"/>
        <pt x="-2" y="613" on="1"/>
        <pt x="-2" y="633" on="1"/>
        <pt x="65" y="633" on="1"/>
      </contour>
    </TTGlyph>
    <TTGlyph name="hcircumflex" xMin="55" yMin="0" xMax="445" yMax="920">
      <component glyphName="h" x="0" y="0" flags="0x204"/>
      <component glyphName="circumflex" x="181" y="190" flags="0x4"/>
    </TTGlyph>
    <TTGlyph name="hungarumlaut" xMin="-45" yMin="588" xMax="266" yMax="732">
      <contour>
        <pt x="266" y="732" on="1"/>
        <pt x="120" y="588" on="1"/>
        <pt x="105" y="588" on="1"/>
        <pt x="237" y="732" on="1"/>
      </contour>
      <contour>
        <pt x="116" y="732" on="1"/>
        <pt x="-30" y="588" on="1"/>
        <pt x="-45" y="588" on="1"/>
        <pt x="87" y="732" on="1"/>
      </contour>
    </TTGlyph>
    <TTGlyph name="hungarumlaut.cap" xMin="-45" yMin="778" xMax="266" yMax="922">
      <contour>
        <pt x="266" y="922" on="1"/>
        <pt x="120" y="778" on="1"/>
        <pt x="105" y="778" on="1"/>
        <pt x="237" y="922" on="1"/>
      </contour>
      <contour>
        <pt x="116" y="922" on="1"/>
        <pt x="-30" y="778" on="1"/>
        <pt x="-45" y="778" on="1"/>
        <pt x="87" y="922" on="1"/>
      </contour>
    </TTGlyph>
    <TTGlyph name="hyphen" xMin="79" yMin="258" xMax="254" yMax="278">
      <contour>
        <pt x="79" y="278" on="1"/>
        <pt x="254" y="278" on="1"/>
        <pt x="254" y="258" on="1"/>
        <pt x="79" y="258" on="1"/>
      </contour>
    </TTGlyph>
    <TTGlyph name="i" xMin="55" yMin="0" xMax="75" yMax="714">
      <contour>
        <pt x="75" y="613" on="1"/>
        <pt x="55" y="613" on="1"/>
        <pt x="55" y="714" on="1"/>
        <pt x="75" y="714" on="1"/>
      </contour>
      <contour>
        <pt x="75" y="0" on="1"/>
        <pt x="55" y="0" on="1"/>
        <pt x="55" y="514" on="1"/>
        <pt x="75" y="514" on="1"/>
      </contour>
    </TTGlyph>
    <TTGlyph name="iacute" xMin="54" yMin="0" xMax="215" yMax="732">
      <component glyphName="dotlessi" x="0" y="0" flags="0x204"/>
      <component glyphName="acute" x="44" y="0" flags="0x4"/>
    </TTGlyph>
    <TTGlyph name="icircumflex" xMin="-56" yMin="0" xMax="186" yMax="730">
      <component glyphName="dotlessi" x="0" y="0" flags="0x204"/>
      <component glyphName="circumflex" x="0" y="0" flags="0x4"/>
    </TTGlyph>
    <TTGlyph name="idieresis" xMin="-23" yMin="0" xMax="153" yMax="695">
      <component glyphName="dotlessi" x="0" y="0" flags="0x204"/>
      <component glyphName="dieresis" x="0" y="0" flags="0x4"/>
    </TTGlyph>
    <TTGlyph name="igrave" xMin="-78" yMin="0" xMax="76" yMax="732">
      <component glyphName="dotlessi" x="0" y="0" flags="0x204"/>
      <component glyphName="grave" x="-40" y="0" flags="0x4"/>
    </TTGlyph>
    <TTGlyph name="ij" xMin="55" yMin="-177" xMax="249" yMax="714">
      <component glyphName="i" x="0" y="0" flags="0x4"/>
      <component glyphName="j" x="174" y="0" flags="0x4"/>
    </TTGlyph>
    <TTGlyph name="imacron" xMin="-51" yMin="0" xMax="181" yMax="660">
      <component glyphName="dotlessi" x="0" y="0" flags="0x204"/>
      <component glyphName="macron" x="0" y="0" flags="0x4"/>
    </TTGlyph>
    <TTGlyph name="infinity" xMin="54" yMin="117" xMax="668" yMax="365">
      <contour>
        <pt x="349" y="240" on="1"/>
        <pt x="332" y="256" on="0"/>
        <pt x="289" y="293" on="0"/>
        <pt x="242" y="325" on="0"/>
        <pt x="192" y="347" on="0"/>
        <pt x="168" y="347" on="1"/>
        <pt x="146" y="347" on="0"/>
        <pt x="110" y="330" on="0"/>
        <pt x="85" y="301" on="0"/>
        <pt x="72" y="263" on="0"/>
        <pt x="72" y="242" on="1"/>
        <pt x="72" y="195" on="0"/>
        <pt x="125" y="136" on="0"/>
        <pt x="173" y="136" on="1"/>
        <pt x="199" y="136" on="0"/>
        <pt x="247" y="156" on="0"/>
        <pt x="291" y="187" on="0"/>
        <pt x="331" y="223" on="0"/>
      </contour>
      <contour>
        <pt x="650" y="242" on="1"/>
        <pt x="650" y="285" on="0"/>
        <pt x="598" y="347" on="0"/>
        <pt x="553" y="347" on="1"/>
        <pt x="529" y="347" on="0"/>
        <pt x="480" y="325" on="0"/>
        <pt x="433" y="292" on="0"/>
        <pt x="390" y="256" on="0"/>
        <pt x="373" y="241" on="1"/>
        <pt x="390" y="225" on="0"/>
        <pt x="430" y="188" on="0"/>
        <pt x="474" y="156" on="0"/>
        <pt x="522" y="135" on="0"/>
        <pt x="547" y="135" on="1"/>
        <pt x="597" y="135" on="0"/>
        <pt x="650" y="194" on="0"/>
      </contour>
      <contour>
        <pt x="668" y="242" on="1"/>
        <pt x="668" y="187" on="0"/>
        <pt x="604" y="117" on="0"/>
        <pt x="548" y="117" on="1"/>
        <pt x="518" y="117" on="0"/>
        <pt x="468" y="138" on="0"/>
        <pt x="423" y="170" on="0"/>
        <pt x="382" y="210" on="0"/>
        <pt x="361" y="228" on="1"/>
        <pt x="339" y="210" on="0"/>
        <pt x="299" y="172" on="0"/>
        <pt x="256" y="139" on="0"/>
        <pt x="206" y="118" on="0"/>
        <pt x="175" y="118" on="1"/>
        <pt x="118" y="118" on="0"/>
        <pt x="54" y="186" on="0"/>
        <pt x="54" y="242" on="1"/>
        <pt x="54" y="267" on="0"/>
        <pt x="71" y="312" on="0"/>
        <pt x="102" y="346" on="0"/>
        <pt x="145" y="365" on="0"/>
        <pt x="171" y="365" on="1"/>
        <pt x="197" y="365" on="0"/>
        <pt x="249" y="343" on="0"/>
        <pt x="298" y="309" on="0"/>
        <pt x="342" y="270" on="0"/>
        <pt x="361" y="254" on="1"/>
        <pt x="379" y="270" on="0"/>
        <pt x="424" y="309" on="0"/>
        <pt x="473" y="342" on="0"/>
        <pt x="525" y="365" on="0"/>
        <pt x="550" y="365" on="1"/>
        <pt x="603" y="365" on="0"/>
        <pt x="668" y="294" on="0"/>
      </contour>
    </TTGlyph>
    <TTGlyph name="integral" xMin="136" yMin="-214" xMax="358" yMax="786">
      <contour>
        <pt x="358" y="758" on="1"/>
        <pt x="358" y="748" on="0"/>
        <pt x="345" y="736" on="0"/>
        <pt x="335" y="736" on="1"/>
        <pt x="323" y="736" on="0"/>
        <pt x="313" y="749" on="0"/>
        <pt x="305" y="757" on="1"/>
        <pt x="304" y="757" on="0"/>
        <pt x="301" y="759" on="0"/>
        <pt x="300" y="759" on="1"/>
        <pt x="289" y="759" on="0"/>
        <pt x="274" y="735" on="0"/>
        <pt x="264" y="704" on="0"/>
        <pt x="259" y="672" on="0"/>
        <pt x="258" y="665" on="1"/>
        <pt x="255" y="632" on="0"/>
        <pt x="254" y="566" on="0"/>
        <pt x="254" y="533" on="1"/>
        <pt x="254" y="46" on="1"/>
        <pt x="254" y="31" on="0"/>
        <pt x="255" y="-19" on="0"/>
        <pt x="253" y="-77" on="0"/>
        <pt x="245" y="-136" on="0"/>
        <pt x="226" y="-184" on="0"/>
        <pt x="193" y="-214" on="0"/>
        <pt x="168" y="-214" on="1"/>
        <pt x="156" y="-214" on="0"/>
        <pt x="136" y="-200" on="0"/>
        <pt x="136" y="-187" on="1"/>
        <pt x="136" y="-177" on="0"/>
        <pt x="148" y="-164" on="0"/>
        <pt x="158" y="-164" on="1"/>
        <pt x="165" y="-164" on="0"/>
        <pt x="176" y="-171" on="0"/>
        <pt x="183" y="-180" on="0"/>
        <pt x="190" y="-187" on="0"/>
        <pt x="193" y="-187" on="1"/>
        <pt x="204" y="-187" on="0"/>
        <pt x="220" y="-161" on="0"/>
        <pt x="229" y="-120" on="0"/>
        <pt x="234" y="-71" on="0"/>
        <pt x="235" y="-25" on="0"/>
        <pt x="235" y="-7" on="1"/>
        <pt x="235" y="11" on="0"/>
        <pt x="235" y="18" on="1"/>
        <pt x="235" y="525" on="1"/>
        <pt x="235" y="539" on="0"/>
        <pt x="234" y="589" on="0"/>
        <pt x="236" y="647" on="0"/>
        <pt x="245" y="707" on="0"/>
        <pt x="264" y="755" on="0"/>
        <pt x="297" y="786" on="0"/>
        <pt x="322" y="786" on="1"/>
        <pt x="335" y="786" on="0"/>
        <pt x="358" y="773" on="0"/>
      </contour>
    </TTGlyph>
    <TTGlyph name="iogonek" xMin="-25" yMin="-188" xMax="126" yMax="714">
      <contour>
        <pt x="75" y="0" on="1"/>
        <pt x="33" y="-42" on="0"/>
        <pt x="-3" y="-96" on="0"/>
        <pt x="-3" y="-123" on="1"/>
        <pt x="-3" y="-142" on="0"/>
        <pt x="21" y="-168" on="0"/>
        <pt x="43" y="-168" on="1"/>
        <pt x="68" y="-168" on="0"/>
        <pt x="102" y="-147" on="0"/>
        <pt x="111" y="-136" on="1"/>
        <pt x="126" y="-148" on="1"/>
        <pt x="107" y="-170" on="0"/>
        <pt x="68" y="-188" on="0"/>
        <pt x="43" y="-188" on="1"/>
        <pt x="10" y="-188" on="0"/>
        <pt x="-25" y="-152" on="0"/>
        <pt x="-25" y="-125" on="1"/>
        <pt x="-25" y="-106" on="0"/>
        <pt x="-9" y="-69" on="0"/>
        <pt x="16" y="-38" on="0"/>
        <pt x="40" y="-14" on="0"/>
        <pt x="55" y="0" on="1"/>
        <pt x="55" y="514" on="1"/>
        <pt x="75" y="514" on="1"/>
      </contour>
      <contour>
        <pt x="75" y="613" on="1"/>
        <pt x="55" y="613" on="1"/>
        <pt x="55" y="714" on="1"/>
        <pt x="75" y="714" on="1"/>
      </contour>
    </TTGlyph>
    <TTGlyph name="itilde" xMin="-67" yMin="0" xMax="197" yMax="694">
      <component glyphName="dotlessi" x="0" y="0" flags="0x204"/>
      <component glyphName="tilde" x="0" y="0" flags="0x4"/>
    </TTGlyph>
    <TTGlyph name="j" xMin="-49" yMin="-177" xMax="75" yMax="714">
      <contour>
        <pt x="75" y="613" on="1"/>
        <pt x="55" y="613" on="1"/>
        <pt x="55" y="714" on="1"/>
        <pt x="75" y="714" on="1"/>
      </contour>
      <contour>
        <pt x="75" y="-75" on="1"/>
        <pt x="75" y="-111" on="0"/>
        <pt x="58" y="-151" on="0"/>
        <pt x="27" y="-171" on="0"/>
        <pt x="-19" y="-177" on="0"/>
        <pt x="-49" y="-177" on="1"/>
        <pt x="-49" y="-157" on="1"/>
        <pt x="-20" y="-157" on="0"/>
        <pt x="20" y="-153" on="0"/>
        <pt x="44" y="-136" on="0"/>
        <pt x="55" y="-100" on="0"/>
        <pt x="55" y="-68" on="1"/>
        <pt x="55" y="514" on="1"/>
        <pt x="75" y="514" on="1"/>
      </contour>
    </TTGlyph>
    <TTGlyph name="jcircumflex" xMin="-59" yMin="-177" xMax="183" yMax="730">
      <component glyphName="dotlessj" x="0" y="0" flags="0x204"/>
      <component glyphName="circumflex" x="-3" y="0" flags="0x4"/>
    </TTGlyph>
    <TTGlyph name="k" xMin="55" yMin="0" xMax="476" yMax="714">
      <contour>
        <pt x="75" y="194" on="1"/>
        <pt x="75" y="0" on="1"/>
        <pt x="55" y="0" on="1"/>
        <pt x="55" y="714" on="1"/>
        <pt x="75" y="714" on="1"/>
        <pt x="75" y="219" on="1"/>
        <pt x="430" y="514" on="1"/>
        <pt x="459" y="514" on="1"/>
        <pt x="223" y="318" on="1"/>
        <pt x="476" y="0" on="1"/>
        <pt x="449" y="0" on="1"/>
        <pt x="208" y="304" on="1"/>
      </contour>
    </TTGlyph>
    <TTGlyph name="kcommaaccent" xMin="55" yMin="-189" xMax="476" yMax="714">
      <component glyphName="k" x="0" y="0" flags="0x204"/>
      <component glyphName="commaaccent" x="100" y="0" flags="0x4"/>
    </TTGlyph>
    <TTGlyph name="l" xMin="55" yMin="0" xMax="75" yMax="714">
      <contour>
        <pt x="55" y="714" on="1"/>
        <pt x="75" y="714" on="1"/>
        <pt x="75" y="0" on="1"/>
        <pt x="55" y="0" on="1"/>
      </contour>
    </TTGlyph>
    <TTGlyph name="lacute" xMin="55" yMin="0" xMax="216" yMax="922">
      <component glyphName="l" x="0" y="0" flags="0x204"/>
      <component glyphName="acute" x="45" y="190" flags="0x4"/>
    </TTGlyph>
    <TTGlyph name="lcaron" xMin="55" yMin="0" xMax="204" yMax="714">
      <component glyphName="l" x="0" y="0" flags="0x4"/>
      <component glyphName="carontwo" x="74" y="0" flags="0x4"/>
    </TTGlyph>
    <TTGlyph name="lcommaaccent" xMin="19" yMin="-189" xMax="77" yMax="714">
      <component glyphName="l" x="0" y="0" flags="0x204"/>
      <component glyphName="commaaccent" x="-72" y="0" flags="0x4"/>
    </TTGlyph>
    <TTGlyph name="ldot" xMin="55" yMin="0" xMax="150" yMax="714">
      <component glyphName="l" x="0" y="0" flags="0x4"/>
      <component glyphName="dotaccent" x="75" y="-180" flags="0x4"/>
    </TTGlyph>
    <TTGlyph name="less" xMin="46" yMin="-8" xMax="554" yMax="514">
      <contour>
        <pt x="554" y="-8" on="1"/>
        <pt x="46" y="241" on="1"/>
        <pt x="46" y="265" on="1"/>
        <pt x="554" y="514" on="1"/>
        <pt x="554" y="493" on="1"/>
        <pt x="64" y="253" on="1"/>
        <pt x="554" y="13" on="1"/>
      </contour>
    </TTGlyph>
    <TTGlyph name="lessequal" xMin="55" yMin="-3" xMax="537" yMax="485">
      <contour>
        <pt x="55" y="-3" on="1"/>
        <pt x="55" y="15" on="1"/>
        <pt x="537" y="15" on="1"/>
        <pt x="537" y="-3" on="1"/>
      </contour>
      <contour>
        <pt x="55" y="260" on="1"/>
        <pt x="55" y="278" on="1"/>
        <pt x="537" y="485" on="1"/>
        <pt x="537" y="466" on="1"/>
        <pt x="76" y="269" on="1"/>
        <pt x="537" y="74" on="1"/>
        <pt x="537" y="55" on="1"/>
      </contour>
    </TTGlyph>
    <TTGlyph name="logicalnot" xMin="48" yMin="93" xMax="552" yMax="360">
      <contour>
        <pt x="532" y="340" on="1"/>
        <pt x="48" y="340" on="1"/>
        <pt x="48" y="360" on="1"/>
        <pt x="552" y="360" on="1"/>
        <pt x="552" y="93" on="1"/>
        <pt x="532" y="93" on="1"/>
      </contour>
    </TTGlyph>
    <TTGlyph name="lozenge" xMin="122" yMin="-35" xMax="471" yMax="747">
      <contour>
        <pt x="296" y="713" on="1"/>
        <pt x="142" y="356" on="1"/>
        <pt x="296" y="-1" on="1"/>
        <pt x="451" y="356" on="1"/>
      </contour>
      <contour>
        <pt x="300" y="-35" on="1"/>
        <pt x="292" y="-35" on="1"/>
        <pt x="122" y="356" on="1"/>
        <pt x="292" y="747" on="1"/>
        <pt x="300" y="747" on="1"/>
        <pt x="471" y="356" on="1"/>
      </contour>
    </TTGlyph>
    <TTGlyph name="lslash" xMin="-18" yMin="0" xMax="148" yMax="714">
      <contour>
        <pt x="75" y="714" on="1"/>
        <pt x="75" y="417" on="1"/>
        <pt x="148" y="480" on="1"/>
        <pt x="148" y="455" on="1"/>
        <pt x="75" y="392" on="1"/>
        <pt x="75" y="0" on="1"/>
        <pt x="55" y="0" on="1"/>
        <pt x="55" y="375" on="1"/>
        <pt x="-18" y="312" on="1"/>
        <pt x="-18" y="337" on="1"/>
        <pt x="55" y="400" on="1"/>
        <pt x="55" y="714" on="1"/>
      </contour>
    </TTGlyph>
    <TTGlyph name="m" xMin="55" yMin="0" xMax="723" yMax="528">
      <contour>
        <pt x="55" y="514" on="1"/>
        <pt x="75" y="514" on="1"/>
        <pt x="75" y="387" on="1"/>
        <pt x="77" y="387" on="1"/>
        <pt x="84" y="417" on="0"/>
        <pt x="115" y="467" on="0"/>
        <pt x="158" y="505" on="0"/>
        <pt x="211" y="526" on="0"/>
        <pt x="241" y="526" on="1"/>
        <pt x="301" y="528" on="0"/>
        <pt x="382" y="463" on="0"/>
        <pt x="395" y="406" on="1"/>
        <pt x="397" y="406" on="1"/>
        <pt x="412" y="460" on="0"/>
        <pt x="501" y="526" on="0"/>
        <pt x="560" y="526" on="1"/>
        <pt x="606" y="526" on="0"/>
        <pt x="669" y="498" on="0"/>
        <pt x="707" y="449" on="0"/>
        <pt x="723" y="380" on="0"/>
        <pt x="723" y="338" on="1"/>
        <pt x="723" y="0" on="1"/>
        <pt x="703" y="0" on="1"/>
        <pt x="703" y="338" on="1"/>
        <pt x="703" y="376" on="0"/>
        <pt x="690" y="438" on="0"/>
        <pt x="657" y="482" on="0"/>
        <pt x="602" y="506" on="0"/>
        <pt x="560" y="506" on="1"/>
        <pt x="522" y="506" on="0"/>
        <pt x="463" y="477" on="0"/>
        <pt x="421" y="427" on="0"/>
        <pt x="399" y="362" on="0"/>
        <pt x="399" y="326" on="1"/>
        <pt x="399" y="0" on="1"/>
        <pt x="379" y="0" on="1"/>
        <pt x="379" y="330" on="1"/>
        <pt x="379" y="366" on="0"/>
        <pt x="368" y="430" on="0"/>
        <pt x="338" y="478" on="0"/>
        <pt x="284" y="506" on="0"/>
        <pt x="241" y="506" on="1"/>
        <pt x="203" y="506" on="0"/>
        <pt x="141" y="471" on="0"/>
        <pt x="98" y="412" on="0"/>
        <pt x="75" y="334" on="0"/>
        <pt x="75" y="291" on="1"/>
        <pt x="75" y="0" on="1"/>
        <pt x="55" y="0" on="1"/>
      </contour>
    </TTGlyph>
    <TTGlyph name="macron" xMin="-51" yMin="640" xMax="181" yMax="660">
      <contour>
        <pt x="181" y="640" on="1"/>
        <pt x="-51" y="640" on="1"/>
        <pt x="-51" y="660" on="1"/>
        <pt x="181" y="660" on="1"/>
      </contour>
    </TTGlyph>
    <TTGlyph name="macron.cap" xMin="-51" yMin="830" xMax="181" yMax="850">
      <contour>
        <pt x="181" y="830" on="1"/>
        <pt x="-51" y="830" on="1"/>
        <pt x="-51" y="850" on="1"/>
        <pt x="181" y="850" on="1"/>
      </contour>
    </TTGlyph>
    <TTGlyph name="minus" xMin="48" yMin="243" xMax="552" yMax="263">
      <contour>
        <pt x="48" y="243" on="1"/>
        <pt x="48" y="263" on="1"/>
        <pt x="552" y="263" on="1"/>
        <pt x="552" y="243" on="1"/>
      </contour>
    </TTGlyph>
    <TTGlyph name="mu" xMin="83" yMin="-177" xMax="472" yMax="514">
      <contour>
        <pt x="472" y="0" on="1"/>
        <pt x="452" y="0" on="1"/>
        <pt x="452" y="127" on="1"/>
        <pt x="450" y="127" on="1"/>
        <pt x="443" y="97" on="0"/>
        <pt x="412" y="47" on="0"/>
        <pt x="365" y="9" on="0"/>
        <pt x="303" y="-12" on="0"/>
        <pt x="265" y="-12" on="1"/>
        <pt x="215" y="-12" on="0"/>
        <pt x="128" y="30" on="0"/>
        <pt x="105" y="81" on="1"/>
        <pt x="103" y="81" on="1"/>
        <pt x="103" y="-177" on="1"/>
        <pt x="83" y="-177" on="1"/>
        <pt x="83" y="514" on="1"/>
        <pt x="102" y="514" on="1"/>
        <pt x="102" y="176" on="1"/>
        <pt x="102" y="131" on="0"/>
        <pt x="128" y="68" on="0"/>
        <pt x="173" y="27" on="0"/>
        <pt x="232" y="8" on="0"/>
        <pt x="265" y="8" on="1"/>
        <pt x="311" y="8" on="0"/>
        <pt x="381" y="43" on="0"/>
        <pt x="428" y="102" on="0"/>
        <pt x="452" y="180" on="0"/>
        <pt x="452" y="223" on="1"/>
        <pt x="452" y="514" on="1"/>
        <pt x="472" y="514" on="1"/>
      </contour>
    </TTGlyph>
    <TTGlyph name="multiply" xMin="96" yMin="49" xMax="504" yMax="456">
      <contour>
        <pt x="96" y="443" on="1"/>
        <pt x="110" y="456" on="1"/>
        <pt x="299" y="265" on="1"/>
        <pt x="490" y="456" on="1"/>
        <pt x="504" y="443" on="1"/>
        <pt x="313" y="253" on="1"/>
        <pt x="504" y="63" on="1"/>
        <pt x="490" y="49" on="1"/>
        <pt x="299" y="240" on="1"/>
        <pt x="110" y="49" on="1"/>
        <pt x="96" y="63" on="1"/>
        <pt x="286" y="253" on="1"/>
      </contour>
    </TTGlyph>
    <TTGlyph name="n" xMin="55" yMin="0" xMax="445" yMax="526">
      <contour>
        <pt x="55" y="514" on="1"/>
        <pt x="75" y="514" on="1"/>
        <pt x="75" y="387" on="1"/>
        <pt x="77" y="387" on="1"/>
        <pt x="84" y="417" on="0"/>
        <pt x="115" y="467" on="0"/>
        <pt x="162" y="505" on="0"/>
        <pt x="224" y="526" on="0"/>
        <pt x="262" y="526" on="1"/>
        <pt x="302" y="526" on="0"/>
        <pt x="369" y="502" on="0"/>
        <pt x="418" y="455" on="0"/>
        <pt x="445" y="386" on="0"/>
        <pt x="445" y="341" on="1"/>
        <pt x="445" y="0" on="1"/>
        <pt x="425" y="0" on="1"/>
        <pt x="425" y="338" on="1"/>
        <pt x="425" y="383" on="0"/>
        <pt x="399" y="446" on="0"/>
        <pt x="354" y="487" on="0"/>
        <pt x="295" y="506" on="0"/>
        <pt x="262" y="506" on="1"/>
        <pt x="216" y="506" on="0"/>
        <pt x="146" y="471" on="0"/>
        <pt x="99" y="412" on="0"/>
        <pt x="75" y="334" on="0"/>
        <pt x="75" y="291" on="1"/>
        <pt x="75" y="0" on="1"/>
        <pt x="55" y="0" on="1"/>
      </contour>
    </TTGlyph>
    <TTGlyph name="nacute" xMin="55" yMin="0" xMax="445" yMax="732">
      <component glyphName="n" x="0" y="0" flags="0x204"/>
      <component glyphName="acute" x="219" y="0" flags="0x4"/>
    </TTGlyph>
    <TTGlyph name="napostrophe" xMin="37" yMin="0" xMax="475" yMax="790">
      <component glyphName="n" x="30" y="0" flags="0x4"/>
      <component glyphName="commaaccent" x="-54" y="840" flags="0x4"/>
    </TTGlyph>
    <TTGlyph name="ncaron" xMin="55" yMin="0" xMax="445" yMax="730">
      <component glyphName="n" x="0" y="0" flags="0x204"/>
      <component glyphName="caron" x="184" y="0" flags="0x4"/>
    </TTGlyph>
    <TTGlyph name="ncommaaccent" xMin="55" yMin="-189" xMax="445" yMax="526">
      <component glyphName="n" x="0" y="0" flags="0x204"/>
      <component glyphName="commaaccent" x="111" y="0" flags="0x4"/>
    </TTGlyph>
    <TTGlyph name="nine" xMin="39" yMin="-12" xMax="518" yMax="692">
      <contour>
        <pt x="489" y="457" on="1"/>
        <pt x="489" y="502" on="0"/>
        <pt x="455" y="580" on="0"/>
        <pt x="397" y="638" on="0"/>
        <pt x="319" y="672" on="0"/>
        <pt x="274" y="672" on="1"/>
        <pt x="229" y="672" on="0"/>
        <pt x="151" y="638" on="0"/>
        <pt x="93" y="580" on="0"/>
        <pt x="59" y="502" on="0"/>
        <pt x="59" y="457" on="1"/>
        <pt x="59" y="412" on="0"/>
        <pt x="93" y="334" on="0"/>
        <pt x="151" y="276" on="0"/>
        <pt x="229" y="242" on="0"/>
        <pt x="274" y="242" on="1"/>
        <pt x="319" y="242" on="0"/>
        <pt x="397" y="276" on="0"/>
        <pt x="455" y="334" on="0"/>
        <pt x="489" y="412" on="0"/>
      </contour>
      <contour>
        <pt x="71" y="160" on="1"/>
        <pt x="81" y="114" on="0"/>
        <pt x="124" y="55" on="0"/>
        <pt x="178" y="21" on="0"/>
        <pt x="236" y="8" on="0"/>
        <pt x="262" y="8" on="1"/>
        <pt x="338" y="8" on="0"/>
        <pt x="432" y="84" on="0"/>
        <pt x="483" y="200" on="0"/>
        <pt x="499" y="334" on="0"/>
        <pt x="498" y="393" on="1"/>
        <pt x="496" y="393" on="1"/>
        <pt x="488" y="357" on="0"/>
        <pt x="448" y="295" on="0"/>
        <pt x="389" y="248" on="0"/>
        <pt x="315" y="222" on="0"/>
        <pt x="274" y="222" on="1"/>
        <pt x="230" y="222" on="0"/>
        <pt x="145" y="256" on="0"/>
        <pt x="79" y="318" on="0"/>
        <pt x="39" y="404" on="0"/>
        <pt x="39" y="457" on="1"/>
        <pt x="39" y="508" on="0"/>
        <pt x="77" y="594" on="0"/>
        <pt x="142" y="657" on="0"/>
        <pt x="227" y="692" on="0"/>
        <pt x="274" y="692" on="1"/>
        <pt x="309" y="692" on="0"/>
        <pt x="370" y="673" on="0"/>
        <pt x="420" y="643" on="0"/>
        <pt x="459" y="605" on="0"/>
        <pt x="472" y="585" on="1"/>
        <pt x="502" y="540" on="0"/>
        <pt x="518" y="425" on="0"/>
        <pt x="518" y="359" on="1"/>
        <pt x="518" y="296" on="0"/>
        <pt x="494" y="164" on="0"/>
        <pt x="435" y="56" on="0"/>
        <pt x="336" y="-12" on="0"/>
        <pt x="261" y="-12" on="1"/>
        <pt x="217" y="-12" on="0"/>
        <pt x="144" y="15" on="0"/>
        <pt x="90" y="61" on="0"/>
        <pt x="56" y="124" on="0"/>
        <pt x="51" y="160" on="1"/>
      </contour>
    </TTGlyph>
    <TTGlyph name="notequal" xMin="55" yMin="0" xMax="537" yMax="482">
      <contour>
        <pt x="252" y="140" on="1"/>
        <pt x="177" y="0" on="1"/>
        <pt x="161" y="8" on="1"/>
        <pt x="232" y="140" on="1"/>
        <pt x="55" y="140" on="1"/>
        <pt x="55" y="158" on="1"/>
        <pt x="241" y="158" on="1"/>
        <pt x="330" y="324" on="1"/>
        <pt x="55" y="324" on="1"/>
        <pt x="55" y="342" on="1"/>
        <pt x="339" y="342" on="1"/>
        <pt x="415" y="482" on="1"/>
        <pt x="431" y="474" on="1"/>
        <pt x="360" y="342" on="1"/>
        <pt x="537" y="342" on="1"/>
        <pt x="537" y="324" on="1"/>
        <pt x="350" y="324" on="1"/>
        <pt x="262" y="158" on="1"/>
        <pt x="537" y="158" on="1"/>
        <pt x="537" y="140" on="1"/>
      </contour>
    </TTGlyph>
    <TTGlyph name="ntilde" xMin="55" yMin="0" xMax="445" yMax="694">
      <component glyphName="n" x="0" y="0" flags="0x204"/>
      <component glyphName="tilde" x="181" y="0" flags="0x4"/>
    </TTGlyph>
    <TTGlyph name="numbersign" xMin="35" yMin="0" xMax="521" yMax="680">
      <contour>
        <pt x="185" y="249" on="1"/>
        <pt x="356" y="249" on="1"/>
        <pt x="380" y="426" on="1"/>
        <pt x="209" y="426" on="1"/>
      </contour>
      <contour>
        <pt x="245" y="680" on="1"/>
        <pt x="214" y="446" on="1"/>
        <pt x="385" y="446" on="1"/>
        <pt x="416" y="680" on="1"/>
        <pt x="436" y="680" on="1"/>
        <pt x="405" y="446" on="1"/>
        <pt x="521" y="446" on="1"/>
        <pt x="521" y="426" on="1"/>
        <pt x="400" y="426" on="1"/>
        <pt x="376" y="249" on="1"/>
        <pt x="493" y="249" on="1"/>
        <pt x="493" y="229" on="1"/>
        <pt x="372" y="229" on="1"/>
        <pt x="341" y="0" on="1"/>
        <pt x="321" y="0" on="1"/>
        <pt x="352" y="229" on="1"/>
        <pt x="180" y="229" on="1"/>
        <pt x="149" y="0" on="1"/>
        <pt x="129" y="0" on="1"/>
        <pt x="160" y="229" on="1"/>
        <pt x="35" y="229" on="1"/>
        <pt x="35" y="249" on="1"/>
        <pt x="165" y="249" on="1"/>
        <pt x="189" y="426" on="1"/>
        <pt x="63" y="426" on="1"/>
        <pt x="63" y="446" on="1"/>
        <pt x="194" y="446" on="1"/>
        <pt x="225" y="680" on="1"/>
      </contour>
    </TTGlyph>
</ttFont>
